<svg width="2500" height="728" viewBox="0 0 2500 728" fill="none" xmlns="http://www.w3.org/2000/svg">
<path d="M16.2707 564.595V286.365H363.651V270.094H16.2707V16.2707H385.617V0H0V580.866H388.871V564.595H16.2707ZM702.083 162.707L558.087 352.262L417.345 162.707H396.193L548.324 364.465L381.549 580.866H401.074L558.087 376.668L715.913 580.866H736.251L568.663 364.465L721.608 162.707H702.083ZM785.063 724.048V463.716H786.691C796.453 501.681 815.707 532.189 844.452 555.239C873.197 578.29 909.806 589.815 954.279 589.815C983.024 589.815 1008.51 583.984 1030.75 572.323C1052.99 560.663 1071.56 544.799 1086.48 524.732C1101.39 504.664 1112.78 481.343 1120.65 454.767C1128.51 428.192 1132.44 400.26 1132.44 370.973C1132.44 339.516 1128.38 310.5 1120.24 283.925C1112.11 257.349 1100.31 234.299 1084.85 214.774C1069.39 195.249 1050.68 180.063 1028.72 169.216C1006.75 158.369 981.94 152.945 954.279 152.945C933.127 152.945 913.467 156.064 895.298 162.301C877.129 168.538 860.994 177.351 846.892 188.741C832.791 200.13 820.588 213.553 810.283 229.011C799.978 244.468 792.114 261.417 786.691 279.857H785.063V162.707H768.793V724.048H785.063ZM954.279 574.357C903.297 574.357 862.35 556.866 831.435 521.884C800.521 486.902 785.063 436.599 785.063 370.973C785.063 343.855 788.86 318.093 796.453 293.687C804.046 269.281 815.029 247.858 829.401 229.418C843.774 210.977 861.536 196.334 882.688 185.486C903.84 174.639 927.704 169.216 954.279 169.216C981.397 169.216 1005.13 174.639 1025.46 185.486C1045.8 196.334 1062.62 211.113 1075.9 229.824C1089.19 248.536 1099.22 269.959 1106 294.094C1112.78 318.229 1116.17 343.855 1116.17 370.973C1116.17 395.379 1113.05 419.649 1106.82 443.785C1100.58 467.92 1090.95 489.614 1077.94 508.868C1064.92 528.121 1048.24 543.85 1027.9 556.053C1007.57 568.256 983.024 574.357 954.279 574.357ZM1221.93 580.866V344.126C1221.93 321.347 1225.19 299.111 1231.7 277.416C1238.2 255.722 1248.24 236.604 1261.8 220.062C1275.36 203.52 1292.57 190.503 1313.46 181.012C1334.34 171.521 1359.15 167.589 1387.89 169.216V152.945C1362.95 152.403 1341.12 155.114 1322.4 161.08C1303.69 167.046 1287.56 175.182 1274 185.486C1260.44 195.791 1249.59 207.859 1241.46 221.689C1233.32 235.519 1227.36 250.298 1223.56 266.027H1221.93V162.707H1205.66V580.866H1221.93ZM1408.23 375.041H1758.05C1759.14 346.296 1756.29 318.636 1749.51 292.06C1742.73 265.484 1731.89 241.892 1716.97 221.282C1702.06 200.672 1682.8 184.131 1659.21 171.656C1635.62 159.182 1607.55 152.945 1575.01 152.945C1551.69 152.945 1528.91 157.826 1506.67 167.589C1484.43 177.351 1464.91 191.588 1448.1 210.299C1431.28 229.011 1417.72 251.925 1407.42 279.043C1397.11 306.161 1391.96 337.075 1391.96 371.787C1391.96 402.701 1395.49 431.581 1402.54 458.428C1409.59 485.275 1420.44 508.596 1435.08 528.392C1449.72 548.189 1468.57 563.51 1491.62 574.357C1514.67 585.205 1542.47 590.357 1575.01 589.815C1622.74 589.815 1662.87 576.391 1695.41 549.544C1727.95 522.698 1747.21 484.868 1753.17 436.056H1736.9C1729.85 482.157 1711.82 516.732 1682.8 539.782C1653.79 562.832 1617.31 574.357 1573.38 574.357C1543.55 574.357 1518.33 569.205 1497.72 558.9C1477.11 548.595 1460.3 534.494 1447.28 516.596C1434.27 498.698 1424.64 477.682 1418.4 453.547C1412.17 429.412 1408.78 403.243 1408.23 375.041ZM1741.78 358.77H1408.23C1409.86 329.482 1415.28 303.178 1424.5 279.857C1433.72 256.535 1445.79 236.604 1460.71 220.062C1475.62 203.52 1492.98 190.91 1512.77 182.232C1532.57 173.555 1553.86 169.216 1576.64 169.216C1603.75 169.216 1627.62 174.233 1648.23 184.266C1668.84 194.3 1686.06 207.994 1699.89 225.35C1713.72 242.705 1724.16 262.908 1731.21 285.958C1738.26 309.009 1741.78 333.279 1741.78 358.77ZM2095.67 286.365H2111.94C2111.94 239.722 2098.38 205.825 2071.27 184.673C2044.15 163.521 2007.27 152.945 1960.62 152.945C1934.59 152.945 1912.63 156.199 1894.73 162.707C1876.83 169.216 1862.19 177.622 1850.8 187.927C1839.41 198.232 1831.27 209.621 1826.39 222.096C1821.51 234.57 1819.07 246.502 1819.07 257.891C1819.07 280.67 1823.14 298.839 1831.27 312.398C1839.41 325.957 1852.15 336.533 1869.51 344.126C1881.44 349.55 1895 354.431 1910.19 358.77C1925.37 363.109 1943 367.719 1963.07 372.6C1980.96 376.939 1998.59 381.278 2015.95 385.617C2033.3 389.956 2048.62 395.786 2061.91 403.108C2075.2 410.43 2086.05 419.785 2094.45 431.175C2102.86 442.564 2107.06 457.479 2107.06 475.919C2107.06 493.817 2102.86 509.003 2094.45 521.477C2086.05 533.952 2075.33 544.121 2062.32 551.985C2049.3 559.849 2034.79 565.544 2018.79 569.069C2002.79 572.595 1987.2 574.357 1972.01 574.357C1922.66 574.357 1884.83 563.375 1858.53 541.409C1832.22 519.443 1819.07 484.868 1819.07 437.683H1802.8C1802.8 490.292 1817.04 528.799 1845.51 553.205C1873.98 577.612 1916.15 589.815 1972.01 589.815C1989.91 589.815 2007.95 587.781 2026.11 583.713C2044.28 579.645 2060.55 573.001 2074.93 563.781C2089.3 554.561 2100.96 542.629 2109.91 527.986C2118.86 513.342 2123.33 495.444 2123.33 474.292C2123.33 454.225 2119.4 437.954 2111.54 425.48C2103.67 413.006 2093.37 402.701 2080.62 394.566C2067.88 386.43 2053.5 380.058 2037.5 375.447C2021.5 370.837 2005.37 366.363 1989.1 362.024C1966.32 356.058 1946.39 350.906 1929.3 346.567C1912.22 342.228 1896.36 337.076 1881.71 331.11C1867.61 325.144 1856.36 316.602 1847.95 305.483C1839.54 294.365 1835.34 278.501 1835.34 257.891C1835.34 254.095 1836.42 247.315 1838.59 237.553C1840.76 227.79 1845.92 217.892 1854.05 207.859C1862.19 197.825 1874.66 188.876 1891.47 181.012C1908.29 173.148 1931.34 169.216 1960.62 169.216C1980.69 169.216 1999 171.385 2015.54 175.724C2032.08 180.063 2046.32 186.978 2058.25 196.469C2070.18 205.961 2079.4 218.028 2085.91 232.672C2092.42 247.315 2095.67 265.213 2095.67 286.365ZM2472.34 286.365H2488.61C2488.61 239.722 2475.05 205.825 2447.93 184.673C2420.82 163.521 2383.94 152.945 2337.29 152.945C2311.26 152.945 2289.29 156.199 2271.4 162.707C2253.5 169.216 2238.85 177.622 2227.47 187.927C2216.08 198.232 2207.94 209.621 2203.06 222.096C2198.18 234.57 2195.74 246.502 2195.74 257.891C2195.74 280.67 2199.8 298.839 2207.94 312.398C2216.08 325.957 2228.82 336.533 2246.18 344.126C2258.11 349.55 2271.67 354.431 2286.85 358.77C2302.04 363.109 2319.67 367.719 2339.73 372.6C2357.63 376.939 2375.26 381.278 2392.61 385.617C2409.97 389.956 2425.29 395.786 2438.58 403.108C2451.87 410.43 2462.71 419.785 2471.12 431.175C2479.53 442.564 2483.73 457.479 2483.73 475.919C2483.73 493.817 2479.53 509.003 2471.12 521.477C2462.71 533.952 2452 544.121 2438.98 551.985C2425.97 559.849 2411.46 565.544 2395.46 569.069C2379.46 572.595 2363.87 574.357 2348.68 574.357C2299.33 574.357 2261.5 563.375 2235.19 541.409C2208.89 519.443 2195.74 484.868 2195.74 437.683H2179.47C2179.47 490.292 2193.7 528.799 2222.18 553.205C2250.65 577.612 2292.82 589.815 2348.68 589.815C2366.58 589.815 2384.61 587.781 2402.78 583.713C2420.95 579.645 2437.22 573.001 2451.59 563.781C2465.97 554.561 2477.63 542.629 2486.58 527.986C2495.53 513.342 2500 495.444 2500 474.292C2500 454.225 2496.07 437.954 2488.2 425.48C2480.34 413.006 2470.03 402.701 2457.29 394.566C2444.54 386.43 2430.17 380.058 2414.17 375.447C2398.17 370.837 2382.04 366.363 2365.77 362.024C2342.99 356.058 2323.06 350.906 2305.97 346.567C2288.89 342.228 2273.02 337.076 2258.38 331.11C2244.28 325.144 2233.02 316.602 2224.62 305.483C2216.21 294.365 2212.01 278.501 2212.01 257.891C2212.01 254.095 2213.09 247.315 2215.26 237.553C2217.43 227.79 2222.58 217.892 2230.72 207.859C2238.85 197.825 2251.33 188.876 2268.14 181.012C2284.96 173.148 2308.01 169.216 2337.29 169.216C2357.36 169.216 2375.66 171.385 2392.21 175.724C2408.75 180.063 2422.99 186.978 2434.92 196.469C2446.85 205.961 2456.07 218.028 2462.58 232.672C2469.09 247.315 2472.34 265.213 2472.34 286.365Z" fill="black"/>
</svg>
