<svg width="2500" height="690" viewBox="0 0 2500 690" fill="none" xmlns="http://www.w3.org/2000/svg">
<g clip-path="url(#clip0_677_151)">
<path d="M604.31 1.11328V532.031L672.496 532.292V279.585H837.237V212.7H672.496V67.9986H886.945V1.11328H604.31ZM1010.05 108.858C1034.77 108.858 1054.55 88.8189 1054.55 64.355C1054.55 39.8911 1034.51 19.8516 1010.05 19.8516C985.321 19.8516 965.542 39.8911 965.542 64.355C965.542 88.8189 985.582 108.858 1010.05 108.858ZM975.432 175.744V532.031H1043.62V175.744H975.432Z" fill="black"/>
<path fill-rule="evenodd" clip-rule="evenodd" d="M1296.85 165.334C1206.02 165.334 1142.78 242.109 1142.78 333.198C1142.78 424.287 1206.02 501.062 1296.85 501.062C1338.49 501.062 1372.58 484.926 1397.56 458.9V506.006C1397.56 565.084 1351.24 614.272 1290.6 614.272C1268.74 614.272 1247.14 605.944 1229.96 593.972L1195.61 653.31C1222.93 671.008 1255.47 681.157 1290.34 681.157C1387.15 681.157 1465.49 602.821 1465.49 506.006V175.744H1397.56V207.495C1372.58 181.47 1338.49 165.334 1296.85 165.334ZM1211.22 333.198C1211.22 276.723 1254.42 232.219 1304.39 232.219C1354.36 232.219 1397.56 276.723 1397.56 333.198C1397.56 389.673 1354.36 434.176 1304.39 434.176C1254.42 434.176 1211.22 389.673 1211.22 333.198Z" fill="black"/>
<path d="M1711.95 232.219C1671.61 232.219 1638.82 266.573 1638.82 306.912V532.032H1570.63V175.744H1638.82V208.276C1658.86 182.511 1688.27 165.334 1726.79 165.334C1774.67 165.334 1811.37 189.017 1832.71 225.453C1856.39 190.318 1894.91 165.334 1941.49 165.334C2019.31 165.334 2067.72 228.055 2067.98 305.611V532.032H1999.79V306.652C1999.79 266.313 1967 231.959 1926.66 231.959C1886.32 231.959 1853.53 266.313 1853.53 306.652V532.032H1785.34V306.652C1785.08 266.313 1752.29 232.219 1711.95 232.219Z" fill="black"/>
<path fill-rule="evenodd" clip-rule="evenodd" d="M2431.81 216.084C2401.36 184.593 2359.72 165.334 2311.58 165.334C2210.08 165.334 2137.73 251.478 2137.73 354.018C2137.73 456.558 2209.82 542.702 2311.58 542.702C2359.72 542.702 2401.36 523.183 2431.81 491.953V532.032H2500V175.744H2431.81V216.084ZM2206.17 354.018C2206.17 286.092 2258.22 232.219 2319.12 232.219C2379.76 232.219 2432.07 285.832 2432.07 354.018C2432.07 421.944 2380.02 475.817 2319.12 475.817C2258.22 475.557 2206.17 421.944 2206.17 354.018Z" fill="black"/>
<path d="M229.284 345.169C229.284 281.928 280.554 230.397 344.056 230.397C407.298 230.397 458.828 281.667 458.828 345.169C458.828 408.411 407.558 459.942 344.056 459.942C280.814 459.942 229.284 408.411 229.284 345.169Z" fill="black"/>
<path d="M0 574.453C0 511.211 51.27 459.681 114.772 459.681H229.544V574.453C229.544 637.694 178.274 689.225 114.772 689.225C51.27 689.225 0 637.955 0 574.453Z" fill="black"/>
<path d="M229.284 1.11377V230.398H344.056C407.298 230.398 458.828 179.128 458.828 115.626C458.828 52.3838 407.558 0.853516 344.056 0.853516H229.284V1.11377Z" fill="black"/>
<path d="M0 115.885C0 179.127 51.27 230.657 114.772 230.657H229.544V1.11328H114.772C51.27 1.11328 0 52.3833 0 115.885Z" fill="black"/>
<path d="M0 345.169C0 408.411 51.27 459.942 114.772 459.942H229.544V230.397H114.772C51.27 230.397 0 281.928 0 345.169Z" fill="black"/>
</g>
<defs>
<clipPath id="clip0_677_151">
<rect width="2500" height="689" fill="white" transform="translate(0 0.539062)"/>
</clipPath>
</defs>
</svg>
