<svg width="1024" height="2000" viewBox="0 0 1024 2000" fill="none" xmlns="http://www.w3.org/2000/svg">
<path d="M1024 48H0V52.176H1024V48Z" fill="#B3B3B3"/>
<path d="M1024 127H0V131.176H1024V127Z" fill="#B3B3B3"/>
<path d="M1024 206H0V210.176H1024V206Z" fill="#B3B3B3"/>
<path d="M1024 285H0V289.176H1024V285Z" fill="#B3B3B3"/>
<path d="M1024 364H0V368.176H1024V364Z" fill="#B3B3B3"/>
<path d="M1024 443H0V447.176H1024V443Z" fill="#B3B3B3"/>
<path d="M1024 522H0V526.176H1024V522Z" fill="#B3B3B3"/>
<path d="M1024 601H0V605.176H1024V601Z" fill="#B3B3B3"/>
<path d="M946.94 -0.00012207L946.94 2000H951.116L951.116 -0.00012207H946.94Z" fill="#B3B3B3"/>
<path d="M1024 680H0V684.176H1024V680Z" fill="#B3B3B3"/>
<path d="M867.943 -0.00012207L867.943 2000H872.119L872.119 -0.00012207H867.943Z" fill="#B3B3B3"/>
<path d="M1024 759H0V763.176H1024V759Z" fill="#B3B3B3"/>
<path d="M788.947 -0.00012207L788.947 2000H793.123L793.123 -0.00012207H788.947Z" fill="#B3B3B3"/>
<path d="M1024 838H0V842.176H1024V838Z" fill="#B3B3B3"/>
<path d="M709.95 -0.00012207L709.95 2000H714.126L714.126 -0.00012207H709.95Z" fill="#B3B3B3"/>
<path d="M1024 917H0V921.176H1024V917Z" fill="#B3B3B3"/>
<path d="M630.954 -0.00012207L630.954 2000H635.13L635.13 -0.00012207H630.954Z" fill="#B3B3B3"/>
<path d="M1024 996H0V1000.18H1024V996Z" fill="#B3B3B3"/>
<path d="M551.957 -0.00012207L551.957 2000H556.133L556.133 -0.00012207H551.957Z" fill="#B3B3B3"/>
<path d="M1024 1075H0V1079.18H1024V1075Z" fill="#B3B3B3"/>
<path d="M472.961 -0.00012207L472.961 2000H477.137L477.137 -0.00012207H472.961Z" fill="#B3B3B3"/>
<path d="M1024 1154H0V1158.18H1024V1154Z" fill="#B3B3B3"/>
<path d="M393.964 -0.00012207L393.964 2000H398.14L398.14 -0.00012207H393.964Z" fill="#B3B3B3"/>
<path d="M1024 1233H0V1237.18H1024V1233Z" fill="#B3B3B3"/>
<path d="M314.968 -0.00012207L314.968 2000H319.144L319.144 -0.00012207H314.968Z" fill="#B3B3B3"/>
<path d="M1024 1312H0V1316.18H1024V1312Z" fill="#B3B3B3"/>
<path d="M235.971 -0.00012207L235.971 2000H240.147L240.147 -0.00012207H235.971Z" fill="#B3B3B3"/>
<path d="M1024 1391H0V1395.18H1024V1391Z" fill="#B3B3B3"/>
<path d="M156.974 -0.00012207L156.974 2000H161.15L161.15 -0.00012207H156.974Z" fill="#B3B3B3"/>
<path d="M1024 1470H0V1474.18H1024V1470Z" fill="#B3B3B3"/>
<path d="M77.9766 -0.00012207L77.9766 2000H82.1526L82.1526 -0.00012207H77.9766Z" fill="#B3B3B3"/>
<path d="M1024 1549H0V1553.18H1024V1549Z" fill="#B3B3B3"/>
<path d="M1024 1628H0V1632.18H1024V1628Z" fill="#B3B3B3"/>
<path d="M1024 1707H0V1711.18H1024V1707Z" fill="#B3B3B3"/>
<path d="M1024 1786H0V1790.18H1024V1786Z" fill="#B3B3B3"/>
<path d="M1024 1865H0V1869.18H1024V1865Z" fill="#B3B3B3"/>
<path d="M1024 1944H0V1948.18H1024V1944Z" fill="#B3B3B3"/>
</svg>
