<svg width="500" height="500" viewBox="0 0 500 500" fill="none" xmlns="http://www.w3.org/2000/svg">
<path d="M369.443 152.551C376.242 130.103 386.956 119.2 406.088 106.875C413.953 101.809 421.607 96.5998 427.87 89.5558C436.023 80.3889 439.966 71.0566 444.435 59.9438C449.612 78.7449 451.477 97.1448 445.06 115.948C443.815 119.595 442.349 123.575 440.448 126.93C436.38 135.102 431.646 142.599 425.68 149.531L425.292 149.725C424.062 151.566 422.185 153.477 420.547 154.976C418.409 157.637 415.932 160.041 413.646 162.574C403.656 173.648 392.825 184.393 385.398 197.451C383.305 201.13 381.367 205.055 379.888 209.021C379.034 211.312 378.453 214.079 377.357 216.223C374.099 227.739 371.656 239.424 368.666 251.004C358.213 291.464 344.442 329.154 313.604 358.643C306.557 365.318 299.049 371.49 291.14 377.112C286.036 380.69 280.117 383.25 275.747 387.797C281.752 404.232 290.015 413.195 303.823 423.125C284.888 428.206 263.828 423.253 247.09 413.648C245.469 412.719 243.84 411.758 242.313 410.68C239.911 409.149 237.683 407.365 235.492 405.552C233.561 406.029 231.618 406.578 229.639 406.802C224.193 409.622 196.877 412.021 190.123 411.815C189.331 411.888 188.517 411.836 187.721 411.82C172.119 412.448 156.243 410.013 141.029 406.787C135.347 405.393 128.154 403.586 122.977 400.966C120.654 400.175 118.395 399.135 116.169 398.107C89.6948 385.857 69.2198 363.529 59.3054 336.094C44.5054 295.787 51.4794 246.724 69.2187 208.476C92.6091 158.043 137.99 116.488 190.193 97.4097C217.222 87.5318 251.538 81.0532 278.726 93.8383C292.817 100.464 304.005 111.868 309.343 126.583C315.317 143.193 313.653 162.2 306.169 178.056C300.268 190.555 290.77 201.061 279.929 209.495C276.184 212.418 272.273 215.118 268.213 217.583C254.021 226.28 231.04 238.03 238.174 258.442C240.632 265.472 247.216 270.964 253.766 274.068C267.132 280.404 282.492 280.487 296.302 275.498C316.013 268.373 330.718 251.856 339.403 233.206C353.226 203.519 351.562 176.716 340.508 146.505C335.156 131.874 328.351 117.912 321.101 104.144C328.174 108.544 335.87 111.265 343.107 115.272C356.101 122.468 365.919 137.269 369.229 151.573C369.302 151.898 369.375 152.224 369.443 152.551Z" fill="#0360FF"/>
<path d="M334.871 66.4926C345.353 65.279 354.824 72.8113 356.004 83.2964C357.186 93.7818 349.624 103.231 339.134 104.377C328.692 105.518 319.296 97.9975 318.121 87.5595C316.947 77.1217 324.436 67.7006 334.871 66.4926Z" fill="#0360FF"/>
</svg>
