<svg width="2500" height="632" viewBox="0 0 2500 632" fill="none" xmlns="http://www.w3.org/2000/svg">
<g clip-path="url(#clip0_677_136)">
<path d="M186.762 65.4507C162.293 36.4171 141.216 6.92838 136.913 0.811133C136.458 0.355925 135.778 0.355925 135.329 0.811133C131.027 6.93461 109.95 36.4234 85.4808 65.4507C-124.551 333.319 118.561 514.092 118.561 514.092L120.6 515.452C122.415 543.35 126.942 583.496 126.942 583.496H136.003H145.063C145.063 583.496 149.597 543.575 151.405 515.452L153.444 513.868C153.669 514.092 396.781 333.319 186.749 65.4507H186.762ZM136.009 510.008C136.009 510.008 125.134 500.711 122.184 495.946V495.491L135.329 203.809C135.329 202.905 136.689 202.905 136.689 203.809L149.827 495.491V495.946C146.884 500.704 136.009 510.008 136.009 510.008Z" fill="black"/>
<path d="M590.973 450.491L489.667 203.057L489.437 202.371H410.617V219.002H423.338C427.198 219.002 430.833 220.599 433.558 223.33C436.283 226.061 437.643 229.709 437.643 233.581L435.373 482.605C435.373 490.35 429.012 496.729 421.286 496.96L408.341 497.19V513.597H485.115V497.19L477.165 496.96C469.445 496.729 463.078 490.35 463.078 482.605V247.93L573.476 513.584C575.059 517.456 578.695 519.963 582.786 519.963C586.876 519.963 590.505 517.456 592.102 513.584L699.999 253.854L701.589 482.605C701.589 490.58 695.228 496.96 687.278 497.184H679.097V513.59H769.047V497.184H756.781C749.061 497.184 742.695 490.574 742.47 482.829L741.791 233.806C741.791 225.83 748.151 219.451 755.877 219.227L769.047 218.996V202.365H692.273L590.967 450.479L590.973 450.491Z" fill="black"/>
<path d="M1297.35 492.862C1294.84 490.349 1293.47 486.932 1293.47 482.823V360.49C1293.47 337.212 1286.64 318.954 1272.98 305.946C1259.54 292.939 1240.87 286.316 1217.64 286.316C1185.07 286.316 1159.34 299.555 1141.35 325.577C1141.12 326.032 1140.44 326.263 1139.75 326.263C1139.06 326.263 1138.61 325.801 1138.61 325.121L1130.18 292.484H1116.07L1079.86 313.249V324.66H1089.2C1093.52 324.66 1097.17 325.801 1099.67 328.083C1102.17 330.366 1103.55 333.789 1103.55 338.578V482.592C1103.55 486.702 1102.18 490.125 1099.67 492.632C1097.17 495.145 1093.75 496.51 1089.65 496.51H1080.54V513.172H1163.89V496.51H1154.78C1150.68 496.51 1147.27 495.139 1144.76 492.632C1142.26 490.119 1140.89 486.702 1140.89 482.592V387.192C1140.89 375.094 1143.62 362.997 1148.64 351.131C1153.87 339.495 1161.61 329.68 1171.86 322.147C1182.11 314.614 1194.41 310.96 1208.53 310.96C1224.47 310.96 1236.54 315.98 1244.05 326.026C1251.57 336.065 1255.44 349.073 1255.44 364.594V482.361C1255.44 486.471 1254.08 489.888 1251.57 492.401C1249.07 494.914 1245.65 496.28 1241.55 496.28H1232.44V512.942H1315.78V496.28H1306.67C1303.26 496.741 1300.06 495.369 1297.33 492.856L1297.35 492.862Z" fill="black"/>
<path d="M2058.86 221.004C2035.82 208.738 2010.07 202.371 1982.29 202.371H1873.87V218.958H1884.48C1888.55 218.958 1892.16 220.548 1895.78 224.184C1899.17 227.588 1900.97 231.455 1900.97 235.545V480.005C1900.97 484.09 1899.16 487.956 1895.78 491.361C1892.39 494.765 1888.55 496.586 1884.48 496.586H1873.87V513.173H1982.29C2010.07 513.173 2035.82 506.813 2058.86 494.541C2081.9 482.275 2100.65 464.098 2114.2 440.926C2127.75 417.754 2134.76 389.805 2134.76 358.003C2134.76 326.194 2127.75 298.476 2114.2 275.08C2100.42 251.453 2081.9 233.506 2058.86 221.01V221.004ZM2091.16 357.548C2091.16 386.631 2085.97 411.163 2075.8 430.93C2065.64 450.697 2052.09 465.464 2035.37 475.004C2018.65 484.545 2000.13 489.315 1980.26 489.315H1958.35C1954.28 489.315 1950.67 487.725 1947.05 484.09C1943.67 480.685 1941.86 476.819 1941.86 472.734V242.136C1941.86 238.046 1943.44 234.41 1947.05 230.775C1950.44 227.37 1954.28 225.549 1958.35 225.549H1980.26C2000.14 225.549 2018.66 230.32 2035.37 239.867C2052.09 249.407 2065.64 264.174 2075.8 283.941C2085.97 303.939 2091.16 328.701 2091.16 357.554V357.548Z" fill="black"/>
<path d="M2391.04 374.135C2381.01 362.549 2361.66 352.777 2338.91 347.552C2370.33 331.875 2386.48 309.838 2386.48 281.44C2386.48 265.988 2382.4 252.132 2374.18 240.316C2366 228.499 2354.38 218.958 2339.59 212.367C2324.78 205.782 2307.47 202.371 2287.89 202.371H2165.15V218.958H2174.94C2179.04 218.958 2182.68 220.548 2186.33 224.184C2189.75 227.588 2191.57 231.455 2191.57 235.545V480.005C2191.57 484.09 2189.75 487.956 2186.33 491.361C2182.91 494.765 2179.04 496.586 2174.94 496.586H2164.24V513.173H2297.46C2317.72 513.173 2336.61 509.762 2353.69 502.947C2370.77 496.131 2384.43 486.135 2394.23 472.959C2404.24 459.783 2409.25 443.651 2409.25 425.025C2409.02 405.033 2403.1 387.991 2391.03 374.135H2391.04ZM2238.25 484.32C2234.83 480.916 2233.01 477.05 2233.01 472.959V363.228H2296.32C2318.62 363.228 2335.71 368.909 2347.55 380.265C2359.39 391.626 2365.31 406.392 2365.31 424.57C2365.31 435.476 2362.57 446.151 2357.58 455.923C2352.33 465.919 2344.58 473.869 2334.12 480.005C2323.87 486.141 2311.11 489.322 2296.32 489.322H2249.63C2245.53 489.322 2241.89 487.731 2238.25 484.32ZM2233.24 339.826V242.361C2233.24 238.27 2234.83 234.641 2238.47 230.999C2241.89 227.595 2245.76 225.774 2249.86 225.774H2279.92C2301.54 225.774 2317.49 231.23 2327.51 241.675C2337.52 252.351 2342.53 265.982 2342.53 282.8C2342.53 300.067 2337.74 313.922 2328.42 324.374C2319.07 334.6 2304.96 339.826 2286.29 339.826H2233.24H2233.24Z" fill="black"/>
<path d="M980.034 300.808C962.636 291.299 943.199 286.316 922.185 286.316C901.171 286.316 881.509 291.074 864.336 300.808C846.938 310.318 833.151 324.124 822.987 341.559C812.816 358.994 807.622 379.372 807.622 402.014C807.622 424.656 812.816 445.035 822.987 462.47C833.151 479.905 846.938 493.717 864.336 503.226C881.74 512.736 901.171 517.718 922.185 517.718C943.199 517.718 962.861 512.967 980.034 503.226C997.438 493.717 1011.22 479.905 1021.38 462.47C1031.55 445.035 1036.75 424.656 1036.75 402.014C1036.75 379.372 1031.55 358.994 1021.38 341.559C1011.22 324.124 997.432 310.312 980.034 300.808ZM996.758 402.014C996.758 429.863 989.98 452.505 976.417 468.805C963.085 485.105 944.783 493.486 922.185 493.486C899.593 493.486 881.285 485.112 867.953 468.805C854.396 452.505 847.618 429.863 847.618 402.014C847.618 374.165 854.396 351.524 867.953 335.223C881.285 318.923 899.593 310.542 922.185 310.542C944.783 310.542 963.085 318.923 976.417 335.223C989.98 351.524 996.758 374.165 996.758 402.014Z" fill="black"/>
<path d="M1780.85 300.808C1763.45 291.299 1744.02 286.316 1723.01 286.316C1701.99 286.316 1682.33 291.074 1665.16 300.808C1647.76 310.318 1633.97 324.124 1623.8 341.559C1613.64 358.994 1608.44 379.372 1608.44 402.014C1608.44 424.656 1613.63 445.035 1623.8 462.47C1633.97 479.905 1647.76 493.717 1665.16 503.226C1682.56 512.736 1701.99 517.718 1723.01 517.718C1744.02 517.718 1763.68 512.967 1780.85 503.226C1798.26 493.717 1812.04 479.905 1822.21 462.47C1832.37 445.035 1837.57 424.656 1837.57 402.014C1837.57 379.372 1832.38 358.994 1822.21 341.559C1812.04 324.124 1798.02 310.312 1780.85 300.808ZM1797.58 402.014C1797.58 429.863 1790.8 452.505 1777.23 468.805C1763.9 485.105 1745.6 493.486 1723 493.486C1700.4 493.486 1682.1 485.112 1668.77 468.805C1655.21 452.505 1648.43 429.863 1648.43 402.014C1648.43 373.941 1655.21 351.524 1668.77 335.223C1682.1 318.923 1700.4 310.542 1723 310.542C1745.59 310.542 1763.9 318.923 1777.23 335.223C1790.57 351.524 1797.58 374.165 1797.58 402.014Z" fill="black"/>
<path d="M1457.9 286.31C1439.69 286.31 1423.08 290.176 1408.06 297.908C1393.04 305.64 1381.2 316.104 1372.79 329.523C1364.37 342.718 1360.04 357.503 1360.04 373.198C1360.04 387.303 1363.23 400.267 1369.82 411.866C1376.2 423.009 1384.85 432.338 1395.76 440.07L1363.22 484.2C1359.12 489.663 1358.67 496.94 1361.62 502.851C1364.81 508.994 1370.73 512.635 1377.56 512.635H1386.88C1377.78 518.777 1370.5 526.055 1365.49 534.697C1359.57 544.475 1356.62 554.714 1356.62 565.177C1356.62 584.739 1365.27 600.89 1382.33 612.949C1399.18 625.003 1422.84 631.145 1452.65 631.145C1473.36 631.145 1493.16 627.734 1511.14 621.137C1529.35 614.54 1544.13 604.762 1555.06 592.022C1566.21 579.283 1571.9 563.818 1571.9 546.077C1571.9 527.426 1565.07 514.232 1549.14 501.498C1535.49 490.804 1514.09 485.123 1487.47 485.123H1396.44C1396.21 485.123 1395.98 484.893 1395.98 484.893C1395.98 484.893 1395.75 484.437 1395.98 484.213L1419.65 452.367C1426.02 455.323 1431.93 457.144 1437.17 458.278C1442.63 459.413 1448.77 459.869 1455.6 459.869C1474.72 459.869 1492.01 456.002 1507.03 448.27C1522.06 440.538 1534.12 430.074 1542.77 416.655C1551.41 403.46 1555.74 388.682 1555.74 372.986C1555.74 356.156 1547.54 325.445 1525.24 309.75C1525.24 309.519 1525.47 309.519 1525.47 309.519L1574.4 314.975V292.458H1496.12C1483.83 288.592 1471.09 286.316 1457.88 286.316L1457.9 286.31ZM1485.2 428.702C1476.55 433.248 1467.23 435.755 1457.9 435.755C1442.65 435.755 1429.22 430.293 1417.84 419.604C1406.46 408.91 1400.78 393.221 1400.78 373.198C1400.78 353.181 1406.47 337.486 1417.84 326.798C1429.23 316.11 1442.65 310.648 1457.9 310.648C1467.46 310.648 1476.55 312.924 1485.2 317.7C1493.85 322.252 1500.9 329.299 1506.6 338.627C1512.06 347.956 1515.02 359.554 1515.02 373.198C1515.02 387.073 1512.28 398.671 1506.6 407.775C1501.14 417.104 1493.85 424.15 1485.2 428.702ZM1423.53 512.405H1485.2C1502.27 512.405 1513.2 515.815 1520.48 523.099C1527.76 530.376 1531.4 540.16 1531.4 551.528C1531.4 568.133 1524.81 581.777 1511.61 592.016C1498.4 602.249 1480.65 607.487 1458.81 607.487C1439.69 607.487 1423.76 603.166 1412.15 594.972C1400.55 586.784 1394.63 574.275 1394.63 558.356C1394.63 548.347 1397.36 539.019 1402.82 530.831C1408.29 522.637 1414.88 516.726 1423.53 512.405Z" fill="black"/>
<path d="M2455.42 509.375C2450.92 506.918 2447.55 503.345 2444.84 499.105C2442.37 494.64 2441.02 489.951 2441.02 484.819C2441.02 479.68 2442.37 474.767 2444.84 470.526C2447.32 466.062 2450.92 462.713 2455.42 460.256C2459.93 457.799 2464.88 456.465 2470.5 456.465C2476.13 456.465 2481.07 457.806 2485.59 460.256C2490.08 462.713 2493.46 466.286 2496.16 470.526C2498.63 474.991 2499.99 479.68 2499.99 484.819C2499.99 489.957 2498.63 494.864 2496.16 499.105C2493.68 503.57 2490.08 506.918 2485.59 509.375C2481.07 511.832 2476.13 513.173 2470.5 513.173C2465.1 513.173 2459.93 512.056 2455.42 509.375ZM2483.12 506.251C2486.93 504.243 2489.65 501.113 2491.9 497.546C2493.92 493.748 2495.05 489.508 2495.05 484.819C2495.05 480.129 2493.92 475.883 2491.9 472.092C2489.86 468.294 2486.93 465.394 2483.12 463.386C2479.28 461.379 2475.22 460.256 2470.5 460.256C2465.78 460.256 2461.72 461.372 2457.89 463.386C2454.08 465.394 2451.35 468.525 2449.11 472.092C2447.09 475.889 2445.95 480.129 2445.95 484.819C2445.95 489.508 2447.09 493.748 2449.11 497.546C2451.15 501.343 2454.08 504.243 2457.89 506.251C2461.72 508.259 2465.78 509.375 2470.5 509.375C2475.22 509.375 2479.51 508.259 2483.12 506.251ZM2458.34 498.438V496.43L2458.8 496.211H2460.16C2460.59 496.211 2461.04 495.987 2461.27 495.762C2461.72 495.313 2461.72 495.095 2461.72 494.646V473.881C2461.72 473.432 2461.49 472.99 2461.27 472.765C2460.81 472.316 2460.59 472.316 2460.16 472.316H2458.8L2458.34 472.092V470.084L2458.8 469.865H2470.5C2473.88 469.865 2476.36 470.533 2478.37 472.098C2480.41 473.663 2481.3 475.671 2481.3 478.352C2481.3 480.36 2480.64 482.368 2479.05 483.709C2477.49 485.274 2475.67 486.166 2473.43 486.39L2476.13 487.288L2481.3 495.55C2481.76 496.224 2482.21 496.442 2482.89 496.442H2484.24L2484.46 496.667V498.675L2484.24 498.899H2477.27L2476.81 498.675L2469.6 486.615H2467.81V494.652C2467.81 495.101 2468.04 495.544 2468.27 495.769C2468.72 496.218 2468.95 496.218 2469.38 496.218H2470.74L2471.2 496.436V498.444L2470.74 498.668H2458.81L2458.35 498.444L2458.34 498.438ZM2469.82 483.703C2471.64 483.703 2473.2 483.254 2474.11 482.144C2474.99 481.246 2475.67 479.687 2475.67 477.897C2475.67 476.107 2475.22 474.773 2474.33 473.657C2473.43 472.541 2472.06 472.092 2470.5 472.092H2469.59C2469.14 472.092 2468.71 472.316 2468.48 472.541C2468.03 472.983 2468.03 473.208 2468.03 473.657V483.703H2469.82Z" fill="black"/>
</g>
<defs>
<clipPath id="clip0_677_136">
<rect width="2500" height="630.673" fill="white" transform="translate(0 0.46875)"/>
</clipPath>
</defs>
</svg>
