<svg width="191" height="227" viewBox="0 0 191 227" fill="none" xmlns="http://www.w3.org/2000/svg">
<path d="M131.162 55.7655C133.201 49.031 136.415 45.7603 142.155 42.0628C144.515 40.543 146.811 38.9802 148.69 36.867C151.136 34.1169 152.319 31.3172 153.659 27.9834C155.212 33.6237 155.772 39.1437 153.847 44.7845C153.473 45.8787 153.033 47.0727 152.463 48.0793C151.243 50.5309 149.823 52.7801 148.033 54.8596L147.916 54.9179C147.548 55.4701 146.984 56.0434 146.493 56.493C145.851 57.2912 145.108 58.0124 144.423 58.7726C141.426 62.0947 138.176 65.318 135.948 69.2355C135.32 70.3393 134.739 71.5167 134.295 72.7066C134.039 73.3937 133.865 74.224 133.536 74.8672C132.558 78.322 131.826 81.8274 130.929 85.3015C127.793 97.4394 123.662 108.746 114.41 117.593C112.296 119.596 110.044 121.447 107.671 123.134C106.14 124.207 104.364 124.975 103.053 126.339C104.854 131.27 107.333 133.959 111.476 136.938C105.795 138.462 99.4771 136.976 94.4558 134.095C93.9694 133.816 93.4808 133.528 93.0227 133.204C92.302 132.745 91.6337 132.21 90.9763 131.666C90.397 131.809 89.8142 131.974 89.2206 132.041C87.5866 132.887 79.3919 133.607 77.3657 133.545C77.1282 133.567 76.8839 133.551 76.6452 133.546C71.9646 133.735 67.2018 133.004 62.6376 132.036C60.933 131.618 58.7749 131.076 57.222 130.29C56.5252 130.053 55.8473 129.741 55.1794 129.432C47.2372 125.757 41.0947 119.059 38.1204 110.828C33.6804 98.7363 35.7726 84.0173 41.0944 72.543C48.1115 57.4132 61.7259 44.9465 77.3868 39.2231C85.4953 36.2598 95.7902 34.3162 103.947 38.1517C108.174 40.1394 111.53 43.5606 113.132 47.9751C114.924 52.9583 114.425 58.6603 112.179 63.417C110.409 67.1667 107.56 70.3184 104.308 72.8489C103.184 73.7255 102.011 74.5357 100.793 75.2752C96.5352 77.8842 89.6409 81.4093 91.7811 87.5328C92.5183 89.6417 94.4936 91.2894 96.4587 92.2206C100.469 94.1214 105.076 94.1464 109.219 92.6496C115.133 90.5121 119.544 85.5571 122.15 79.9619C126.297 71.056 125.797 63.0151 122.481 53.9518C120.876 49.5626 118.834 45.3738 116.659 41.2435C118.781 42.5634 121.09 43.3796 123.261 44.5817C127.159 46.7406 130.105 51.181 131.097 55.4722C131.119 55.5697 131.141 55.6674 131.162 55.7655Z" fill="#141414"/>
<path d="M120.79 29.9477C123.935 29.5836 126.776 31.8433 127.13 34.9888C127.485 38.1345 125.216 40.9691 122.069 41.313C118.936 41.6554 116.117 39.3991 115.765 36.2677C115.413 33.1364 117.66 30.3101 120.79 29.9477Z" fill="#141414"/>
<path d="M161.841 171.804C164.831 171.543 168.022 171.971 170.766 173.216C174.84 175.091 178.005 178.507 179.564 182.714C180.057 184.014 180.367 185.376 180.486 186.76C180.777 190.039 180.542 193.452 180.536 196.747C180.532 199.237 180.733 201.764 180.627 204.249C180.607 204.715 180.569 205.163 180.375 205.592C179.463 206.085 177.095 205.81 176.004 205.806C176.078 205.693 176.14 205.594 176.184 205.464C176.591 204.265 176.566 199.451 176.007 198.351C176.039 198.603 176.006 198.767 175.905 199C175.105 200.847 172.866 202.919 170.988 203.607C170.319 204.537 167.436 205.083 166.272 205.282C161.918 206.024 157.777 205.346 154.136 202.751C150.444 200.173 147.946 196.216 147.207 191.773C146.453 187.201 147.359 182.417 150.098 178.639C152.99 174.649 157.048 172.564 161.841 171.804ZM164.024 201.475C167.422 201.145 170.186 199.468 172.332 196.855C174.769 193.887 176.094 191.034 175.692 187.115C175.337 183.648 173.974 180.62 171.211 178.388C168.918 176.536 165.7 175.451 162.745 175.785L162.615 175.801C158.565 176.657 155.653 178.01 153.285 181.608C151.348 184.532 150.673 188.114 151.412 191.543C152.166 194.965 154.25 197.947 157.204 199.831C159.112 201.058 161.741 201.838 164.024 201.475Z" fill="#141414"/>
<path d="M25.3843 171.826C34.708 170.966 42.9607 177.835 43.8094 187.162C44.6581 196.489 37.7807 204.736 28.4551 205.573C19.1453 206.41 10.9182 199.545 10.0708 190.234C9.2235 180.922 16.0767 172.684 25.3843 171.826ZM28.1983 201.558C35.2229 200.866 40.3633 194.619 39.6912 187.59C39.0192 180.562 32.7877 175.403 25.7595 176.056C18.7038 176.711 13.5216 182.974 14.1962 190.03C14.8711 197.086 21.1462 202.252 28.1983 201.558Z" fill="#141414"/>
<path d="M66.3528 172.54C67.7887 172.505 69.2291 172.527 70.6657 172.527C71.913 175.49 73.2928 178.413 74.588 181.358C76.9077 186.752 79.3376 192.099 81.8765 197.393L92.6807 172.527L97.1224 172.536C94.698 178.514 91.9335 184.393 89.3553 190.31C88.0373 193.718 86.3761 197.044 84.9101 200.393C82.5433 205.799 80.2948 211.27 77.8193 216.626C76.3903 216.676 74.9465 216.632 73.5162 216.63C73.9401 215.008 74.8475 213.34 75.5185 211.805L79.6427 202.349C74.9251 192.553 70.7697 182.475 66.3528 172.54Z" fill="#141414"/>
<path d="M125.447 173.306C126.933 173.324 128.419 173.325 129.906 173.307C128.913 175.27 128.05 177.321 127.133 179.321C125.672 182.518 115.879 205.101 114.767 205.697C114.275 205.513 114.095 205.159 113.847 204.707C111.942 201.251 110.478 197.396 108.844 193.791L99.4456 173.308C100.93 173.337 102.42 173.315 103.905 173.318C105.359 176.966 107.103 180.557 108.728 184.134C110.653 188.374 112.55 192.747 114.719 196.861C116.582 192.435 118.69 188.074 120.678 183.699C122.246 180.246 123.705 176.669 125.447 173.306Z" fill="#141414"/>
<path d="M62.2394 172.426C63.5727 172.283 65.0771 172.979 66.3003 173.439C65.641 174.619 64.8713 175.754 64.1494 176.898C63.7299 176.847 63.3015 176.788 62.8787 176.782C61.1259 176.758 59.4754 177.79 58.2821 178.99C53.6242 183.675 54.0704 190.206 54.125 196.305L54.1366 205.598C52.8798 205.864 51.2714 205.677 49.9748 205.656C49.8396 202.481 49.9292 199.287 49.9225 196.109C49.9086 189.407 49.36 183.469 53.6802 177.825C55.7228 175.156 58.8546 172.877 62.2394 172.426Z" fill="#141414"/>
<path d="M135.63 173.297C136.946 173.322 138.263 173.323 139.579 173.302C139.687 173.478 139.771 173.63 139.808 173.836C140.139 175.693 139.84 180.809 139.845 183.053C139.861 190.138 140.124 197.301 139.817 204.378C139.797 204.833 139.802 205.225 139.538 205.618C138.5 205.966 136.775 205.729 135.654 205.705L135.63 173.297Z" fill="#141414"/>
<path d="M136.979 160.081C138.794 159.676 140.593 160.824 140.988 162.642C141.384 164.46 140.226 166.253 138.407 166.638C136.601 167.021 134.826 165.874 134.433 164.07C134.04 162.266 135.178 160.484 136.979 160.081Z" fill="#141414"/>
</svg>
