<svg width="2500" height="505" viewBox="0 0 2500 505" fill="none" xmlns="http://www.w3.org/2000/svg">
<g clip-path="url(#clip0_677_167)">
<path d="M1662.17 0.27832H2096.74V80.8491H1924.18V503.37H1837.9V80.8491H1662.17V0.27832ZM945.279 0.27832V80.8491H596.35V210.27H877.396V290.206H596.35V423.433H945.279V503.37H510.704V0.27832H946.547H945.279ZM1162.88 0.27832H1049.96L1454.71 504.004H1568.27L1365.26 252.141L1568.27 0.912736H1454.71L1308.8 182.356L1162.88 0.912736V0.27832ZM1278.98 359.992L1221.88 290.206L1049.96 504.004H1162.88L1278.98 359.992Z" fill="black"/>
<path d="M513.876 503.37L107.851 0.27832H0V503.37H86.2805V108.129L404.757 503.37H513.876ZM2116.41 500.832C2110.07 500.832 2104.99 498.294 2100.55 494.488C2096.11 490.681 2093.57 484.337 2093.57 477.993C2093.57 471.649 2095.47 466.574 2099.91 462.133C2104.36 457.692 2110.07 455.788 2116.41 455.788C2122.75 455.788 2127.83 457.692 2132.27 462.133C2135.99 465.523 2138.4 470.105 2139.09 475.086C2139.79 480.067 2138.72 485.135 2136.08 489.412C2134.09 492.738 2131.32 495.521 2127.99 497.514C2124.67 499.506 2120.91 500.646 2117.04 500.832H2116.41ZM2263.59 288.303H2301.66V436.122C2301.66 449.444 2299.12 461.498 2293.41 471.014C2287.69 480.589 2279.32 488.302 2269.3 493.219C2259.15 498.294 2247.1 501.466 2233.14 501.466C2220.45 501.466 2209.67 498.929 2199.52 495.122C2189.37 491.316 2181.75 483.703 2176.04 474.821C2170.33 466.574 2167.16 455.788 2167.16 443.1H2205.23C2205.86 448.176 2207.13 453.251 2209.67 457.057C2212.21 460.864 2216.01 464.67 2219.82 466.574C2224.26 469.111 2229.34 469.746 2235.04 469.746C2241.39 469.746 2246.46 468.477 2250.27 465.939C2254.75 463.266 2258.29 459.279 2260.42 454.52C2262.32 449.444 2263.59 443.1 2263.59 435.487V288.937V288.303ZM2459.63 346.035C2459.24 341.81 2457.9 337.729 2455.7 334.102C2453.5 330.474 2450.51 327.395 2446.94 325.099C2438.76 320.074 2429.25 317.641 2419.66 318.12C2411.41 318.12 2404.43 319.389 2398.72 321.292C2393.01 323.83 2388.57 327.637 2386.04 331.443C2383.16 334.968 2381.43 339.293 2381.09 343.832C2380.75 348.371 2381.81 352.905 2384.13 356.82C2386.04 359.992 2388.57 362.529 2392.38 364.433L2403.8 370.777L2416.49 373.949L2436.79 379.024C2445.04 380.927 2452.65 383.465 2460.26 386.637C2467.54 389.464 2474.37 393.309 2480.56 398.057C2486.68 403.012 2491.58 409.308 2494.88 416.458C2498.18 423.608 2499.8 431.421 2499.6 439.294C2499.6 451.982 2496.42 462.767 2490.08 471.649C2483.09 481.568 2473.4 489.274 2462.17 493.853C2450.75 498.929 2436.15 501.466 2419.03 501.466C2402.53 501.466 2387.94 498.929 2375.89 493.853C2363.2 488.778 2354.31 481.165 2347.34 471.649C2340.28 461.147 2336.52 448.775 2336.55 436.122H2374.62C2374.84 442.686 2377.1 449.019 2381.07 454.247C2385.05 459.474 2390.55 463.338 2396.82 465.305C2403.16 467.842 2410.78 469.111 2418.39 469.111C2426.64 469.111 2434.25 467.842 2440.6 465.305C2446.94 462.767 2452.01 458.961 2455.82 454.52C2459.12 450.127 2460.9 444.784 2460.9 439.294C2460.9 433.584 2459.63 429.143 2456.46 425.337C2452.37 421.875 2447.9 418.894 2443.13 416.455L2422.83 410.111L2398.72 403.766C2380.96 399.325 2367 392.981 2356.85 383.465C2351.79 378.947 2347.79 373.358 2345.16 367.102C2342.53 360.847 2341.32 354.084 2341.63 347.303C2341.53 335.814 2345.33 324.631 2352.41 315.583C2359.23 305.758 2368.69 298.061 2379.69 293.378C2392.38 288.303 2405.07 285.765 2420.29 285.765C2434.89 285.765 2448.21 288.303 2459.63 293.378C2471.05 298.453 2479.93 306.066 2486.91 314.948C2493.25 323.83 2496.42 333.981 2496.42 346.669H2459.63V346.035Z" fill="black"/>
</g>
<defs>
<clipPath id="clip0_677_167">
<rect width="2500" height="504" fill="white" transform="translate(0 0.141602)"/>
</clipPath>
</defs>
</svg>
