<?xml version="1.0" encoding="UTF-8"?><svg xmlns="http://www.w3.org/2000/svg" width="7681" height="4322" xmlns:xlink="http://www.w3.org/1999/xlink" viewBox="0 0 7681 4322"><defs><style>.cls-1{stroke-width:10px;}.cls-1,.cls-2{stroke:#ea4ef7;}.cls-1,.cls-2,.cls-3{fill:none;}.cls-1,.cls-4,.cls-5,.cls-6,.cls-7{stroke-miterlimit:10;}.cls-2{stroke-width:4.8px;}.cls-4{fill:#ea4ff7;}.cls-4,.cls-5,.cls-8{stroke:#4f8ef7;stroke-width:30px;}.cls-9{fill:#b34ff7;}.cls-10{fill:#4f8ef7;}.cls-5{fill:url(#_6_dpi_50_2-2);}.cls-6{fill:#b8a2f7;stroke:#231f20;}.cls-7{fill:url(#_6_lpi_40_2);stroke:#ff0095;}.cls-8{fill:url(#_6_dpi_50_2);stroke-linecap:round;stroke-miterlimit:20;}</style><pattern id="_6_dpi_50_2" x="0" y="0" width="48" height="48" patternTransform="translate(26.06 144.06) scale(8)" patternUnits="userSpaceOnUse" viewBox="0 0 48 48"><rect class="cls-3" width="48" height="48"/><circle class="cls-10" cx="24" cy="48" r="6"/><circle class="cls-10" cx="48" cy="48" r="6"/><circle class="cls-10" cx="24" cy="24" r="6"/><circle class="cls-10" cx="48" cy="24" r="6"/><circle class="cls-10" cx="36" cy="36" r="6"/><circle class="cls-10" cx="12" cy="36" r="6"/><circle class="cls-10" cx="36" cy="12" r="6"/><circle class="cls-10" cx="12" cy="12" r="6"/><circle class="cls-10" cy="48" r="6"/><circle class="cls-10" cy="24" r="6"/><circle class="cls-10" cx="24" r="6"/><circle class="cls-10" cx="48" r="6"/><circle class="cls-10" r="6"/></pattern><pattern id="_6_dpi_50_2-2" patternTransform="translate(212 316) scale(8)" xlink:href="#_6_dpi_50_2"/><pattern id="_6_lpi_40_2" x="0" y="0" width="72" height="72" patternTransform="translate(172.22 1083.92) scale(36)" patternUnits="userSpaceOnUse" viewBox="0 0 72 72"><rect class="cls-3" width="72" height="72"/><line class="cls-2" x1="71.75" y1="66" x2="144.25" y2="66"/><line class="cls-2" x1="71.75" y1="42" x2="144.25" y2="42"/><line class="cls-2" x1="71.75" y1="18" x2="144.25" y2="18"/><line class="cls-2" x1="71.75" y1="54" x2="144.25" y2="54"/><line class="cls-2" x1="71.75" y1="30" x2="144.25" y2="30"/><line class="cls-2" x1="71.75" y1="6" x2="144.25" y2="6"/><line class="cls-2" x1="-.25" y1="66" x2="72.25" y2="66"/><line class="cls-2" x1="-.25" y1="42" x2="72.25" y2="42"/><line class="cls-2" x1="-.25" y1="18" x2="72.25" y2="18"/><line class="cls-2" x1="-.25" y1="54" x2="72.25" y2="54"/><line class="cls-2" x1="-.25" y1="30" x2="72.25" y2="30"/><line class="cls-2" x1="-.25" y1="6" x2="72.25" y2="6"/><line class="cls-2" x1="-72.25" y1="66" x2=".25" y2="66"/><line class="cls-2" x1="-72.25" y1="42" x2=".25" y2="42"/><line class="cls-2" x1="-72.25" y1="18" x2=".25" y2="18"/><line class="cls-2" x1="-72.25" y1="54" x2=".25" y2="54"/><line class="cls-2" x1="-72.25" y1="30" x2=".25" y2="30"/><line class="cls-2" x1="-72.25" y1="6" x2=".25" y2="6"/></pattern></defs><g id="Layer_1"><rect class="cls-6" x=".5" y=".5" width="7680" height="4321"/></g><g id="Layer_5"><path class="cls-4" d="M1600,126h3700v2967.03c0,542.52-440.45,982.97-982.97,982.97H1600V126h0Z"/></g><g id="Layer_6"><path class="cls-8" d="M2580.6,354.06h3670.92c8.03,0,14.54,6.52,14.54,14.54v2937.95c0,550.54-446.97,997.51-997.51,997.51h-2687.95c-8.03,0-14.54-6.52-14.54-14.54V368.6c0-8.03,6.52-14.54,14.54-14.54Z"/></g><g id="Layer_2"><rect class="cls-1" x="40" y="2039.5" width="7600" height="2211"/><line class="cls-1" x1="40" y1="3882" x2="7640" y2="3882"/><line class="cls-1" x1="40" y1="3513.5" x2="7640" y2="3513.5"/><line class="cls-1" x1="40" y1="3145" x2="7640" y2="3145"/><line class="cls-1" x1="40" y1="2776.5" x2="7640" y2="2776.5"/><line class="cls-1" x1="40" y1="2408" x2="7640" y2="2408"/><line class="cls-1" x1="6373.33" y1="2039.5" x2="6373.33" y2="4250.5"/><line class="cls-1" x1="5106.67" y1="2039.5" x2="5106.67" y2="4250.5"/><line class="cls-1" x1="3840" y1="2039.5" x2="3840" y2="4250.5"/><line class="cls-1" x1="2573.33" y1="2039.5" x2="2573.33" y2="4250.5"/><line class="cls-1" x1="1306.67" y1="2039.5" x2="1306.67" y2="4250.5"/></g><g id="Layer_4"><rect class="cls-9" x="225" y="401" width="4150" height="2950" rx="699.01" ry="699.01"/></g><g id="Layer_3"><rect class="cls-5" x="225" y="401" width="4150" height="2950" rx="699.01" ry="699.01"/></g><g id="Layer_9"><path class="cls-7" d="M3000.09,1277.94c-1.23-94.45,27.02-197.4,104.81-250.98,78.67-54.18,187.08-42.74,273.72-2.52,86.64,40.22,159.06,105.02,238.54,158.02,79.47,52.99,173.26,95.57,267.81,81.99,99.58-14.3,179.8-87.48,246.44-162.86,66.63-75.37,129.3-158.67,218.11-205.95,135.16-71.96,298.94-45.38,450.49-23.52,122.09,17.62,249.9,32.77,352.47,101.28,102.58,68.51,168.68,210.09,110.03,318.61-46.97,86.91-156.66,122.67-255.23,115.99-98.57-6.68-191.21-46.82-285.48-76.37-94.27-29.56-198.18-48.4-290.4-12.97-73.88,28.39-130.67,87.92-184.83,145.64-115.93,123.55-232.12,247.4-333.96,382.8-70.22,93.35-133.57,192.13-210.71,279.84-77.15,87.71-170.44,165.21-281.32,201.97s-241.39,27.32-333.52-44.49c-48.45-37.76-85.82-97.46-76.38-158.15,6.75-43.38,35.74-79.84,49.93-121.39,29.87-87.46-7.12-180.02-28.66-264.86-10.82-42.61-20.19-86.65-16.34-130.86,4.09-46.94,12.15-83.12,6.31-131.1-8.12-66.61-20.97-132.85-21.84-200.15Z"/></g></svg>