<?xml version="1.0" encoding="UTF-8"?>
<svg id="Layer_1" xmlns="http://www.w3.org/2000/svg" version="1.1" viewBox="0 0 3000 2001">
  <!-- Generator: Adobe Illustrator 29.5.0, SVG Export Plug-In . SVG Version: 2.1.0 Build 137)  -->
  <defs>
    <style>
      .st0 {
        fill: #0460d9;
      }

      .st1 {
        fill: #f24607;
      }

      .st2 {
        fill: #f2dabd;
      }

      .st3 {
        fill: #173f73;
      }

      .st4 {
        fill: #f0b22b;
      }

      .st5 {
        fill: #f4d2ad;
      }

      .st6 {
        fill: #f2b705;
      }
    </style>
  </defs>
  <path class="st6" d="M396.6,1172.5c10.8,4.2,13.7,36.1,39.4,29.3,7.6-2.1,15-5.3,22.9-5.4,6.8-.3,14.3,1.3,22.1.5,8.3-.9,16.5-3.3,25.5-5.6,11-2.9,21.4-5.4,32.4-6,46-2.2,101.4,35.4,100.7,84.4.2,9.4-5,21.7-2.5,30.1,1.6,5.3,5.6,8.8,11.3,12.3,28.4,13.4,43.8,40.1,41.4,73-.5,22.2-11.7,42-18.5,62.5-3.5,11.9-2.2,24-5.7,35.3-4.3,14.9-14.4,32-4.6,46.7,3.7,6,10.1,11,13.1,17.1,8.5,17.4-17.2,26.5-18.6,42.8-.6,10.8,11.7,16.9,13.5,26.9,1.7,9.9-4.3,19.8-4,29.9,4,47.9,43.6,84.7,19,138.3-7,15.6-20.7,24.1-36.1,30.4-15.1,6.6-12.5,19.5-11,32.9,4.3,42.8-29.4,75.4-68.2,85-33.9,9.3-57.7-1.9-89.5-9.3-11-2.4-22.2,2.8-32.3,1.4-9.2-1.2-17.7-8.6-27.4-8-17.2.9-18.4,23.9-26.2,25.2-5.4-1.8-8.5-10-12.6-14.4-11.3-14.9-23.5-7.8-38-3.2-10.9,3.5-21.9-.5-33.1.6-10.6,1.3-22.1,4.7-33.6,7.3-48.9,13.8-112.7-13.1-122.8-66.1-4.8-19.5,10-39.7-5.3-49.2-4.2-2.9-9.7-4.7-14.5-6.7-26.8-9.7-37.2-37.8-34.5-64.3,2.1-30.7,24.3-67.1,28-95.6,2.6-11.4-6.2-21.7-5.5-32.7,1.1-7.6,9.3-12.4,13.5-18.4,9.7-13.4-7.2-25.3-15.4-34.5-5.9-6-7.1-12.8-1.3-19.9,4.9-6.8,10.9-14.3,13.8-22.6,1.3-3.5,2.2-7.2,2.4-10.9.5-13.4-8.8-23-8.2-35.9,0-6,1.6-12.1,1.6-18,0-12.1-7.6-22.9-12.5-33.7-6.5-13.1-11.4-27.6-11.6-41.9-1.1-26.1,10.4-52.4,32.3-67.1,5.7-4.2,12.3-8.6,15.1-15.2,4.7-12.8-1.8-27.2,1-40.5,8.7-56.4,75.9-87.2,127.2-69,12.8,3.2,25.3,8.8,38.4,8.2,7.2-.5,14.6-2.3,21.9-1.2,6.8.7,13.9,3.7,20.5,4.2,21,1.9,25.9-28.1,36.1-29.3h0Z"/>
  <path class="st1" d="M392.6,571.8c9.8-.6,17.6-9.1,27.6-11,22.2-5.9,45.3,1.1,61.4,17.6,23.9,24.2,23.4,14,46.4-1.1,42.9-23.2,104.5,21.9,97.1,68.5-4.1,17.2-8.9,24.7,9.4,35.2,18.2,10.6,33.9,17.8,44.6,37.2,9.2,15.3,11.7,36.1,2.6,52-3.2,5.5-8.2,10.2-11.9,15.2-5.1,6.6-5,11.7,1.8,16.2,18.3,10.1,22.7,21.8,23.9,42.5,2,19-8.8,36.3-20.6,50.8-5.5,6.5-11.4,11-18.3,14.4-12.8,6.9-38.1,10.9-33.3,30.6,2.4,8.7,8.3,16.9,8.9,26.2,1.2,12.5-5.7,28.4-11.9,40.4-7.1,14.5-19.7,24.2-34,32.3-16.7,9.9-39.2,13-57,4.8-9.3-4.1-15.1-14.1-23.9-18.4-10.4-4.4-23.2,24.3-50.8,30.7-7.9,2.1-16.2,1.4-24.2.7-6.8-.5-12.9-1.2-17.9-3.5-20.3-11.1-19.1-16.5-41.5-3.8-12.8,5.9-27.3,8.1-41.4,7.1-12.9-2-26-9.6-34.6-18.7-4.3-4.1-7.3-10.8-13-12.9-4.5-.6-8,4.6-11.4,7.8-8.8,11-21.2,16.7-35.9,16.3-18.6.5-35.7-9-49.5-20.6-12.8-10-20.8-24.3-25-40.2-9.6-31.9,16.1-45.6,9.2-59.1-4.6-6.5-16.8-10-24.4-14-21.1-8.7-27.7-20-39.6-38.4-3-4.6-6-9.3-7.8-14.5-3.8-11.6-2.8-25.9-.8-38.1,3.2-19.6,30-24,18.8-39.6-3.2-4.6-7.7-9.3-10.1-14.6-5.2-11.4-3.8-26.2.2-38.1,5.6-13.5,15.4-26.3,25.3-36.5,6.1-5.8,13.3-9.5,20.7-13.5,9.9-5.3,20-9.9,15.6-22.4-11.8-29.4,0-59.5,26-76.3,18.5-11.9,45.4-17.9,65.8-6.5,19.9,11.7,22.4,29.1,42.4,4.2,18.6-23,50.3-29.7,75.3-14.1,4.9,2.5,10.4,5.5,15.5,5.3h.2Z"/>
  <path class="st1" d="M2060.4,642.9c3.3,1.1,4.3,4.7,4.4,11.5.2,8.2,0,16.5,0,27,0,14,0,28.5,0,42.4.1,12.7-1.6,23,5.7,29.6,8.6,6.9,20.6,10.8,26.8,20.6,4.8,6.9,6.3,15.9,10.1,23.6,3.7,8.3,11.1,14.6,15.3,22.5,4.4,8.4.8,17.6-.6,26.3-1.4,7.3-1.8,14.7-4.8,21.5-3.1,7-8.6,12.9-12.7,19.5-4.4,6.7-8.1,14.3-13.4,21-7.8,10.6-22.8,16.1-25.2,30.1-2.5,21.8-.6,44.3-2.2,66.2-.3,6.7-1.3,15-5.1,18.5-5.2,5.4-14.1,4-21.1,2.8-24.2-4.1-49.3-9.5-72.5-1.2-8.8,3-17.1,9.5-26.1,11.4-10.7,2.4-20.5-5.2-31.2-4.9-9.4.2-17.8,6.3-26.9,11.3-12,6.8-25,11.1-36.9,18.2-28.9,20.7-26,4.4-54.3,2.5-28.2,1.4-25.5,15.3-53.9-4.2-9.1-5.5-21.1-11.4-32-16.8-11.5-5.2-23.4-13.5-36.1-11.8-9,1.1-17.6,7.3-26.8,4.9-6.4-1.5-15-7.8-23.5-10.9-23.5-8.9-49.3-3.1-73.4.6-6.4,1.2-15.9,2.6-20.3-1.8-3.8-3.1-4.6-11.4-4.6-18.2,0-7.8-.1-15.6-.3-23.4-1.5-18.2,2.4-39.8-9.3-54.7-3.8-4.8-8.6-9-12.7-13.5-8-8.6-12.7-19.6-19.5-29-7.3-9.3-12.6-19.8-14-31.5-1.4-8.5-4.7-17.3-3.3-26.2,1.4-9.1,7.9-16.6,11.6-24.9,3.8-8.3,5.4-17.2,10.9-26,6-10,16.7-15.7,26.4-21.2,4.9-2.8,5.6-8.1,5.7-13.7.6-23.2,1.2-64.4,1.9-88.2-.3-16.1,15.1-9.2,25.5-7.6,18.9,3.8,38.4,7.6,57.4,7,9.3-.3,18.3-2.8,27-6.6,9.2-4.1,18.6-8.6,28.6-5.9,7.7,1.8,15.5,4.9,23.6,3.9,20-3.2,41.6-16.2,58-28.8,25.1-20.8,38.7,7.3,65,.5,8.6-1.8,15.3-6.5,23-7.5,11.6-1.3,21.2,7.6,30.1,14,7.1,5.4,14.5,10.2,22.7,14.5,14.6,8.1,29.7,13.5,45.2,6.8,43.2-16.6,24.3,28.5,118.4,2.1,6.2-1.3,14-4,19.5-2.7h.1Z"/>
  <path class="st5" d="M1755.7,490.3c-6-2.1-13-.6-19.4.9-67,17.3-137.9,8.4-175.3-53.7-11.5-18.3-14.6-36.3-17.4-57.4-1.6-10.9-4-22.4-11.1-31-7.2-9-17.5-14.3-26.5-21.3-12.3-9.4-32.2-25.7-41.8-35.9-3.8-4.1-7.3-9-1.7-13.6,16.1-12.9,43.1-30.4,60.9-43.4,15.1-10,17-15.1,17.7-34-3.3-121,127.1-178.3,224.6-115.1,14.5,8.8,24.8,6.2,38.4-2.7,33.7-20.8,75.1-28.9,114.1-21.2,56.2,10.5,108.1,57.4,110.2,116.7.4,7.8.2,15.7,0,23.4-.3,8.4-.6,18,5.5,24.2,2,2.3,4.8,4.4,7.5,6.4,17.3,13.2,47.1,32.6,64.2,47,8.2,7.5-4.2,16.3-10.5,22.5-8.9,8.4-18.8,16.4-28.9,23.8-7.4,5.5-15.9,11.5-22.1,16.6-7.1,5.5-11.6,11.9-12.7,21.3-2,17.9-2.5,38.5-9.3,55.3-17.2,48.1-63.8,76.9-113.2,77.8-10.5.4-21.4-.8-32.3-3.1-8.9-1.7-18.3-4.5-27.1-5.6-9.7-1.5-17,3.2-22.8,10.2-5.3,5.9-11,13.1-16.6,18.1-5.7,5.5-13.1,8.7-20.4,3.6-5-3.2-9.6-7.9-13.9-12.5-6-6.3-12.3-14.4-19.8-17h-.2Z"/>
  <path class="st2" d="M1338.3,1144c6.5,28.9-.4,98.6,2.9,137.9,4.5,20.3,34.6,32.7,41.2,50.9-1.5,10.1-15.3,19.9-22,28.7-17.4,17.3-21.8,24.4-19.7,49.4,0,26.3,0,55.5,0,81.3-.3,10.3.6,18.5-7.4,20.8-34.8,1-271.2,0-411.5.3-46,0-80.5,0-91.7,0-6,1-4.6-4.7-4.7-9-.7-25.5,3.8-93.5,0-124.6-7.7-16-33.8-27.5-38.9-44.8,1.5-13.5,23-23.7,30.5-33.9,8-7.8,10.6-14.8,9.9-25.2.5-30.8-3-92.9-.9-125.1,1.2-5.6,2.7-8.1,7-8.5,33.2,1.4,400.3-3.1,505.3,1.7h0Z"/>
  <path class="st3" d="M1276.5,201.4c4.4,4.4,11.2,6.1,17.5,7.7,7.8,1.8,15.6,4.6,22.4,8.9,9.4,5.8,16.4,15.3,24.4,21.5,5,4,10.6,6.6,16.6,8.9,72.8,24,68.4,126.6,27.2,177.2-59.1,75.5-178.8,101.8-261.1,49.2-12.6-7.4-20.8-7.6-33.7-.2-112.9,74.2-329.6-21.4-282.6-170.6,6.5-19.6,16.6-37.6,33.7-49.1,7.3-4.9,16.2-7.8,23.6-11.8,10.4-5.2,17.8-14.3,26.7-21.6,4.4-3.5,9.3-6.3,14.5-8.4,9.1-3.9,18.3-4.4,25.5-9.9,6.2-4.8,7.9-12.4,9.7-20.2,1.9-8.7,5.1-17.2,9.3-25.2,15.2-28.3,41.8-50.4,70.8-62.7,79.1-32.3,198.7-18.5,239.3,65.8,3.1,6.5,5.5,13.4,7.3,20.4,1.8,7.1,3.7,15.2,8.8,20.1h.1Z"/>
  <path class="st0" d="M419.5,70.2c6.5,6.6,13.6,13.1,20.7,18,3.7,2.7,7.5,5.3,10.6,8.6,6,5.9,9.5,15.3,13.5,23,5.7,10.8,14,20.4,23.4,28.4,15.3,13.7,33.7,16.8,53.2,17.8,14.8,1,29.8,3.6,43.2,10,37.8,17.7,66,58.8,63.8,100.6-1.4,26.6-12.4,53.3.9,78.7,5.3,10.7,13.6,20.2,24.2,25.7,6.7,3.5,14.7,4.6,20.7,6.7,10.3,3.1,17.1,11.9,24.1,19.6,15.3,16,11.3,20.7.2,37.2-2.4,3.9-4.5,7.9-6.2,11.6-2.7,6.1-4.2,11-5.4,13.6-.8,1.7-1.5,2.5-2.5,2.7-92.8,0-473.4-.2-605.8-.4-1.6,0-3.1,0-4.6,0-2.5,0-4,.3-5.4-1.3-1.5-1.9-2.4-4-3.5-6.3-3.1-6.4-6.8-13-11.2-19-4.5-6.1-10.3-12.6-10.4-20,.2-7.2,5.2-13.7,9.7-19.3,7-8.5,15.3-15.4,24.8-20.4,24.9-11.6,40.8-36,36.6-63.6-1.9-15.2-5.8-30.2-5-45.7,2-61.7,58.2-114.2,120-111.2,8.1-.2,16.1-.1,24-1.4,13.6-1.8,25.3-9,34.7-18.8,7-7.2,13.8-15.2,18.6-23.3,11-19.9,8.9-24.4,30.5-36.1,7.9-4.6,13.8-11.9,19.6-19.1,15.5-20,26.3-12.6,42.7,3.6l.2.2Z"/>
  <path class="st4" d="M1134.5,611.3c10.1,9.4,16.7,20.7,26.3,30.4,10,10.4,24,17.9,32.6,30,10.2,13.8,8.7,32.1,18.9,46.1,7,10.3,18.1,17.1,27.1,25.4,8.1,7.4,13.6,17,21,26,8.3,11.5,22,18.3,31.6,28,6.9,8.2-1.9,16.5-7.6,22.8-6,6.2-11.7,13.2-16.9,20.2-10.6,13.7-17.4,30.6-30.1,40.6-10.6,8.1-22.5,15.1-30.1,26.6-11.1,15.8-15.1,35.8-24.3,52.6-6.9,12.4-19.3,20.8-28.8,31.7-4.5,4.8-8.8,9.7-13.7,14.1-7.9,7.2-17.7,13.1-25.5,21.1-11.8,11.5-24.7,38.9-43.3,21.3-5.8-5.6-10.6-12.5-16.6-18.1-7.8-7.5-17.2-13.5-25-21.1-7.2-6.8-13.2-14.9-20.3-21.9-5.8-5.8-12.2-10.9-17.9-16.7-13.6-13.7-17.9-32.8-25.5-50.6-4.1-10-9.2-18.8-17.2-25.8-7.3-6.5-16.3-12-23-19.5-4.2-4.5-7.5-9.7-11.1-14.7-4.8-6.6-9.6-12.8-14.4-19.3-4.9-6.6-9.8-14.2-15.7-20.5-4.2-4.9-10.6-10.3-10.7-16.9,1.3-10.1,13-15.8,19.9-22.3,10.4-9,16.9-22.1,26.2-32.4,12.2-14.1,32-21.7,37.8-40.8,4.4-13.3,7.5-29.6,17.8-40.6,8.7-9.3,18.9-18.6,26.6-27.9,7-8.1,13.3-16.9,20.7-24.8,8.7-10.5,20.6-18.4,29.6-28.8,7.8-8.3,14.8-22.7,25.5-24,18.7-.5,27.5,19.2,37.5,31.8,5.3,6.6,12.2,12,18.3,18l.2.2Z"/>
  <path class="st5" d="M2866.3,1312.4c.9,8-5.7,14.9-10.9,20.6-17.8,18.7-31.3,41.6-42.9,65-2.4,4.6-5.7,9.6-10,11.7-3.4,1.7-7.3,1.7-11.7.3-6.4-2.1-13.9-6.7-20.5-10-16.2-8.4-32.4-16.7-48.9-24.4-25.6-11.8-49.9-17.6-75.1-3.1-20.2,10.9-40.2,27.9-56.3,43.5-7.4,6.9-12.2,14.3-20.7,15.7-4.5.6-9.1-1.9-13.9-6.4-24.4-25.1-56.9-54-89.5-60.5-18-3.4-35.2,3-51.7,10.7-16.1,7.7-32.8,18-48.1,26.9-11,6.1-21.2,14.3-31.3,4.8-3.1-2.9-6-7.3-8.4-11.1-12.6-19.9-28.6-38-45.9-53.9-7.2-6.7-15.3-13-22.9-19.1-7.4-6.1-13.6-12.3-4.2-20.6,7.1-6.3,16.1-12.2,23.3-18.4,19.3-15.9,34.7-35.7,48.5-56.4,6.7-10.3,14.3-17.9,27.1-12.6,3.1,1.2,6.3,2.9,9.3,4.6,20.3,11.6,39.9,24.6,61.4,34.1,20.3,9.4,33.6,10.8,54.4,1.8,23.8-10.5,44.9-26.3,63.3-44.5,5.4-5.4,11.1-11.8,16.7-17.4,6.9-6.9,13.8-11.1,21.8-4.2,20.6,19.5,41.7,36.8,66.2,52,11.2,6.7,23.4,15.1,35.7,18.7,6.8,1.9,13.8.4,20.3-2.1,9.1-3.4,20.9-9.2,30.4-14.1,13.5-6.9,24.6-13.5,37.4-21,8.2-4.2,20.2-13.9,28.9-9.5,4.1,2.3,7.2,7.4,9.7,11.8,13.5,24.4,28.8,48.1,47.4,68.5,4.6,5.1,10.2,11.3,11,18h0Z"/>
  <path class="st3" d="M1667.3,1168.8c120.1-1.5,240,1,360.1.2,19.5,0,40.1,1,57.4,10.2,18,9.4,30.9,30.4,27.7,51.1-6.9,33.6-38.8,50.6-42.5,96.3-4.6,40.6,5.5,85.6,10.5,126.4,6.9,59.7,7.4,121.8.9,181-6.9,65.7-31.5,139.3-1.5,202.1,9.2,18.4,25.9,34.1,27.5,55.6,1.9,51.3-61.8,51.9-99.3,51.7-29.7,0-59.3-.9-88.7-.5-125.8-5.4-258.4,7.4-383.1,2.6-22.1-1.2-46.6-2.6-64.3-17.3-12.8-10.6-19.9-28.3-16.2-44.1,4.9-20.5,23.3-35.4,31.5-54.4,21.6-52,7.3-115.5.7-175.3-7.2-51-8.1-102.9-5.1-154.2,2.9-40.4,11-80.2,14.5-121,11.7-116.9-36.6-103.7-40.2-162,1.5-32.2,34.9-49,64-49,46.6-1.4,98.1,4.8,145.7.6h.3Z"/>
  <path class="st3" d="M2541.5,607.6c153.6-8.3,294.1,125.4,282.9,280.7-9.8,244.4-312.2,349.5-470.4,160.7-64.1-72.7-80.6-177.6-47.2-266.6,35.1-98.3,126.9-170.6,234.4-174.7h.3Z"/>
  <path class="st4" d="M2334.7,84.8c1.1-4.3,3.5-5.9,7.4-5.8,12.9,0,47.6,0,92.3,0,100.1,0,248.6,0,338.4,0,2,0,4.1.3,5.4,1.9,3.8,5.9,2.9,11.9,3.3,21.3-5.8,158.2,41.9,352.3-107.3,451.1-121.2,86.1-270.4,11.5-321.7-117.2-21.2-48.9-22.2-103.9-21.8-156.5.4-57.3,2.9-115.2,2-172.2,0-7.2.4-16.6,2-22.3h0Z"/>
  <path class="st1" d="M1340.9,1735.9c1.1,5.9-2.2,12.3-5.6,17.7-4.8,7.6-9.5,15.5-13.8,23.3-12.2,22-21.2,39.3-38.8,57.3-11.2,11.5-24.9,22.4-38.6,31.1-27.4,17.8-51.2,21.1-81.4,25.5-19,2.8-37.2,6.9-53,17.7-6.6,4.3-12.5,10.3-18.3,13-10,5.3-19.9-2.1-28-7.7-9.2-6.2-19.4-11.4-30.1-14.9-21-7.1-43.3-6.9-64.5-12.6-39.9-11.3-77-41.2-103.1-72.8-10.8-13.5-18-29.1-25.5-44.7-15.4-29.8-18.9-30.3.5-60,21.2-35.7,33.2-67.7,71.7-91.9,10.7-6.9,22.9-13.1,34.8-17.3,40-14.3,84.8-9,119-34.7,2.4-1.6,4.7-3.1,7-4.3,4.8-2.5,9.2-3.7,14.1-2.9,10.4,2,18.8,11.2,28.9,15.9,13,6.9,27.7,10.5,42,12.5,11.6,1.7,23.3,2.9,34.9,5.4,54.8,11.3,97.6,54.5,122,103.5,3.9,7.4,7.6,14.9,12.5,21.7,5.3,7.5,11.5,11.7,13.1,19.3h0Z"/>
  <path class="st4" d="M2398,1427.1c41.9-7.1,83.5,22.2,121.7,38.2,20.1,9.8,41.1,26.9,62.9,17.8,11.8-5,21.4-14.1,32.7-20.9,46.1-28.2,110.2-56,156.6-14.8,28.1,23.8,36.2,62,59.4,89.6,12.8,16.1,29.1,29.7,43.9,44.3,47.3,45.9,81.5,104.3,48.7,168.9-16.5,36.4-48.9,61.3-73.9,90.9-19.1,22.2-31.3,50.3-50.4,72.5-50.6,58.1-130.4,12.9-187.4-20.2-13.1-7.8-25.1-13.8-37.2-14.7-21.4-1.5-38,9.6-58.6,19.8-7.8,4-15.8,8.1-23.9,12.1-20.7,10.2-41.8,20-63.6,27.6-89.8,33.3-101.3-38.1-146.2-93.6-50.8-62-107.3-104.1-68.9-192.8,13.2-29.4,37.2-51.8,59.6-74.2,17.9-17.7,33.3-36.8,44.4-59.3,17.9-36.9,34.4-83.4,79.8-91.1h.4Z"/>
</svg>