<?xml version="1.0" encoding="UTF-8"?>
<svg id="Layer_8" data-name="Layer 8" xmlns="http://www.w3.org/2000/svg" xmlns:xlink="http://www.w3.org/1999/xlink" viewBox="0 0 5950 3925">
  <defs>
    <style>
      .cls-1, .cls-2, .cls-3 {
        opacity: .85;
      }

      .cls-4 {
        fill: #d3ccc9;
      }

      .cls-5, .cls-6 {
        fill: #ec008c;
      }

      .cls-5, .cls-7, .cls-8, .cls-9 {
        opacity: .8;
      }

      .cls-10, .cls-9 {
        fill: #fff200;
      }

      .cls-2 {
        fill: #ffde17;
      }

      .cls-11 {
        fill: #fff;
      }

      .cls-12, .cls-3 {
        fill: #00a651;
      }

      .cls-13 {
        fill: none;
      }

      .cls-14 {
        clip-path: url(#clippath-1);
      }

      .cls-15, .cls-8 {
        fill: #231f20;
      }

      .cls-16 {
        fill: #f9f;
      }

      .cls-17 {
        fill: #070707;
      }

      .cls-18 {
        clip-path: url(#clippath);
      }
    </style>
    <clipPath id="clippath">
      <rect class="cls-13" width="5950" height="3925"/>
    </clipPath>
    <clipPath id="clippath-1">
      <rect class="cls-13" x="-25" y="-50" width="6000" height="4000"/>
    </clipPath>
  </defs>
  <g class="cls-18">
    <g class="cls-14">
      <g>
        <rect class="cls-16" x="975" y="-1050" width="4000" height="6000" transform="translate(4925 -1025) rotate(90)"/>
        <rect class="cls-16" x="-25" y="-50" width="6000" height="4000"/>
        <path class="cls-4" d="M-25.5,3950.5V-50.5s6001,0,6001,0v4001s-6001,0-6001,0ZM-24.5,3949.5h5999s0-3999,0-3999H-24.5v3999Z"/>
        <path class="cls-4" d="M5975.5,3950.5H-25.5V-50.5h6001v4001ZM-24.5,3949.5h5999V-49.5H-24.5v3999Z"/>
      </g>
      <path class="cls-11" d="M5497.58,1783.85c-111.08,0-226.82-30.54-334.69-88.33-104.23-55.84-196.72-134.4-267.46-227.19-59.28-77.75-100.29-160.95-121.89-247.27-23.09-92.27-22.6-183.46,1.46-271.06,27.09-98.64,68.75-196.49,123.8-290.82,54.31-93.06,119.19-178.52,192.84-254,75.19-77.06,156.19-140.25,240.77-187.84,88.88-50,178.91-81.07,267.59-92.34,27.18-3.46,54.77-5.21,82-5.21,95.47,0,189.29,20.96,278.87,62.29,85.45,39.43,163.5,95.62,231.98,167.02,75,78.18,135.79,173.07,175.82,274.39,20.45,51.78,35.63,105.39,45.11,159.35,9.76,55.53,13.53,111.77,11.23,167.16-4.32,103.88-31.19,205.15-79.86,301-45.41,89.44-108.79,172.45-188.38,246.74-75.89,70.83-163.54,131.1-260.51,179.12-95.58,47.33-195.25,80.35-296.26,98.14-33.34,5.87-67.8,8.85-102.42,8.85Z"/>
      <path class="cls-11" d="M6425,950c-17.97,431.58-422.33,754.07-825,825-448.73,79.04-945.67-385.64-825-825,109.66-399.28,459.71-778.57,825-825,452-57.45,843.95,369.76,825,825Z"/>
      <path class="cls-11" d="M3116.61,4950.16c-184.02,0-361.33-37.07-526.98-110.18-158.59-69.99-301.67-170.68-425.26-299.27-60.34-62.78-115.6-132.05-164.25-205.89-48.72-73.94-91.29-153.19-126.54-235.57-72.46-169.32-114.04-349.91-123.58-536.75-18.37-359.48,109.79-665.42,380.92-909.3,121.59-109.37,272.61-206.35,448.87-288.24,164.42-76.39,352.06-140.3,557.72-189.95,69.52-16.78,141.28-25.29,213.28-25.29,81.78,0,164.96,10.93,247.23,32.5,79.35,20.8,158.27,51.58,234.58,91.48,147.91,77.34,285.95,189.33,399.2,323.84,114.42,135.91,202.07,293.09,253.47,454.57,26.68,83.81,43.72,168.86,50.67,252.81,7.22,87.29,3.54,173.95-10.92,257.59-14.44,83.51-35.29,168.02-61.96,251.2-26.85,83.73-59.76,166.55-97.8,246.18-79.19,165.75-178.49,314.76-295.13,442.9-124.24,136.48-263.72,244.03-414.56,319.64-163.39,81.9-337.68,124.83-518.04,127.59-6.94.11-13.96.16-20.89.16Z"/>
      <path class="cls-11" d="M4525,3562.5c-115.69,668.9-634.88,1375.99-1387.5,1387.5-766.21,11.72-1348.4-622.2-1387.5-1387.5-39.17-766.77,592.45-1195.54,1387.5-1387.5,744.89-179.85,1518.09,632.41,1387.5,1387.5Z"/>
      <path class="cls-11" d="M637.5,2975c-145.07,0-294.33-33.92-431.66-98.08-135.58-63.35-254.38-153.64-343.56-261.1-68.78-82.88-118-173.14-146.29-268.28-30.16-101.45-35.55-205.76-15.99-310.03,20.95-111.72,64.5-223.21,129.43-331.36,60.3-100.45,137.15-195.14,228.4-281.45,87.07-82.36,182.58-152.82,283.86-209.42,99.21-55.44,201.5-95.3,295.81-115.27,43.93-9.3,88.5-14.01,132.49-14.01,107.96,0,213.73,27.69,314.35,82.31,47.44,25.75,93.46,57.48,136.78,94.32,42.34,36,82.37,77.1,118.99,122.15,72.18,88.81,131.64,194.27,171.96,304.96,41.76,114.64,62.93,231.65,62.93,347.78,0,126.56-24.79,249.34-73.67,364.92-47.22,111.64-114.82,211.9-200.91,298-86.1,86.1-186.36,153.7-298,200.91-115.58,48.89-238.36,73.67-364.92,73.67Z"/>
      <path class="cls-11" d="M1575,2037.5c0,517.77-419.73,937.5-937.5,937.5s-1032.93-428.6-937.5-937.5c87.25-465.25,554.46-856.41,937.5-937.5,506.54-107.23,937.5,419.73,937.5,937.5Z"/>
      <path class="cls-6" d="M4100,4075c-140.21-353.31-288.8-733.54-432.49-1101.26-264.38-676.54-537.76-1376.11-769.67-1935.47C2637.75,410.96,2458.55,30.45,2350-125h175s1625,4200,1625,4200h-50Z"/>
      <path class="cls-6" d="M2350-125c307.75,440.69,1093.88,2546.63,1750,4200h50L2525-125h-175Z"/>
      <polygon points="3400 175 3800 100 3775 225 3600 225 3625 350 3500 425 3400 175"/>
      <polygon points="3400 175 3800 100 3775 225 3600 225 3625 350 3500 425 3400 175"/>
      <g>
        <polygon class="cls-11" points="5525 100 5550 50 5475 25 5550 50 5525 100"/>
        <polyline class="cls-11" points="5475 25 5550 50 5525 100"/>
        <polygon class="cls-15" points="5524.55 99.78 5549.29 50.29 5474.84 25.48 5475.16 24.53 5550.71 49.71 5525.45 100.22 5524.55 99.78"/>
        <polygon class="cls-15" points="5525.45 100.22 5524.55 99.78 5549.29 50.29 5474.84 25.47 5475.16 24.53 5550.71 49.71 5525.45 100.22"/>
      </g>
      <path class="cls-11" d="M4275,2525c-90.78,0-184.5-21.67-271.03-62.66-85.71-40.6-159.9-97.98-214.55-165.92-40.48-50.32-68.96-104.67-84.63-161.53-16.75-60.79-18.36-123-4.79-184.89,28.42-129.58,105.99-261.22,218.42-370.68,53.03-51.62,110.93-95.66,172.1-130.89,62.08-35.75,124.15-60.46,184.48-73.43,27.2-5.85,54.81-8.81,82.05-8.81,66.09,0,130.84,17.01,192.46,50.56,58.04,31.6,110.73,76.31,156.62,132.91,91.43,112.76,143.86,258.68,143.86,400.35,0,77.62-15.2,152.93-45.19,223.82-28.96,68.47-70.42,129.96-123.23,182.77-52.81,52.81-114.3,94.27-182.77,123.23-70.89,29.98-146.19,45.19-223.82,45.19Z"/>
      <path class="cls-11" d="M4850,1950c0,317.56-257.44,575-575,575s-643.02-264.81-575-575c60.17-274.36,330.62-522.45,575-575,310.47-66.76,575,257.44,575,575Z"/>
      <path class="cls-8" d="M4600.83,3675c-94.37,0-189.35-8.22-284.37-24.66-23.26-4.03-46.82-8.61-70.03-13.61-22.98-4.96-46.23-10.47-69.11-16.38-22.66-5.86-45.58-12.26-68.12-19.04-22.33-6.72-44.88-13.99-67.04-21.6-21.96-7.55-44.13-15.64-65.89-24.06-21.57-8.34-43.32-17.23-64.66-26.41-21.15-9.1-42.46-18.74-63.34-28.65-20.71-9.83-41.55-20.19-61.95-30.79-20.24-10.52-40.59-21.57-60.47-32.83-19.75-11.18-39.57-22.87-58.92-34.75-38.35-23.55-76.32-48.74-112.86-74.87-36.13-25.85-71.69-53.21-105.68-81.33-33.7-27.88-66.63-57.13-97.87-86.95-31.05-29.64-61.14-60.5-89.41-91.72-28.19-31.12-55.21-63.31-80.32-95.66-25.1-32.34-48.85-65.56-70.59-98.75-10.88-16.61-21.46-33.52-31.44-50.27-10.01-16.78-19.69-33.85-28.77-50.73-11.24-20.89-21.72-41.77-31.13-62.04-8.99-19.37-17.33-38.85-24.76-57.9-7.05-18.05-13.54-36.36-19.31-54.43-5.4-16.92-10.38-34.3-14.78-51.64-4.11-16.18-7.77-32.38-11.17-49.52-3.04-15.3-5.81-31.03-8.48-48.08-4.96-31.72-8.66-62.23-12.58-94.53-8.28-68.31-16.84-138.95-38.13-220.36-5.5-21.04-11.74-42.32-18.55-63.27-7.3-22.46-15.55-45.42-24.51-68.26-9.5-24.2-20.14-49.14-31.64-74.12-12.09-26.26-25.53-53.45-39.95-80.83-10.2-19.36-20.89-38.84-31.79-57.88-10.68-18.66-21.85-37.43-33.2-55.77-22-35.56-45.56-70.99-70.04-105.31-23.42-32.84-48.29-65.53-73.93-97.17-24.45-30.18-50.25-60.19-76.67-89.22-25.11-27.58-51.44-54.98-78.26-81.45-25.38-25.05-51.86-49.9-78.7-73.88-25.27-22.57-51.5-44.95-77.98-66.5-24.78-20.17-50.38-40.12-76.11-59.31-45.96-34.28-93.74-67.19-142.01-97.81-39.89-25.31-80.5-49.31-120.7-71.34-30.71-16.82-61.05-32.43-90.18-46.39-17.91-8.58-34.88-16.31-50.43-22.97-28.33-12.13-57.3-23.7-86.08-34.4-28.21-10.48-57.04-20.41-85.68-29.5-28.05-8.91-56.69-17.27-85.14-24.84-27.84-7.42-56.26-14.29-84.47-20.42-27.59-6-55.74-11.46-83.66-16.24-27.29-4.66-55.13-8.8-82.73-12.29-26.96-3.41-54.43-6.29-81.67-8.58-26.57-2.23-53.65-3.95-80.47-5.11-26.15-1.13-52.77-1.76-79.14-1.88-2.9-.01-5.81-.02-8.73-.02-22.86,0-46.01.38-68.95,1.14-25.16.83-50.76,2.14-76.09,3.88-24.61,1.69-49.63,3.85-74.37,6.4-24.01,2.48-48.4,5.4-72.51,8.69-23.36,3.18-47.09,6.79-70.53,10.73-44.58,7.49-89.85,16.46-134.57,26.65-41.53,9.47-83.6,20.23-125.04,31.99-38.14,10.82-76.65,22.74-114.46,35.43-65.34,21.92-130.27,46.68-192.99,73.57-47.92,20.55-94.37,42.26-138.05,64.52-26.86,13.69-51.99,27.24-74.69,40.27h0c22.7-13.03,47.82-26.58,74.69-40.27,43.68-22.26,90.13-43.97,138.05-64.52,62.72-26.89,127.65-51.64,192.99-73.57,37.81-12.69,76.33-24.61,114.46-35.43,41.44-11.76,83.51-22.52,125.04-31.99,44.71-10.2,89.99-19.16,134.57-26.65,23.44-3.94,47.16-7.55,70.52-10.73,24.11-3.29,48.51-6.21,72.51-8.69,24.74-2.55,49.76-4.71,74.37-6.4,25.33-1.74,50.93-3.05,76.09-3.88,22.93-.76,46.06-1.14,68.91-1.14,2.93,0,5.85,0,8.77.02,26.37.11,52.99.74,79.14,1.88,26.82,1.16,53.9,2.88,80.47,5.11,27.23,2.29,54.71,5.17,81.67,8.58,27.6,3.49,55.44,7.62,82.73,12.29,27.93,4.77,56.08,10.24,83.67,16.24,28.21,6.13,56.62,13.01,84.47,20.42,28.44,7.58,57.09,15.93,85.14,24.84,28.64,9.09,57.46,19.02,85.68,29.5,28.79,10.69,57.75,22.27,86.08,34.4,15.56,6.66,32.52,14.39,50.43,22.97,29.13,13.96,59.47,29.57,90.18,46.39,40.2,22.03,80.81,46.03,120.7,71.34,48.27,30.63,96.04,63.53,142.01,97.81,25.73,19.19,51.34,39.14,76.11,59.31,26.48,21.55,52.71,43.93,77.98,66.5,26.84,23.98,53.32,48.84,78.7,73.88,26.82,26.47,53.15,53.87,78.26,81.45,26.42,29.02,52.22,59.04,76.67,89.21,25.64,31.64,50.51,64.33,73.93,97.17,24.48,34.32,48.04,69.75,70.04,105.31,11.35,18.34,22.52,37.11,33.2,55.77,10.9,19.04,21.59,38.51,31.79,57.88,14.42,27.38,27.86,54.58,39.95,80.83,11.5,24.98,22.14,49.91,31.64,74.12,8.96,22.84,17.21,45.8,24.51,68.26,6.81,20.95,13.05,42.23,18.55,63.27,21.29,81.41,29.85,152.05,38.13,220.36,3.92,32.3,7.61,62.81,12.58,94.53,2.67,17.05,5.44,32.78,8.48,48.08,3.41,17.14,7.06,33.34,11.17,49.52,4.41,17.34,9.38,34.72,14.78,51.64,5.77,18.07,12.27,36.38,19.31,54.43,7.44,19.05,15.77,38.53,24.76,57.9,9.42,20.28,19.89,41.15,31.13,62.04,9.08,16.88,18.76,33.95,28.77,50.73,9.99,16.75,20.57,33.67,31.44,50.27,21.74,33.19,45.49,66.41,70.59,98.75,25.11,32.35,52.13,64.53,80.32,95.66,28.28,31.22,58.36,62.08,89.41,91.72,31.24,29.81,64.17,59.07,97.87,86.95,33.99,28.12,69.55,55.48,105.68,81.33,36.53,26.13,74.5,51.32,112.86,74.87,19.35,11.88,39.17,23.57,58.92,34.75,19.89,11.26,40.23,22.3,60.47,32.82,20.39,10.6,41.24,20.96,61.95,30.79,20.88,9.91,42.19,19.55,63.34,28.65,21.33,9.18,43.08,18.07,64.66,26.41,21.76,8.42,43.93,16.51,65.89,24.06,22.16,7.62,44.72,14.89,67.04,21.6,22.54,6.78,45.45,13.19,68.12,19.04,22.88,5.91,46.14,11.42,69.11,16.38,23.2,5.01,46.76,9.59,70.03,13.61,95,16.44,190.01,24.66,284.37,24.66,100.7,0,200.66-9.36,299.17-28.07,22.41-4.26,45-9.05,67.15-14.26,21.73-5.11,43.64-10.75,65.11-16.77,21.05-5.9,42.28-12.34,63.08-19.12,20.38-6.64,40.92-13.8,61.05-21.28,19.71-7.32,39.57-15.16,59.04-23.28,19.04-7.95,38.23-16.39,57.03-25.11,18.38-8.52,36.89-17.52,55.02-26.76,17.71-9.03,35.56-18.53,53.03-28.24,33.69-18.72,67.37-38.99,100.11-60.24,31.06-20.16,62.09-41.72,92.22-64.1,28.46-21.13,56.86-43.54,84.4-66.58,25.87-21.65,51.66-44.43,76.64-67.7,23.31-21.71,46.5-44.4,68.94-67.43,20.76-21.32,41.39-43.45,61.3-65.79,34.77-39.01,68.4-79.78,99.94-121.17,24.67-32.38,48.27-65.39,70.13-98.11,14.23-21.31,27.58-42.26,40.81-64.05-13.22,21.79-26.57,42.75-40.81,64.06-21.86,32.73-45.45,65.74-70.12,98.11-31.54,41.39-65.17,82.16-99.94,121.17-19.91,22.34-40.54,44.48-61.3,65.79-22.44,23.03-45.63,45.72-68.94,67.43-24.98,23.27-50.76,46.04-76.64,67.7-27.54,23.05-55.94,45.45-84.4,66.58-30.13,22.38-61.16,43.94-92.22,64.1-32.74,21.24-66.42,41.51-100.11,60.24-17.47,9.71-35.32,19.21-53.03,28.24-18.14,9.24-36.65,18.24-55.02,26.76-18.8,8.71-37.99,17.16-57.03,25.11-19.46,8.12-39.33,15.96-59.04,23.28-20.13,7.48-40.67,14.64-61.05,21.28-20.8,6.78-42.03,13.21-63.08,19.12-21.48,6.02-43.38,11.67-65.11,16.78-22.15,5.21-44.75,10.01-67.15,14.26-98.5,18.71-198.49,28.06-299.17,28.07Z"/>
      <path class="cls-8" d="M-125,1071.94c107.2-61.55,980.08-543.86,1900-150,73.3,31.38,668.9,296.32,1000,925,228.01,432.94,82.49,567.29,275,925,292.34,543.21,1054.53,1026.08,1850,875,727.21-138.12,1104.83-734.37,1175-850"/>
      <path d="M1975,700c-413.26-80.95-771.87-148.12-975-150-33.18-182.48-134.11-401.17-300-650h1500c-149.48,367.11-218.88,613.84-225,800h0s0,0,0,0Z"/>
      <path d="M700-100c166.67,250,266.67,466.67,300,650,209.17,1.94,587.62,74.12,975,150,7.1-215.8,101.68-497.13,225-800H700Z"/>
      <polygon class="cls-1" points="1725 4000 1525 3100 2375 3100 2050 4000 1725 4000"/>
      <polygon class="cls-1" points="2050 4000 2375 3100 1525 3100 1725 4000 2050 4000"/>
      <path class="cls-7" d="M6025,250c-260.46-16.6-535.2-25.01-816.57-25.01s-578.28,8.41-882.66,25.01c32.16-99.53,32.16-200.47,0-300h1699.23s0,300,0,300h0Z"/>
      <path class="cls-7" d="M6025,250c-543.57-34.63-1111.69-32.03-1699.23,0,32.31-100,32.31-200,0-300h1699.23V250Z"/>
      <path class="cls-2" d="M5375,1250c-99.46-19.18-302.57-28.51-620.96-28.51s-716.95,9.18-1103.03,18.06c-157.69,3.63-320.74,7.38-476.01,10.45v-200c222.23,34.38,500.11,51.09,849.53,51.09,420.62,0,897.64-24.55,1350.47-51.09v200s0,0,0,0Z"/>
      <path class="cls-2" d="M5375,1250c-281.94-54.38-1322.51-17.37-2200,0v-200c547.27,84.66,1358.26,49.32,2200,0v200Z"/>
      <g class="cls-1">
        <path class="cls-12" d="M550,4050c14.15-219.29,43.1-459.3,88.5-733.74,40.59-245.34,93.41-512.34,161.5-816.26-235.87,694.88-434.47,1187.41-625,1550H-75s0-250,0-250l825-1325c-137.2,207.55-279.81,406.6-423.87,591.62-152.77,196.19-312.96,384.06-476.13,558.38v-175s875-1025,875-1025c-314.03,325.25-608.42,578.75-900,775v-300s1000-675,1000-675c144.66,329.31,295.08,677.48,415.12,992.53,128.35,336.87,205.18,592.82,234.89,782.47h-325s-225-1450-225-1450c-2.4,314.07-8.65,578.14-19.1,807.28-12.38,271.59-30.67,498.18-55.9,692.72h0s-300,0-300,0Z"/>
        <path class="cls-12" d="M825,2225l-1000,675v300c312.05-210.02,610.39-475.03,900-775L-150,3450v175c336.86-359.89,632.81-745.8,900-1150L-75,3800v250h250c215.02-409.21,421.77-951.3,625-1550-126.74,565.74-220.59,1094.3-250,1550h300c53.38-411.64,70.68-935.62,75-1500l225,1450h325c-64.97-414.87-344.72-1080.06-650-1775Z"/>
        <path class="cls-4" d="M549.47,4050.5l.03-.53c14.15-219.3,43.1-459.33,88.51-733.79,40.19-242.95,92.35-506.99,159.47-807.2-234.59,690.31-432.24,1180.06-622.03,1541.25l-.14.27H-75.5s0-250.64,0-250.64l806.79-1295.75c-131.28,197.13-267.46,386.49-404.77,562.82-152.77,196.2-312.98,384.08-476.16,558.42l-.87.92v-176.45s864.68-1012.91,864.68-1012.91c-309.9,319.77-600.67,569.52-888.9,763.51l-.78.52v-301.21s1000.72-675.49,1000.72-675.49l.24.55c144.67,329.32,295.08,677.49,415.12,992.55,128.36,336.9,205.2,592.88,234.91,782.57l.09.58h-326.01s-224.12-1444.33-224.12-1444.33c-2.44,311.37-8.67,573.42-19.05,801.12-12.39,271.6-30.67,498.2-55.9,692.77l-.06.44h-300.97ZM800.49,2500.11c-141.68,632.44-223.44,1139.25-249.95,1549.39h299.03c46.64-359.92,69.76-822.38,74.94-1499.5l1-.07,224.94,1449.58h323.99c-66.47-423.44-357.37-1108.43-649.63-1773.75l-999.28,674.52v298.79c291.31-196.16,585.42-449.47,899.14-774.41l.74.67L-149.5,3450.19v173.55c319.91-341.9,614.01-717.75,899.08-1149.01l.84.54L-74.5,3800.14v249.36h249.2c190.47-362.55,389.01-854.96,624.83-1549.66h0s.96.27.96.27Z"/>
        <path class="cls-4" d="M850.44,4050.5h-300.97l.03-.53c14.15-219.31,43.1-459.33,88.51-733.79,40.18-242.89,92.37-507.04,159.47-807.2-234.58,690.29-432.3,1180.16-622.03,1541.25l-.14.27H-75.5v-250.64l.08-.12,806.71-1295.63c-131.31,197.17-267.38,386.38-404.77,562.82-152.78,196.21-312.98,384.08-476.16,558.42l-.87.92v-176.45l.12-.14,864.56-1012.77c-309.85,319.72-600.76,569.58-888.9,763.51l-.78.52v-301.21l.22-.15,1000.5-675.34.24.55c144.66,329.32,295.08,677.49,415.12,992.55,128.36,336.9,205.2,592.88,234.91,782.57l.09.58h-326.01l-.07-.42-224.05-1443.9c-2.44,311.38-8.67,573.47-19.05,801.12-12.39,271.6-30.67,498.21-55.9,692.77l-.06.44ZM550.53,4049.5h299.03c46.64-359.9,69.76-822.41,74.94-1499.5l.99-.07,224.93,1449.58h323.99c-66.46-423.39-357.32-1108.31-649.63-1773.75l-999.28,674.52v298.79c291.29-196.15,585.43-449.48,899.14-774.41l.74.67L-149.5,3450.18v173.55c319.9-341.89,614.02-717.76,899.08-1149.01l.84.54L-74.5,3800.14v249.36h249.2c190.47-362.54,389.02-854.97,624.83-1549.66l.96.27c-141.68,632.43-223.44,1139.25-249.95,1549.39Z"/>
      </g>
      <path class="cls-9" d="M3500,4075c115.38-365.23,249.74-757.78,399.34-1166.77,141.43-386.64,301.46-801.56,475.66-1233.24,332.55,143.66,715.48,313.11,1034.13,480.76,332.47,174.92,558.46,328.41,690.88,469.24v450c-186.7-108.84-426.28-273.38-732.43-503.02-290.88-218.18-614.43-474.77-892.57-696.98,361.44,352.46,641.62,631.18,881.74,877.15,290.08,297.15,516.85,541.78,693.27,747.85v275c-493.34-429.83-1008.53-977.73-1575-1675,529.32,750.77,897.31,1372.26,1125,1900h-725c-52.07-134.46-102.02-280.25-148.46-433.31-44.36-146.19-86.98-303.81-126.66-468.48-73.63-305.5-139.01-640.2-199.88-1023.21-114.49,784.48-253.51,1438.68-425,2000h0s-475,0-475,0Z"/>
      <path class="cls-9" d="M4375,1675c746.38,322.42,1436.29,642.94,1725,950v450c-407.61-237.62-1003.88-703.76-1625-1200,627.77,612.17,1198.52,1185.23,1575,1625v275c-537.05-467.92-1060.06-1041.17-1575-1675,481.98,683.63,877.64,1326.68,1125,1900h-725c-213.81-552.16-361.53-1210.95-475-1925-104.68,717.25-239.6,1393.14-425,2000h-475c237.96-753.22,535.29-1558.15,875-2400Z"/>
      <path class="cls-11" d="M274.45,684.59c-28.9,0-58.15-3.23-86.95-9.59-118.01-26.07-218.18-74.22-289.67-139.25-38.93-35.41-69.1-75.65-89.66-119.6-22.01-47.05-33.17-98.74-33.17-153.65,0-104.21,39.69-209.16,108.9-287.93C-81.52-64.8-41.52-95.82,2.78-117.64c46.61-22.95,95.91-34.59,146.52-34.59,12.65,0,25.5.75,38.2,2.22,90.18,10.47,174.92,59.73,251.87,146.41,76.59,86.27,129.62,192.32,160.63,266.09,19.63,46.72,26.96,94.48,21.77,141.97-4.88,44.68-20.52,87.14-46.47,126.2-30.44,45.81-73.77,84.28-125.33,111.28-53.28,27.89-113.97,42.64-175.52,42.64Z"/>
      <path class="cls-11" d="M600,262.5c100.73,239.67-140.32,472.63-412.5,412.5-222.45-49.14-412.5-184.68-412.5-412.5S-38.8-176.27,187.5-150c198.4,23.03,335.76,229.9,412.5,412.5Z"/>
      <g>
        <path class="cls-10" d="M637.5,2200c-83.47,0-161.95-32.51-220.97-91.53-59.02-59.02-91.53-137.5-91.53-220.97s32.51-161.95,91.53-220.97c59.02-59.02,137.5-91.53,220.97-91.53,67.13,0,131.1,20.96,185,60.63,25.94,19.09,48.71,41.97,67.68,67.99,19.2,26.35,34.08,55.34,44.22,86.19-81.65,32.28-134.41,109.88-134.41,197.69,0,48.67,16.02,94.47,46.34,132.45-57.42,51.62-131.59,80.05-208.84,80.05Z"/>
        <path class="cls-10" d="M934.41,1789.81c-41.02-124.74-158.44-214.81-296.91-214.81-172.59,0-312.5,139.91-312.5,312.5s139.91,312.5,312.5,312.5c80.29,0,153.49-30.29,208.84-80.05-28.99-36.33-46.34-82.36-46.34-132.45,0-89.79,55.69-166.57,134.41-197.69Z"/>
        <path class="cls-10" d="M1012.5,2200c-64.99,0-125.56-29.18-166.16-80.05,65.88-59.23,103.66-143.95,103.66-232.46,0-33.35-5.25-66.22-15.59-97.69,24.86-9.83,51.13-14.81,78.1-14.81,65,0,125.57,29.18,166.18,80.06-2.44,14.83-3.68,29.95-3.68,44.94,0,36.11,6.91,71.25,20.54,104.42-59.82,36.71-95.54,100.48-95.54,170.58,0,1.86.03,3.82.1,6.16-27.6,12.5-57.07,18.84-87.6,18.84Z"/>
        <path class="cls-10" d="M1195.54,2004.42c-13.23-32.2-20.54-67.46-20.54-104.42,0-15.31,1.27-30.31,3.68-44.94-38.94-48.79-98.9-80.06-166.18-80.06-27.57,0-53.92,5.25-78.09,14.81,10.11,30.74,15.59,63.57,15.59,97.69,0,92.3-40.03,175.25-103.66,232.45,38.94,48.78,98.89,80.05,166.16,80.05,31.23,0,60.89-6.74,87.6-18.84-.06-2.05-.1-4.1-.1-6.16,0-72.17,38.23-135.41,95.54-170.58Z"/>
        <path d="M846.34,2119.96c-30.31-37.98-46.34-83.78-46.34-132.46,0-43.46,13.03-85.25,37.68-120.84,24.09-34.78,57.53-61.35,96.72-76.85,10.35,31.47,15.6,64.34,15.6,97.69,0,45.12-9.41,88.65-27.97,129.39-17.93,39.35-43.4,74.03-75.69,103.07h0Z"/>
        <path d="M950,1887.5c0-34.12-5.49-66.95-15.59-97.69-78.72,31.12-134.41,107.9-134.41,197.69,0,50.09,17.34,96.13,46.34,132.45,63.63-57.21,103.66-140.15,103.66-232.45Z"/>
        <path class="cls-3" d="M1499.94,2170.46c-2.4-107.78-92.09-195.46-199.94-195.46-25.92,0-51.17,4.9-75.03,14.56v-.83c.02-.41.02-.82.02-1.23,0-48.67-16.02-94.46-46.32-132.44,10.45-63.58,43.3-121.81,92.49-163.97,49.73-42.62,113.24-66.09,178.83-66.09,73.46,0,142.51,28.6,194.46,80.55s80.55,121,80.55,194.46c0,64.71-22.91,127.56-64.52,176.98-41.1,48.83-98.12,82.03-160.54,93.48h0Z"/>
        <path class="cls-3" d="M1725,1900c0-151.88-123.12-275-275-275-136.57,0-249.87,99.56-271.32,230.06,28.99,36.32,46.32,82.35,46.32,132.44,0,.69-.02,1.38-.03,2.06,23.17-9.38,48.49-14.56,75.03-14.56,108.94,0,197.53,87.1,199.94,195.46,128.03-23.49,225.06-135.64,225.06-270.46Z"/>
        <path class="cls-10" d="M1195.54,2004.42c-13.63-33.18-20.54-68.31-20.54-104.42,0-14.98,1.24-30.1,3.68-44.94,30.31,37.98,46.33,83.77,46.33,132.44,0,.41,0,.82-.01,1.23v.83c-10.19,4.12-20.1,9.12-29.45,14.86h0s0,0,0,0Z"/>
        <path class="cls-10" d="M1195.54,2004.42c9.33-5.73,19.17-10.7,29.43-14.86,0-.69.03-1.37.03-2.06,0-50.09-17.34-96.11-46.32-132.44-2.4,14.63-3.68,29.63-3.68,44.94,0,36.97,7.31,72.22,20.54,104.42Z"/>
        <path d="M1300,2375c-52.35,0-101.85-20.09-139.38-56.57-37.45-36.4-58.94-85.15-60.52-137.27,57.07-25.86,99.63-75.16,116.77-135.26,50.7,80.84,137.85,129.1,233.13,129.1,16.73,0,33.53-1.53,49.94-4.54.03,1.51.06,3.02.06,4.54,0,110.28-89.72,200-200,200Z"/>
        <path d="M1216.87,2045.9c-17.21,60.35-60.43,109.74-116.77,135.26,3.26,107.61,91.5,193.84,199.9,193.84s200-89.54,200-200c0-1.52-.02-3.03-.06-4.54-16.2,2.97-32.89,4.54-49.94,4.54-98.28,0-184.5-51.56-233.13-129.1Z"/>
        <path class="cls-10" d="M1100.1,2181.16c-.07-2.34-.1-4.29-.1-6.16,0-34.82,9.09-69.11,26.28-99.16,16.68-29.15,40.63-53.84,69.26-71.41,5.9,14.35,13.08,28.31,21.33,41.47-17.14,60.11-59.7,109.41-116.77,135.26h0s0,0,0,0Z"/>
        <path class="cls-10" d="M1216.87,2045.9c-8.23-13.12-15.38-26.99-21.33-41.47-57.31,35.17-95.54,98.41-95.54,170.58,0,2.06.04,4.11.1,6.16,56.34-25.53,99.56-74.91,116.77-135.26Z"/>
        <path class="cls-10" d="M1450,2175c-47.42,0-94.16-12.27-135.18-35.47-39.77-22.5-73.64-54.88-97.95-93.63,5.19-18.21,7.92-37.16,8.1-56.33,23.86-9.67,49.1-14.56,75.03-14.56,52.63,0,102.32,20.28,139.92,57.1,37.54,36.76,58.86,85.9,60.02,138.37-16.41,3.01-33.21,4.54-49.94,4.54Z"/>
        <path class="cls-10" d="M1300,1975c-26.53,0-51.86,5.18-75.03,14.56-.19,19.52-2.99,38.41-8.1,56.33,48.63,77.54,134.85,129.1,233.13,129.1,17.06,0,33.75-1.57,49.94-4.54-2.41-108.36-91-195.46-199.94-195.46Z"/>
        <path class="cls-10" d="M1216.87,2045.9c-8.26-13.17-15.43-27.12-21.33-41.47,9.35-5.74,19.25-10.74,29.43-14.86-.18,19.17-2.91,38.13-8.1,56.33h0s0,0,0,0Z"/>
        <path class="cls-10" d="M1216.87,2045.9c5.11-17.92,7.92-36.81,8.1-56.33-10.26,4.16-20.1,9.13-29.43,14.86,5.95,14.49,13.1,28.35,21.33,41.47Z"/>
      </g>
      <polygon class="cls-15" points="2875 700 2975 700 3075 375 2775 350 3075 375 2975 700 2875 700"/>
      <polyline class="cls-15" points="2775 350 3075 375 2975 700 2875 700"/>
      <polygon points="3685 940 3765 940 3845 680 3605 660 3845 680 3765 940 3685 940"/>
      <polyline points="3605 660 3845 680 3765 940 3685 940"/>
      <path class="cls-7" d="M2275,2600h100s100-325,100-325c-74.78-18.69-150.35-28.09-225.52-28.09-24.89,0-49.72,1.03-74.48,3.09h0c24.88-2.08,50.12-3.13,75-3.13s50.12,1.05,75,3.12c24.88,2.07,50.12,5.23,75,9.38s50.12,9.4,75,15.62l-100,325h-100Z"/>
      <path class="cls-7" d="M2175,2250c100-8.33,200,0,300,25l-100,325h-100"/>
      <polygon points="2925 3500 3025 3500 3125 3175 2825 3150 3125 3175 3025 3500 2925 3500"/>
      <polyline points="2825 3150 3125 3175 3025 3500 2925 3500"/>
      <path d="M1465,2960h120c3.76-30.96,9.25-62.91,16.31-94.97,6.94-31.54,15.6-64.08,25.74-96.71,9.97-32.08,21.65-65.18,34.72-98.37,12.84-32.6,27.38-66.23,43.23-99.95-13.3,2.11-27.14,3.78-41.13,4.96-13.72,1.16-27.98,1.88-42.38,2.15-27.9.52-57.58-.66-88.22-3.5-29.24-2.71-60.31-7.01-92.35-12.8-30.34-5.48-62.61-12.48-95.91-20.81h0c99.46,24.87,186.59,37.21,263.62,37.21,34.04,0,66.09-2.41,96.38-7.21-64.96,138.23-105.34,269.44-120,390h-120Z"/>
      <path d="M1345,2540c130,32.5,252.05,47.12,360,30-63.11,134.28-104.75,264.58-120,390h-120"/>
      <polygon class="cls-7" points="5580 1945 5720 1945 5860 1490 5440 1455 5860 1490 5720 1945 5580 1945"/>
      <polyline class="cls-7" points="5440 1455 5860 1490 5720 1945 5580 1945"/>
      <polygon points="1850 2200 1875 2000 2150 1850 2200 2000 2000 2050 2050 2200 1850 2200"/>
      <polygon points="1875 2000 2150 1850 2200 2000 2000 2050 2050 2200 1850 2200 1875 2000"/>
      <path class="cls-9" d="M2062.5,1150c-75.82,0-137.5-61.68-137.5-137.5s61.68-137.5,137.5-137.5,137.5,61.68,137.5,137.5-61.68,137.5-137.5,137.5Z"/>
      <circle class="cls-9" cx="2062.5" cy="1012.5" r="137.5"/>
      <polygon class="cls-8" points="4425 825 4375 650 5050 575 4975 950 4425 825"/>
      <polygon class="cls-8" points="4375 650 5050 575 4975 950 4425 825 4375 650"/>
      <path class="cls-5" d="M6250,1925c-289.03-349.16-560.21-691.19-806-1016.58-260.55-344.92-502.45-684.2-719-1008.42h25s1550,2000,1550,2000l-50,25h0Z"/>
      <path class="cls-5" d="M4725-100c446.98,669.25,962.01,1344.87,1525,2025l50-25L4750-100h-25Z"/>
      <g>
        <g>
          <path class="cls-11" d="M3587.5,2750c-72.38,0-144.58-15.54-203.29-43.75-51.94-24.96-84.21-56.09-84.21-81.25,0-12.67,32.19-43.76,84.21-71.88,36.7-19.84,111.92-53.12,203.29-53.12s166.59,33.28,203.29,53.12c52.01,28.12,84.21,59.2,84.21,71.88s-32.19,43.76-84.21,71.88c-36.7,19.84-111.92,53.12-203.29,53.12Z"/>
          <path class="cls-11" d="M3875,2625c0,25-128.72,125-287.5,125s-287.5-75-287.5-125c0-25,128.72-125,287.5-125s287.5,100,287.5,125Z"/>
          <path class="cls-15" d="M3587.5,2750.5c-72.46,0-144.73-15.55-203.51-43.8-52.12-25.04-84.49-56.35-84.49-81.7,0-12.82,32.29-44.11,84.47-72.32,36.74-19.86,112.05-53.19,203.53-53.19s166.79,33.32,203.53,53.19c52.17,28.2,84.47,59.5,84.47,72.32s-32.29,44.11-84.47,72.32c-36.74,19.86-112.05,53.19-203.53,53.19ZM3587.5,2500.5c-91.26,0-166.39,33.25-203.05,53.06-50.21,27.14-83.94,58.85-83.94,71.43,0,24.96,32.16,55.92,83.92,80.8,58.65,28.18,130.77,43.7,203.08,43.7,91.26,0,166.39-33.25,203.05-53.06,50.21-27.14,83.94-58.85,83.94-71.43s-33.73-44.29-83.94-71.43c-36.66-19.82-111.79-53.06-203.05-53.06Z"/>
          <path class="cls-15" d="M3587.5,2750.5c-72.46,0-144.73-15.55-203.51-43.8-52.12-25.04-84.49-56.35-84.49-81.7,0-12.82,32.29-44.11,84.47-72.31,36.74-19.86,112.04-53.19,203.53-53.19s166.79,33.32,203.53,53.19c52.17,28.2,84.47,59.5,84.47,72.31s-32.29,44.11-84.47,72.31c-36.74,19.86-112.04,53.19-203.53,53.19ZM3587.5,2500.5c-91.27,0-166.39,33.25-203.06,53.06-50.21,27.14-83.94,58.85-83.94,71.44,0,24.96,32.16,55.92,83.92,80.8,58.65,28.18,130.77,43.7,203.08,43.7,91.27,0,166.39-33.25,203.06-53.06,50.21-27.14,83.94-58.85,83.94-71.44s-33.73-44.29-83.94-71.44c-36.66-19.82-111.79-53.06-203.06-53.06Z"/>
        </g>
        <g>
          <path class="cls-17" d="M3587.5,2725c-48.25,0-87.5-39.25-87.5-87.5s39.25-87.5,87.5-87.5,87.5,39.25,87.5,87.5-39.25,87.5-87.5,87.5Z"/>
          <circle class="cls-17" cx="3587.5" cy="2637.5" r="87.5"/>
          <path class="cls-15" d="M3587.5,2725.5c-48.52,0-88-39.48-88-88s39.48-88,88-88,88,39.48,88,88-39.48,88-88,88ZM3587.5,2550.5c-47.97,0-87,39.03-87,87s39.03,87,87,87,87-39.03,87-87-39.03-87-87-87Z"/>
          <path class="cls-15" d="M3587.5,2725.5c-48.52,0-88-39.48-88-88s39.48-88,88-88,88,39.48,88,88-39.48,88-88,88ZM3587.5,2550.5c-47.97,0-87,39.03-87,87s39.03,87,87,87,87-39.03,87-87-39.03-87-87-87Z"/>
        </g>
      </g>
      <g>
        <g>
          <path class="cls-11" d="M1512.5,1350c-72.38,0-144.58-15.54-203.29-43.75-51.94-24.96-84.21-56.09-84.21-81.25,0-12.67,32.19-43.76,84.21-71.88,36.7-19.84,111.92-53.12,203.29-53.12s166.59,33.28,203.29,53.12c52.01,28.12,84.21,59.2,84.21,71.88s-32.19,43.76-84.21,71.88c-36.7,19.84-111.92,53.12-203.29,53.12Z"/>
          <path class="cls-11" d="M1800,1225c0,25-128.72,125-287.5,125s-287.5-75-287.5-125c0-25,128.72-125,287.5-125s287.5,100,287.5,125Z"/>
          <path class="cls-15" d="M1512.5,1350.5c-72.46,0-144.73-15.55-203.51-43.8-52.12-25.04-84.49-56.35-84.49-81.7,0-12.82,32.29-44.11,84.47-72.32,36.74-19.86,112.05-53.19,203.53-53.19s166.79,33.32,203.53,53.19c52.17,28.21,84.47,59.5,84.47,72.32s-32.29,44.11-84.47,72.32c-36.74,19.86-112.05,53.19-203.53,53.19ZM1512.5,1100.5c-91.27,0-166.4,33.25-203.05,53.06-50.21,27.14-83.94,58.85-83.94,71.43,0,24.96,32.16,55.92,83.92,80.8,58.65,28.18,130.77,43.7,203.08,43.7,91.27,0,166.4-33.25,203.05-53.06,50.21-27.14,83.94-58.85,83.94-71.43s-33.73-44.29-83.94-71.43c-36.66-19.82-111.79-53.06-203.05-53.06Z"/>
          <path class="cls-15" d="M1512.5,1350.5c-72.46,0-144.73-15.55-203.51-43.8-52.12-25.04-84.49-56.35-84.49-81.7,0-12.82,32.29-44.11,84.47-72.31,36.74-19.86,112.04-53.19,203.53-53.19s166.79,33.32,203.53,53.19c52.17,28.2,84.47,59.5,84.47,72.31s-32.29,44.11-84.47,72.31c-36.74,19.86-112.04,53.19-203.53,53.19ZM1512.5,1100.5c-91.27,0-166.4,33.25-203.06,53.06-50.21,27.14-83.94,58.85-83.94,71.44,0,24.96,32.16,55.92,83.92,80.8,58.65,28.18,130.77,43.7,203.08,43.7,91.27,0,166.4-33.25,203.06-53.06,50.21-27.14,83.94-58.85,83.94-71.44s-33.73-44.29-83.94-71.44c-36.66-19.82-111.79-53.06-203.06-53.06Z"/>
        </g>
        <g>
          <path class="cls-17" d="M1512.5,1325c-48.25,0-87.5-39.25-87.5-87.5s39.25-87.5,87.5-87.5,87.5,39.25,87.5,87.5-39.25,87.5-87.5,87.5Z"/>
          <circle class="cls-17" cx="1512.5" cy="1237.5" r="87.5"/>
          <path class="cls-15" d="M1512.5,1325.5c-48.52,0-88-39.48-88-88s39.48-88,88-88,88,39.48,88,88-39.48,88-88,88ZM1512.5,1150.5c-47.97,0-87,39.03-87,87s39.03,87,87,87,87-39.03,87-87-39.03-87-87-87Z"/>
          <path class="cls-15" d="M1512.5,1325.5c-48.52,0-88-39.48-88-88s39.48-88,88-88,88,39.48,88,88-39.48,88-88,88ZM1512.5,1150.5c-47.97,0-87,39.03-87,87s39.03,87,87,87,87-39.03,87-87-39.03-87-87-87Z"/>
        </g>
      </g>
      <g>
        <polygon class="cls-11" points="5500 125 5375 100 5500 125 5575 25 5525 25 5425 25 5575 25 5500 125"/>
        <polyline class="cls-11" points="5425 25 5525 25 5575 25 5500 125 5375 100"/>
        <polygon class="cls-15" points="5374.9 100.49 5375.1 99.51 5499.79 124.45 5574 25.5 5425 25.5 5425 24.5 5576 24.5 5500.21 125.55 5374.9 100.49"/>
        <polygon class="cls-15" points="5500.21 125.55 5499.9 125.49 5374.9 100.49 5375.1 99.51 5499.79 124.45 5574 25.5 5425 25.5 5425 24.5 5576 24.5 5500.21 125.55"/>
      </g>
      <g>
        <polygon class="cls-11" points="1775 225 1875 200 1875 75 1775 75 1775 75 1875 75 1875 200 1775 225"/>
        <polyline class="cls-11" points="1775 75 1875 75 1875 200 1775 225"/>
        <polygon class="cls-15" points="1774.88 224.52 1874.5 199.61 1874.5 75.5 1775 75.5 1775 74.5 1875.5 74.5 1875.5 200.39 1775.12 225.49 1774.88 224.52"/>
        <polygon class="cls-15" points="1775.12 225.48 1774.88 224.52 1874.5 199.61 1874.5 75.5 1775 75.5 1775 74.5 1875.5 74.5 1875.5 200.39 1775.12 225.48"/>
      </g>
      <g>
        <polygon class="cls-11" points="1325 225 1125 175 1325 225 1350 100 1200 75 1350 100 1325 225"/>
        <polyline class="cls-11" points="1200 75 1350 100 1325 225 1125 175"/>
        <polygon class="cls-15" points="1124.88 175.49 1125.12 174.51 1324.61 224.39 1349.41 100.41 1199.92 75.49 1200.08 74.51 1350.59 99.59 1325.39 225.61 1124.88 175.49"/>
        <polygon class="cls-15" points="1325.39 225.61 1324.88 225.48 1124.88 175.48 1125.12 174.52 1324.61 224.39 1349.41 100.41 1199.92 75.49 1200.08 74.51 1350.59 99.59 1350.49 100.1 1325.39 225.61"/>
      </g>
      <g>
        <polygon class="cls-11" points="1700 425 1600 400 1700 425 1725 300 1575 325 1575 325 1725 300 1700 425"/>
        <polyline class="cls-11" points="1575 325 1725 300 1700 425 1600 400"/>
        <polygon class="cls-15" points="1599.88 400.49 1600.12 399.52 1699.61 424.39 1724.37 300.61 1575.08 325.49 1574.92 324.51 1725.63 299.39 1700.39 425.61 1599.88 400.49"/>
        <polygon class="cls-15" points="1700.39 425.61 1599.88 400.48 1600.12 399.52 1699.61 424.39 1724.37 300.61 1575.08 325.49 1574.92 324.51 1725.63 299.39 1700.39 425.61"/>
      </g>
      <g>
        <polygon class="cls-11" points="1325 450 1400 425 1375 325 1275 375 1275 375 1375 325 1400 425 1325 450"/>
        <polyline class="cls-11" points="1275 375 1375 325 1400 425 1325 450"/>
        <polygon class="cls-15" points="1324.84 449.53 1399.4 424.67 1374.67 325.73 1275.22 375.45 1274.78 374.55 1375.33 324.27 1400.6 425.33 1325.16 450.48 1324.84 449.53"/>
        <polygon class="cls-15" points="1325.16 450.47 1324.84 449.53 1399.4 424.67 1374.67 325.73 1275.22 375.45 1274.78 374.55 1375.33 324.27 1375.48 324.88 1400.6 425.33 1400.16 425.47 1325.16 450.47"/>
      </g>
      <rect class="cls-13" x="975" y="-1050" width="4000" height="6000" transform="translate(4925 -1025) rotate(90)"/>
    </g>
  </g>
</svg>