<?xml version="1.0" encoding="UTF-8"?>
<svg id="Layer_1" data-name="Layer 1" xmlns="http://www.w3.org/2000/svg" xmlns:xlink="http://www.w3.org/1999/xlink" viewBox="0 0 7680 4320">
  <defs>
    <style>
      .cls-1 {
        fill: #fddd18;
      }

      .cls-2 {
        fill: #fc6a01;
      }

      .cls-3 {
        fill: #fff;
      }

      .cls-4, .cls-5 {
        fill: #606060;
      }

      .cls-6 {
        fill: #fb050e;
      }

      .cls-7 {
        fill: none;
      }

      .cls-5, .cls-8 {
        opacity: 0;
      }

      .cls-9 {
        fill: #aa5bba;
      }

      .cls-10 {
        fill: #01ba54;
      }

      .cls-11 {
        clip-path: url(#clippath);
      }

      .cls-12 {
        fill: #f290e7;
      }
    </style>
    <clipPath id="clippath">
      <rect class="cls-7" y="0" width="7680" height="4320"/>
    </clipPath>
  </defs>
  <g class="cls-11">
    <rect class="cls-12" x="-179.24" y="-275.62" width="8093.45" height="4776.82"/>
    <path d="M826.48,784.23c307.28-218.75,649.38-103.78,771.76,250.67,76.99,213.82,75.14,448.78,149.31,663.38,133.23,387.56,432.25,467.18,773.66,607.7,148.84,63.07,296.66,145.5,397.61,274.47,272.51,356.74,21.93,736.36-395.11,770.68-229.25,19.14-414.2-75.35-543-263.11-89.88-127.17-152.48-278.72-245.9-406.96-49.34-68.21-108.1-130.25-176.77-178.94-119.71-86.75-267.8-125.14-414.67-133.43-158.39-10.69-326.99,7.46-482.06-22.12-223.97-39.49-382.77-196.97-393.65-428.03-6.99-161.18,54.52-326.97,119.28-474.66,40.01-89.99,84.05-178.62,131.07-265.14,80.85-146.53,171.73-294.77,308.31-394.4l.16-.11Z"/>
    <path class="cls-4" d="M2416.11,3016.86c85.46-11.72,169.1-40.41,243.97-83.45,93.24-53.41,156.86-138.48,101.57-245.12-20.04-37.98-51.55-70.32-87.14-94.3-90.84-62.12-205.88-62.19-312-32.99-93.85,24.71-184.14,75.06-225.57,165.44-47.26,98.46-22.25,212.53,78.25,264.46,61.21,31.74,133.11,34.55,200.72,25.99l.2-.03Z"/>
    <path class="cls-6" d="M778.43,1203.46c-84.82,91.69-117.37,217.81-141.31,337.81-8.16,42.23-15.21,84.72-20.46,127.41-6.51,53.52-10.2,110.87-1.55,162.63,9.81,63.54,43.05,125.45,102.84,153.85,118.78,55.81,234.48-27.44,323.37-102.88,35.55-29.01,71.35-56.79,110.83-79.6,56.8-33.83,121.31-54.2,182.29-78.72,72.43-28.88,133.9-71.11,159.75-147.67,29.05-85.86,13-186.47-13.46-272.99-43.59-142.34-146.08-277.82-307.28-276.73-68.37.21-135.16,21.03-197.85,47.27-72.8,31.23-143.82,71.78-197.04,129.47l-.14.15Z"/>
    <path d="M4082.75,2450.27c-83.97,0-176.56-17.94-276.79-53.72-88.28-32.68-214.89-90-316.79-177.48-104.86-90.02-161.14-192.31-167.26-304.03-4.68-60.72,2.48-123.61,9.4-184.43,8.3-72.9,16.88-148.29,4.96-219.99-11.63-72.58-55.21-128.54-113.72-146.03-55.34-16.54-113.96,3.42-160.84,54.76-58.56,65.52-89.54,151.55-119.51,234.74-14.33,39.8-29.16,80.95-46.73,118.86-34.37,74.89-85.87,164.48-179.83,192.72-41.24,11.63-81.17,5.85-115.48-16.73-39.02-25.68-66.36-71.58-73.14-122.77-5.45-43.56-.87-89.52,13.59-136.59,12.7-41.33,33.45-84.83,61.67-129.28,53.52-84.31,126.93-161.28,184.9-218.92l.3-.29c95.08-90.24,224.25-202.93,380.45-274,77.82-33.06,165.41-54.6,260.36-64.05,85.09-8.46,178.68-7.45,278.17,3.01,159.34,16.75,332.35,56.2,544.47,124.14,73.3,25.87,132.59,55.86,181.27,91.7,58.39,42.98,100.63,93.41,129.14,154.16,25.54,56.75,42.91,120.55,51.62,189.65,8.07,63.98,8.77,132.72,2.08,204.3-6.22,66.64-18.76,135.2-37.28,203.79-17.48,64.76-39.84,128.05-66.48,188.12-65.67,144.4-164.94,235.67-295.06,271.28-41.64,11.4-86.21,17.09-133.51,17.09ZM3183.97,1357.89c13.01,0,26.03,1.89,38.88,5.73,28.27,8.45,53.74,26.05,73.66,50.89,20.76,25.89,34.85,59.07,40.76,95.94,11.94,71.83,3.35,147.29-4.95,220.26-6.92,60.77-14.07,123.61-9.4,184.25,14.68,267.91,309.16,416.13,483.4,480.64,234.55,83.75,547.09,111.11,704.1-234.12,96.77-218.27,160.74-539.12,50.05-785.04-52.19-111.2-150.64-189.16-309.83-245.33-197.06-63.11-453.53-132.67-702.78-132.67-131.8,0-261.53,19.43-379.5,69.54-156.04,70.99-285.13,183.62-380.16,273.8l-.29.28c-132.67,131.89-282.11,306.1-259.87,483.95,6.74,50.91,33.92,96.54,72.7,122.07,34.05,22.42,73.7,28.15,114.65,16.61,93.57-28.12,144.92-117.48,179.21-192.18,17.55-37.87,32.37-79,46.69-118.78,30-83.28,61.02-169.4,119.71-235.07,36.28-39.73,79.57-60.78,122.99-60.78Z"/>
    <path class="cls-3" d="M1987.43,1232.1c-14.04,286.29,136.53,560.08,367.38,724.51,158.08,118.66,340.69,201.37,502.44,314.01,107.55,73.97,203.43,162.81,282.62,266.87,172.11,221.5,272.31,509.69,489.31,693.51,202.47,176.48,496.2,204.46,706.34,24.55,149.57-127.2,218.36-313.4,257.61-502.97,64.83-332.39,69.64-714.4,329.76-965.04,127.87-131.59,287.86-226.88,432.81-341.7,169.48-130.06,312.14-304.42,366.04-514.34,76.66-269.29-9.52-574.83-287.7-676.62-128.42-48.75-273.36-45.02-403.26-2.7-382.17,118.97-603.53,546.97-1009.16,611.99-381.88,63.78-686.85-232.24-1017.96-363.41-513.59-215.47-996.94,212.2-1016.22,731.14v.19Z"/>
    <path class="cls-1" d="M2444.95,1642.75c-94.57-162.83-138.51-358.78-100.57-543.21,20.27-98.53,69.28-198.59,158.55-244.94,121.8-63.24,276.42-3.37,371.9,95.2,95.49,98.58,149.72,228.65,219.37,346.9,69.65,118.25,166.55,233.39,300.09,265.03,136.85,32.42,279.46-31.5,390.08-118.35,110.62-86.85,201.47-197.13,314.31-281.08,99.86-74.29,215.95-126.64,337.74-152.3,85.28-17.97,179.7-21.45,253.91,24.24,84.18,51.83,123.17,158.21,116.98,256.87-6.19,98.66-50.58,190.89-102,275.32-51.42,84.43-110.86,164.43-152.44,254.12-120.23,259.37-77.42,564.69-153.41,840.29-29.25,106.08-84.28,215.58-184.85,260.25-75.98,33.74-163.87,24-245,5.87-168.34-37.62-333.65-112.15-448.57-240.79-74.48-83.37-124.41-185.16-177.15-283.73s-110.96-197.34-196.98-268.73c-63.39-52.61-140.75-86.13-223.76-88.27-23.08-.6-46.47,1.1-69.04-3.77-75.44-16.3-157.79-105.11-213.13-156.77-76.16-71.1-143.62-151.9-196.02-242.13Z"/>
    <g>
      <path class="cls-3" d="M323.72,2646.29c117,26.41,210.94,115.59,235.4,233.21,29.76,127.9,4.98,260.97,13.65,392.89,5.44,119.16,48.52,239.32,139,320,291.48,257.25,739.63,59.82,1031.26,412.51,88.37,107.8,139.11,257.11,100.63,392.87-69.35,234.86-346.7,283.03-561.58,298.45-170.42,11.99-341.66,18.16-512.55,18.28-154.35-1.24-307.87-10.49-455.01-56.75-565.72-170.93-605.33-826.84-592.77-1325.05,4.23-169.44,10.47-345.98,100.9-492.94,99.74-166.91,315.98-239.64,500.9-193.52l.17.04Z"/>
      <path class="cls-5" d="M769.54,4715.01c-92.83-.75-163.85-4.29-230.26-11.49-83.09-9.01-156.65-23.82-224.89-45.28-68.6-20.73-132.04-49.54-188.53-85.63-53.41-34.12-102.11-75.71-144.74-123.6-40.04-44.98-75.87-96.79-106.49-154.01-28.51-53.27-53.34-112.77-73.8-176.87-81.61-255.66-85.39-554.04-79.56-785.42,2.29-91.82,5.23-174.39,18.13-254.97,15.08-94.21,42.17-172.13,82.84-238.23,24.3-40.66,56.08-76.75,94.46-107.27,36.69-29.17,78.51-52.58,124.3-69.59,90.8-33.71,191.19-39.71,282.68-16.89l.17.04c58.1,13.12,110.88,41.65,152.63,82.53,42.49,41.59,71.24,93.83,83.14,151.06,18.45,79.28,15.9,162.12,13.44,242.24-1.52,49.43-3.09,100.54.21,150.72,6.02,131.67,55.32,245.19,138.84,319.67,132.36,116.82,293.87,139.35,464.85,163.21,99.56,13.89,202.51,28.25,299.04,63.01,52.04,18.73,97.85,41.67,140.06,70.11,47.46,31.98,89.12,70,127.36,116.24,45.65,55.69,79.53,120.05,97.98,186.13,19.96,71.48,20.91,143.13,2.74,207.19-16.39,55.52-45.64,103.89-86.92,143.77-36.48,35.24-83.45,64.88-139.59,88.07-112.61,46.53-245.42,60.5-335.51,66.97-170.71,12.01-343.17,18.16-512.58,18.28ZM209.63,2632.84c-157.58,0-309.28,77.89-386.54,207.19-92.28,149.99-96.82,332.06-100.82,492.7-5.83,231.3-2.06,529.57,79.51,785.09,91.41,286.34,259.18,462.81,512.91,539.47,152.23,47.86,308.58,55.55,454.86,56.73,169.39-.12,341.82-6.27,512.51-18.28,90.03-6.46,222.72-20.42,335.2-66.89,119.15-49.23,195.17-127.01,225.93-231.19,35.05-123.64-3.47-274.01-100.53-392.42-158.96-192.24-365.8-221.1-565.83-249-82.15-11.46-167.1-23.31-245.88-46.61-88.17-26.08-159.97-64.3-219.5-116.83-43.35-38.65-77.5-87.69-101.52-145.76-22.13-53.51-34.8-112.25-37.65-174.6-3.3-50.22-1.73-101.35-.21-150.8,2.46-80.05,5-162.83-13.42-242-23.83-114.59-116.08-205.98-235.02-232.83l-.19-.05c-37.63-9.38-75.89-13.9-113.8-13.9Z"/>
    </g>
    <path class="cls-3" d="M918.62,3179.26c-41.55,76.78-39.27,167.75,22.86,233.09,80.34,83.21,208.22,89.88,317.06,72.23,155.6-25.1,284.62-104.34,352.96-249.68,45.67-95.6,64.07-203.1,70.25-308.59,8-142.33-14.68-312.17-140.66-398.74-48.13-32.86-109.31-46.74-165.61-31.95-78.17,19.49-130.47,88.1-158.57,161.25-22.23,55.66-34.98,117.32-54.72,175.01-20.15,61.23-51.5,118.51-93.78,167.22-50.39,59.59-112.98,110.24-149.69,179.98l-.09.17Z"/>
    <g>
      <path class="cls-1" d="M6057.95,2404.81c85.05-63.22,175.67-110.16,278.19-118.84,134.16-12.19,262.08,55.49,344.43,160.67,235.41,302.37,125.1,764.43-142.31,1011.01-198.81,186.26-470.75,207.05-725.49,260.67-158.71,32.88-310.9,86.61-458.51,153.7-203.23,92.71-406.37,192.77-627.25,235.66-226.29,46.64-461.42,43.82-690.66,15.89-142.22-17.61-284.06-43.27-422.24-81.35-149.07-42.33-319.63-105.7-415.85-226.46-40.2-53.6-49.43-109.13-7.05-154.84,108.71-106.3,376.85-72.72,520.98-56.12,102.38,12.56,204.4,27.16,306.6,40.98,93.9,12.72,188.99,24.46,283.58,26.41,135.51,3.13,265.27-14.44,390.01-63.28,203.72-78.4,365.4-231.36,522.68-378.15,165.11-154.41,326.7-312.62,482.87-476.3,115.78-119.24,227.61-249.15,359.85-349.52l.16-.12Z"/>
      <path class="cls-8" d="M4352.5,4144.3c-99.66,0-205.86-6.79-316.2-20.24-155.27-19.22-293.41-45.84-422.32-81.37-93.29-26.49-165.69-53.14-227.83-83.85-82.71-40.88-144.3-87.58-188.27-142.78-20.98-27.98-32.62-55.11-34.6-80.65-2.14-27.62,7.14-52.8,27.57-74.84,24.91-24.36,60.07-42.97,104.5-55.34,38.04-10.58,84.04-16.9,136.74-18.76,96.36-3.41,197.16,8.24,270.75,16.74l9.41,1.09c73.88,9.07,148.8,19.36,221.26,29.31,27.97,3.84,56.89,7.82,85.35,11.66,90.61,12.27,187.13,24.42,283.52,26.41,10.08.23,20.08.35,29.99.35,132.75,0,250.72-20.88,359.82-63.6,200.01-76.97,359.71-226.05,514.14-370.22l8.38-7.82c177.65-166.14,335.59-321.93,482.85-476.28,26.07-26.85,52.42-54.74,77.89-81.71,88.26-93.45,179.52-190.07,282.02-267.86l.16-.12c98.77-73.42,187.25-111.21,278.45-118.93,64.24-5.83,130.61,6.74,191.9,36.37,58.42,28.24,111.31,71.29,152.97,124.49,56.74,72.89,95.36,157.36,114.78,251.07,18.16,87.63,19.07,180.41,2.72,275.75-31.75,185.13-126.46,361.85-259.86,484.86-39.79,37.28-83.27,68.9-132.92,96.65-44.2,24.71-92.29,45.75-147.02,64.34-101.62,34.5-210.99,54.94-316.77,74.7-42.46,7.93-86.35,16.13-129.02,25.11-148.79,30.82-298.73,81.09-458.4,153.67-20.64,9.42-41.63,19.07-61.93,28.41-180.39,82.96-366.92,168.74-565.43,207.29-107.33,22.12-223.18,34.21-344.31,35.92-10.03.14-20.14.21-30.31.21ZM3467.57,3586.86c-11.85,0-23.67.19-35.44.61-113.65,4.02-194.59,28.85-240.56,73.8-49.59,53.49-23.51,113.37,7.1,154.19,98.81,124.02,274,186.08,415.58,226.28,128.85,35.51,266.95,62.12,422.17,81.34,259.43,31.61,485.29,26.41,690.5-15.88,198.4-38.53,384.87-124.29,565.21-207.22,20.3-9.34,41.3-18.99,61.94-28.41,159.74-72.61,309.75-122.9,458.61-153.73,42.67-8.98,86.58-17.18,129.04-25.12,211.8-39.56,430.81-80.47,596.21-235.43,261.12-240.77,380.58-704.2,142.25-1010.33-87.76-112.08-216.35-172.07-343.99-160.48-91.01,7.71-179.33,45.44-277.94,118.74h0l-.16.12c-102.43,77.74-193.67,174.34-281.9,267.75-25.48,26.97-51.82,54.87-77.9,81.72-147.27,154.36-305.23,310.16-482.89,476.32l-8.38,7.82c-154.51,144.24-314.28,293.39-514.46,370.43-117.37,45.95-245.01,66.66-390.2,63.31-96.44-1.99-193-14.14-283.64-26.41-28.46-3.85-57.38-7.82-85.35-11.66-72.45-9.95-147.37-20.25-221.24-29.31l-9.41-1.08c-64.57-7.46-150.1-17.35-235.16-17.35Z"/>
    </g>
    <g>
      <path class="cls-3" d="M6035.3,1472.59c-23.28,212.73,129.81,349.25,332.3,368.1,196.03,18.2,399.88-41.82,552.33-165.94,67.86-54.73,125.62-120.17,181.16-187.37,58.05-70.8,115.53-142.49,174.46-212.67,100.11-120.69,207.73-246.82,236.79-405.08,28.97-146.7-22.82-363.69-165.43-433.59-112.9-52.73-236.54,18.7-323.64,91.02-55.8,46.3-104.74,99.7-146.72,158.3-54.36,74.8-100.03,162.54-158.98,231.04-26.83,31.27-57.69,59.03-92.66,80.73-97.76,60.93-217.65,72.77-321.58,120.74-141.83,61.75-249.43,200.16-268.01,354.52l-.02.19Z"/>
      <path class="cls-8" d="M6436.31,1844.34c-23.08,0-46.04-1.05-68.76-3.16-112.68-10.49-207.72-56.69-267.62-130.1-52.63-64.49-75.15-146.98-65.13-238.55l.02-.2c9.06-75.28,39.45-148.67,87.88-212.23,47.84-62.78,110.23-112.12,180.42-142.69,44.03-20.32,91.68-34.39,137.77-47.99,62.65-18.5,127.44-37.62,183.75-72.71,33.14-20.56,64.28-47.69,92.55-80.64,35.43-41.17,66.56-90.08,96.67-137.39,19.96-31.36,40.6-63.78,62.28-93.62,42.88-59.86,92.27-113.15,146.8-158.4,52.81-43.85,104.04-74.97,152.29-92.49,63.04-22.9,120.87-22.42,171.88,1.4,34.14,16.73,64.5,42.56,90.27,76.76,23.61,31.33,42.8,68.86,57.05,111.53,26.34,78.88,33.21,170.79,18.39,245.85-28.28,154.01-130.11,276.67-228.59,395.29l-8.31,10.01c-39.73,47.32-79.43,96.09-117.82,143.26-18.54,22.78-37.72,46.34-56.63,69.41-53.12,64.28-111.83,131.47-181.23,187.44-74.57,60.71-164.47,107.89-260,136.43-72.56,21.68-148.85,32.77-223.94,32.77ZM6035.8,1472.65c-9.99,91.3,12.45,173.54,64.91,237.81,59.73,73.19,154.54,119.27,266.94,129.73,23.5,2.18,47.05,3.26,70.54,3.26,175.06,0,347.32-59.9,481.44-169.09,69.33-55.92,128.01-123.07,181.09-187.3,18.91-23.07,38.09-46.63,56.63-69.41,38.39-47.17,78.1-95.95,117.83-143.27l8.3-10c98.4-118.52,200.14-241.08,228.38-394.84,30.62-155.04-28.44-366.04-165.16-433.05-112.97-52.76-238.06,20.34-323.1,90.96-54.46,45.19-103.8,98.42-146.63,158.21-21.66,29.81-42.29,62.22-62.25,93.57-30.13,47.34-61.29,96.29-96.76,137.51-28.34,33.02-59.55,60.22-92.78,80.83-56.42,35.16-121.28,54.31-183.99,72.82-46.05,13.59-93.67,27.65-137.64,47.95-144.31,62.84-249.4,201.84-267.72,354.12l-.02.19h0Z"/>
    </g>
    <g>
      <path class="cls-6" d="M5082.4,2375.85c-112.79,122.04-225.54,251.81-285.6,408.65-23,62.98-38.84,140.5-2.33,200.7,50.78,78.95,155.17,52.61,226.3,14.84,15.73-8.06,31.12-16.89,46.24-26.11,160.49-103.74,316.04-215.54,474.36-322.65,101.65-72.5,232.79-149.88,253.05-283.58,21.34-155.22-133.3-280.41-277.23-294.95-15.37-1.45-30.81-1.54-46.14-.17-109.31,9.75-186.77,91.82-260.9,168.5-42.67,44.76-85.41,89.4-127.61,134.62l-.14.15Z"/>
      <path class="cls-8" d="M4893.92,3036.99c-44.28,0-77.86-17.31-99.86-51.52-16.62-27.4-23.76-60.91-21.23-99.61,1.99-30.45,9.68-63.66,23.51-101.53,60.14-157.06,174.11-288.08,285.7-408.81h0s.14-.16.14-.16c35.9-38.46,72.8-77.15,108.48-114.56l19.13-20.06,4.03-4.17c73.58-76.15,149.67-154.89,257.19-164.48,15.15-1.35,30.71-1.3,46.24.17,42,4.24,85.3,17.92,125.22,39.55,40.55,21.97,75.9,51.28,102.24,84.75,41.08,52.2,58.44,111.4,50.22,171.21-18.16,119.87-125.61,194.76-220.4,260.84-11.4,7.95-22.17,15.46-32.85,23.07-57.79,39.1-116.16,79.48-172.61,118.53-98.25,67.97-199.84,138.25-301.77,204.13-16.74,10.21-31.88,18.75-46.28,26.13-41.84,22.22-84.81,35.15-120.99,36.4-2.05.07-4.09.11-6.1.11ZM5082.77,2376.18c-111.52,120.67-225.42,251.6-285.5,408.49-31.32,85.74-32.09,151.25-2.37,200.26,59.82,93.01,187.83,34.73,225.64,14.66,14.39-7.37,29.5-15.91,46.21-26.09,101.9-65.87,203.49-136.14,301.73-204.11,56.45-39.05,114.83-79.44,172.61-118.53,10.67-7.61,21.45-15.12,32.85-23.07,94.63-65.96,201.89-140.73,219.98-260.16,8.19-59.53-9.11-118.47-50.01-170.45-53.27-67.69-140.16-115.18-226.77-123.93-15.47-1.46-30.96-1.52-46.05-.17-107.15,9.56-183.1,88.17-256.56,164.18l-4.02,4.16-19.13,20.06c-35.68,37.41-72.58,76.09-108.47,114.55l-.14.15h0Z"/>
    </g>
    <g>
      <path class="cls-10" d="M7132.67,2284.56c-30.09,101.61-37.53,210.27-40.94,316.09-3.09,144.21,4.15,291.27,67.33,420.06,67.92,141.45,197.24,235.14,316.36,332.66,84.21,68.18,162.99,142.72,236.45,222.35,122.35,130.57,247.57,283.4,431.26,318.48,137.65,27.83,279.68-33.01,368.48-140.16,175.49-210.35,164.2-508.37,137.08-766.37-22.28-188.45-55.83-382.27-149.24-548.69-154.75-283.61-479.02-424.58-790.66-444-246.11-20.79-499.16,20.63-576.05,289.4l-.06.19Z"/>
      <path class="cls-8" d="M8210.6,3901.4c-22.77,0-45.38-2.23-67.57-6.71-74.41-14.21-145.93-49.19-218.65-106.95-64.32-51.09-121.92-113.42-177.62-173.7-11.58-12.53-23.55-25.48-35.26-37.98-74.74-81.02-154.28-155.81-236.4-222.3-13.13-10.75-26.62-21.64-39.67-32.18-106.36-85.88-216.35-174.69-276.83-300.65-29.13-59.38-48.28-126.24-58.56-204.41-10.24-77.91-10.09-156.3-8.82-215.89,3.34-103.69,10.62-213.76,40.96-316.22l.06-.19c18.38-64.23,47.97-118.64,87.95-161.72,36.43-39.25,82.5-70.17,136.91-91.88,91.66-36.57,206.7-48.4,351.71-36.15,163.28,10.18,320.4,52.71,454.35,122.99,71.81,37.68,136.28,83.05,191.6,134.86,58.86,55.11,107.68,117.83,145.1,186.42,93.97,167.42,127.29,362.74,149.3,548.87,12.77,121.47,23.63,264.13,7.44,401.18-17.81,150.69-65.12,270.27-144.63,365.58-44.61,53.83-102.05,95.62-166.12,120.84-44.18,17.4-90.02,26.2-135.27,26.2ZM7133.15,2284.7c-30.31,102.36-37.58,212.35-40.92,315.97-3.01,140.67,3.05,288.9,67.27,419.83,60.39,125.76,170.28,214.49,276.56,300.31,13.05,10.54,26.54,21.43,39.67,32.18,82.16,66.52,161.73,141.34,236.5,222.39,11.71,12.5,23.68,25.45,35.26,37.98,112.97,122.25,229.78,248.66,395.73,280.35,21.89,4.43,44.16,6.58,66.49,6.58,111.42,0,224.5-53.64,301.51-146.57,169.74-203.45,166.14-488.39,136.96-766-21.99-186.02-55.29-381.22-149.18-548.49-139.53-255.72-434.95-421.6-790.26-443.75-323.82-27.36-512.07,67.19-575.54,289.04l-.06.19h0Z"/>
    </g>
    <g>
      <path d="M5994.22,161.3c83.03,110.52,226.54,155.08,359.16,173.42,281.29,38,574.68-29.57,809.94-187.78,103.13-70.01,199.15-154.63,270.75-256.96,30.53-46.33,64.97-108.74,37.08-158.9-30.69-49.52-107.5-55.7-164.81-59.04-318.11-4.45-636.8,8.01-953.95,32.35-152.53,14.35-365.31,30.3-414.91,203.62-23.46,85.72,3.29,182.18,56.62,253.14l.11.15Z"/>
      <path d="M6508.18,345.57c-52.02,0-103.9-3.46-154.87-10.34-75.97-10.51-142.69-28.07-198.3-52.18-68.84-29.85-123.08-70.72-161.18-121.43l-.11-.15c-27.11-36.06-46.89-77.98-57.2-121.22-10.89-45.64-10.72-91.41.49-132.35,21.54-75.25,75.12-127.54,163.82-159.85,76.14-27.74,163.73-35.93,241-43.15l10.53-.99c338.85-26.01,650.9-36.59,954-32.35,49.87,2.9,133.3,7.76,165.23,59.28,27.58,49.59-5.34,111.25-37.09,159.43-64.75,92.54-155.89,179.04-270.89,257.1-58.24,39.16-120.93,73.3-186.33,101.47-64.67,27.85-132.48,50.08-201.55,66.07-68.99,15.97-139.71,25.81-210.18,29.26-19.11.94-38.25,1.4-57.36,1.4ZM7176.09-328.36c-262.36,0-533.14,10.96-823.66,33.25l-10.52.99c-77.21,7.22-164.73,15.4-240.75,43.09-88.38,32.19-141.76,84.26-163.2,159.18-21.96,80.24-.3,177.07,56.54,252.7l.11.15c68.76,91.52,189.48,149.8,358.83,173.23,50.8,6.86,102.12,10.24,153.42,10.25,232.15,0,464.71-69.19,656.18-197.94,114.9-77.99,205.95-164.4,270.62-256.83,31.59-47.94,64.36-109.27,37.05-158.37-31.64-51.05-114.75-55.89-164.4-58.79-43.19-.6-86.61-.91-130.22-.91Z"/>
    </g>
    <path class="cls-1" d="M3307.95,418.64c155.3,351.11,570.56,325.37,869.3,186.13,178.91-81.99,321.37-219.9,457.87-358.72,62.09-62.51,125.07-124.14,188.91-184.86,84.43-85.36,265.46-225.47,204.73-357.43-46.01-90.46-173.12-126.53-267.22-151.63-319.69-80.76-661.03-76.76-979.34,9.44-142.07,40.33-293.69,88.77-399.34,194.91-85.18,84.61-125.14,203.38-131.93,321.76-6.84,115.61,9.56,234.1,56.93,340.22l.08.18Z"/>
    <path class="cls-1" d="M115.15,203.12c-8.93,97.06,41.81,185.07,141,202.9,64.16,11.68,131.09-8.57,192.07-32.91,65.7-26.54,130.17-57.1,197.84-78.56,23.81-7.73,47.9-14.6,72.18-20.77,178.43-45.49,384.08-54.74,521.91-191.48,36.81-37.24,71.3-89.51,56.84-140.13-24.08-73.15-129.61-81.67-198.21-85.02-68.14-2.91-136.88.56-205.11.6-67.51.32-134.94-3.51-201.89-12.07-41.83-5.19-83.43-11.99-125.1-18.39-49.54-7.53-104.42-15.39-151.06-10.88-100.69,8.21-161.39,77.7-209.9,160.33-19.18,32.58-37.27,66.64-53.56,100.98-18.58,39.24-33.56,82.54-37,125.2l-.02.2Z"/>
    <path class="cls-10" d="M-189.14,935.28c238.42,21.57,502.1,107.64,458.06,399.23-21.41,128.1-85.19,249.62-114.14,377.07-29.53,117.7-35.57,239.79-29.24,360.63,5.66,127.67,20.54,256.7-18.13,379.67-29.01,96.05-132.34,266.91-244.38,254.36-129.68-24.38-125.49-398.45-116.87-506.38,14.2-187.46,79.23-367.11,94.39-554.47,19.33-195.8-18.88-400.24,7.46-594.45,8.47-59.26,23.59-114.69,83.33-137.97"/>
    <g>
      <path class="cls-6" d="M1422.37,84.25c-21.52,157.23,14.14,359.01,168.33,435.79,136.21,64.97,283.24-12.46,404.35-78.28,65.52-35.42,131.54-67.75,201.77-91.88,83.49-29.47,196.44-12.93,253.58-80.19,95.77-112.73,193.82-157.68,280.17-188.12,213.46-75.23,201.49-261.1-53.15-341.85-147.08-47.42-296.9-86.96-447.82-117.28-70.94-14.57-142.14-28.13-213.72-39.24-89.15-13.26-178.69-24.19-262.89-1.56-110.25,28.42-184.28,117.41-234.66,215.47-46.46,89.6-82.32,186.96-95.92,286.93l-.03.2Z"/>
      <path class="cls-5" d="M1701.12,545.06c-39.64,0-76.28-8.18-110.64-24.56-36.84-18.34-68.65-44.76-94.56-78.52-23.58-30.73-42.34-67.57-55.76-109.51-23.61-73.79-30.1-161.97-18.29-248.28l.03-.2c12.48-91.74,44.77-188.33,95.97-287.09,60.96-118.67,140.02-191.25,234.98-215.72,83.13-22.34,171.88-12.02,263.09,1.54,63.29,9.83,131.21,22.3,213.75,39.25,148.07,29.75,298.76,69.21,447.88,117.29,64.11,20.33,116.63,48.86,151.89,82.5,33.06,31.54,50.83,67.15,51.4,102.96.5,31.27-12.32,61.94-37.07,88.7-26.22,28.34-64.26,51.44-113.06,68.64-89.16,31.42-184.78,75.94-279.96,187.97-37.05,43.62-98.55,52.26-158.02,60.62-32.59,4.58-66.29,9.32-95.78,19.73-77.34,26.58-148.42,63.04-201.7,91.85-68.54,37.25-130.64,69.6-196.62,88.23-34.51,9.75-66.93,14.63-97.55,14.63ZM1860.95-430.88c-36.8,0-72.82,3.6-107.84,13.01-94.68,24.4-173.52,96.81-234.34,215.21-51.15,98.66-83.41,195.15-95.87,286.77l-.03.2c-20.78,151.84,10.76,356.95,168.05,435.28,35.94,17.14,72.9,24.21,109.89,24.21,105.42,0,211.05-57.41,294-102.49,53.31-28.82,124.44-65.31,201.84-91.91,29.57-10.44,63.33-15.18,95.97-19.77,59.28-8.33,120.59-16.95,157.4-60.27,43.73-51.47,90.74-92.37,143.73-125.02,50.68-31.23,99.65-50.2,136.65-63.24,94.62-33.34,150.49-91.8,149.47-156.38-.56-35.54-18.23-70.9-51.09-102.25-35.15-33.54-87.54-61.99-151.51-82.27-149.08-48.07-299.73-87.52-447.77-117.26-82.53-16.95-150.43-29.42-213.7-39.24-52.64-7.83-104.47-14.58-154.85-14.58Z"/>
    </g>
    <g>
      <path class="cls-3" d="M6066.77,4036.16c324.89-310.56,693.9-429.14,1138.5-354.61,80.56,12.98,160.37,31.15,238.55,54.43,241.99,72.15,483.57,200.06,618.2,420.14,63.65,104.33,96.46,237.55,31.89,346.96-71.57,119.99-219,168.03-352.01,196.08-251.35,51.16-512.79,49.63-764.37.55-187.32-35.21-369.05-97.57-556.51-130.29-129.79-23.1-262.15-29.71-393.66-20.24-71.04,4.09-148.63,12.83-213.63,4.09-12.71-1.85-24.59-4.54-36.27-9-63.04-23.45-42.57-86.76-19.11-132.69,36.09-69.36,86.06-129.67,138.9-193.7,53.26-63.42,109.27-124.54,169.36-181.59l.15-.14Z"/>
      <path class="cls-8" d="M7361.66,4737.54c-.62,0-1.24,0-1.86,0-127.39-.12-256.04-12.68-382.37-37.32-89.7-16.86-179.57-40.33-266.49-63.02-94.55-24.69-192.33-50.21-290.01-67.26-128.92-22.95-261.32-29.76-393.53-20.24-14.33.83-29.23,1.86-43.64,2.86-58.09,4.04-118.16,8.21-170.1,1.23-14.08-2.05-25.64-4.92-36.38-9.02-19.31-7.18-32.17-18.7-38.21-34.22-9.26-23.79-3.1-56.23,18.84-99.16,35.8-68.8,85.24-128.7,137.58-192.11l1.39-1.68c57.97-69.04,113.38-128.45,169.4-181.64l.15-.14h0c81.18-77.6,166.14-143.87,252.51-196.97,87.05-53.51,178.57-95.52,272.04-124.86,93.88-29.47,192.96-47.17,294.49-52.62,101.66-5.46,209.28,1.18,319.88,19.72,80.67,13,160.95,31.31,238.61,54.45,133.23,39.72,250.81,91.76,349.49,154.66,115.79,73.81,206.29,163.21,268.99,265.71,34.39,56.36,56.55,115.75,64.1,171.77,8.82,65.44-2.02,124.56-32.2,175.71-32.77,54.94-82.88,98.35-153.18,132.71-53.03,25.92-116.32,46.13-199.16,63.61-123.49,25.13-251.45,37.88-380.34,37.88ZM6143.17,4544.52c93.53,0,186.59,8.16,277.94,24.42,97.73,17.05,195.52,42.59,290.09,67.28,86.9,22.69,176.76,46.15,266.43,63.01,254.36,49.62,518.61,49.43,764.17-.55,125.08-26.38,278.09-72.48,351.68-195.85,79.65-134.97,4.23-287.24-31.89-346.44-117-191.28-324.9-332.56-617.91-419.92-77.62-23.12-157.86-41.43-238.49-54.42-439.24-73.64-811.51,42.31-1138.07,354.47h0s-.15.15-.15.15c-55.99,53.16-111.38,112.55-169.32,181.55l-1.38,1.68c-52.31,63.37-101.71,123.23-137.46,191.93-21.8,42.66-27.95,74.83-18.8,98.34,5.93,15.24,18.59,26.57,37.63,33.65,10.68,4.08,22.17,6.93,36.17,8.97,51.83,6.97,111.85,2.8,169.89-1.23,14.41-1,29.31-2.04,43.64-2.86,38.62-2.78,77.28-4.17,115.84-4.17Z"/>
    </g>
    <g>
      <path class="cls-6" d="M2165.18,4055.32c-10.52-83.34-10.56-170.84,13.65-250.01,50.17-172.41,227.18-291.9,401.08-213.78,113.16,50.7,190.2,153.44,275.87,240.96,98.14,102.98,205.1,197.54,319.61,281.96,138.54,104.34,292.67,185.47,438.58,278.54,37.52,24.75,74.38,51.45,106.01,83.32,68.42,67.23,100.26,161.11,6.8,218.94-109.78,64.28-277.75,31.06-399.2,11.86-148.22-26.31-298.19-45.34-448.99-41.29-83.02.63-169.64,11.98-251.08,14.54-87.8,2.64-176.83-11.34-244.57-71.43-62.36-54.51-98.21-132.22-127.71-209.75-41.41-111.09-74.51-226.09-90.01-343.66l-.03-.21Z"/>
      <path class="cls-8" d="M3556.64,4733.47c-3.46,0-6.96-.03-10.5-.09-65.81-1.09-133.37-12.02-192.97-21.66-8.76-1.42-17.33-2.8-25.68-4.12-180.55-32.04-319-44.78-448.9-41.28-46.03.35-93.76,4.04-139.92,7.61-36.81,2.85-74.87,5.79-111.16,6.93-49.54,1.49-92.05-2.5-129.95-12.21-44.83-11.48-83.51-31.45-114.97-59.35-63.16-55.21-98.77-133.53-127.85-209.95-46.56-124.92-76.01-237.36-90.04-343.77l-.03-.21c-12.19-96.51-7.59-180.7,13.67-250.22,27.61-94.87,94.12-174.62,177.92-213.33,34.77-16.06,71.12-24.54,108.03-25.18,39.24-.71,78.19,7.53,115.81,24.43,89.23,39.98,156.84,113.16,222.22,183.92,17.52,18.96,35.63,38.57,53.81,57.14,98.51,103.37,206.02,198.21,319.55,281.91,91.23,68.71,190.85,128.33,287.19,185.98,49.92,29.87,101.54,60.76,151.35,92.54,31.45,20.74,71.93,48.96,106.1,83.39,45.76,44.96,69.26,95.3,64.48,138.1-3.65,32.7-23.09,60.16-57.77,81.62-43.38,25.4-99.2,37.8-170.4,37.8ZM2920.47,4664.76c118.08,0,245.83,13.22,407.19,41.85,8.34,1.32,16.91,2.71,25.67,4.12,120.79,19.54,271.12,43.85,373.19-15.92,34.4-21.28,53.67-48.5,57.29-80.87,4.75-42.5-18.65-92.53-64.19-137.28-34.11-34.37-74.53-62.55-105.94-83.26-49.79-31.76-101.41-62.65-151.32-92.52-96.36-57.67-196.01-117.29-287.28-186.04-113.57-83.73-221.12-178.61-319.67-282.02-18.19-18.58-36.3-38.19-53.82-57.15-65.31-70.69-132.84-143.79-221.89-183.69-73.42-32.98-150.54-32.72-223.01.75-83.54,38.58-149.85,118.1-177.38,212.71-21.22,69.39-25.8,153.44-13.63,249.81l.03.21c14.01,106.33,43.45,218.71,89.98,343.55,29.03,76.29,64.57,154.48,127.57,209.55,54.22,48.1,128.04,71.59,225.21,71.6,6.25,0,12.58-.1,19.02-.29,36.27-1.14,74.32-4.08,111.12-6.93,46.18-3.57,93.92-7.27,139.98-7.61,13.85-.37,27.81-.56,41.89-.56Z"/>
    </g>
    <path class="cls-2" d="M5800.74,3151.01c-51.16,140.79,23.36,229.6,169.71,223.18,112.61-4.83,223.13-50,307.91-124.15,80.72-70.61,138.91-167.81,161.43-272.93,11.91-55.7,10.68-122.94-28.73-166.47-27.06-30.94-70.93-43.05-111.1-36.21-36.12,5.65-68.69,22.15-102.15,40.77-30.79,17.4-61.07,35.76-92.15,52.68-94.04,49.18-188.76,99.85-252.08,187.35-21.81,29.2-40.16,61.33-52.76,95.58l-.07.19Z"/>
    <g>
      <path class="cls-12" d="M6603.66,1266.62c63.79,23.67,99.98,81.07,79.46,147.47-39.11,125.89-255.8,232.41-380.13,190.75-86.3-28.51-108.43-133.23-82.98-213.49,25.07-80.51,92.57-114.26,170.91-128.93,68.43-11.82,146.49-19.81,212.56,4.13l.18.07Z"/>
      <path class="cls-8" d="M6364.59,1614.49c-22.67,0-43.55-3.07-61.76-9.18-50.8-16.78-73.56-56.93-83.71-87.66-12.87-38.96-12.72-85.05.42-126.46,11.7-37.58,33.8-67.67,65.67-89.42,27.29-18.62,61.84-31.66,105.62-39.85,63.49-10.97,145.05-20.41,212.82,4.15l.19.07c67.36,25,99.41,84.51,79.76,148.09-17.92,57.68-75.49,116.11-154,156.3-38.46,19.69-79.24,33.49-117.93,39.9-16.3,2.7-32.08,4.05-47.08,4.05ZM6503.59,1251.61c-39.44,0-78.6,5.43-112.59,11.3-94.52,17.69-148.71,58.55-170.52,128.58-26.18,82.56-2.42,184.76,82.66,212.87,18.05,6.05,38.71,9,60.97,9,50.46,0,109.22-15.15,165.03-43.71,78.27-40.07,135.66-98.28,153.5-155.71,19.49-63.04-12.32-122.06-79.16-146.86l-.19-.07c-31.32-11.35-65.62-15.41-99.71-15.41Z"/>
    </g>
    <g>
      <path class="cls-6" d="M6877.19,1137.34c-3.84-24.68-4.37-49.77,0-74.4,11.95-65.32,50.4-124.23,83.86-181.12,31.02-51.25,62.09-102.22,93.16-153.37,22.54-35.82,44.12-77.31,77.61-101.3,22.93-16.46,49.77-16.59,71.93.39,16.85,11.98,32.82,35.3,42.77,56.57,18.12,38.24,27.92,80.44,30.96,122.89,12.5,167.24-84.42,320.09-202.62,430.2-37.87,34.47-105.23,92.28-148.46,38.37-25.97-32.46-41.56-92.72-49.18-138.01l-.03-.2Z"/>
      <path class="cls-8" d="M6969.23,1298.06c-1.45,0-2.89-.05-4.32-.17-15.03-1.18-28.12-8.59-38.9-22.03-29.73-37.16-44.37-109.06-49.29-138.24l-.03-.21c-4.1-26.37-4.1-51.46.01-74.57,10.64-58.16,42.16-111.08,72.64-162.27,3.79-6.37,7.57-12.71,11.28-19.02,20.11-33.23,40.58-66.89,60.38-99.45,10.93-17.97,21.85-35.94,32.78-53.93,3.69-5.86,7.43-12,11.04-17.93,18.98-31.16,38.61-63.39,66.71-83.52,23.29-16.71,50.4-16.56,72.53.4,18.08,12.85,34.03,37.74,42.92,56.75,17.35,36.62,27.78,78.02,31,123.07,5.84,78.14-11.77,157.8-52.35,236.79-34.6,67.35-86.62,134.37-150.43,193.81-21.85,19.89-66.48,60.51-105.97,60.51ZM7167.91,615.32c-12.16,0-24.44,4.07-35.8,12.23-27.93,20.01-47.5,52.15-66.43,83.23-3.62,5.94-7.35,12.07-11.04,17.94-10.92,17.99-21.85,35.96-32.78,53.92-19.8,32.55-40.27,66.22-60.38,99.44-3.71,6.31-7.49,12.65-11.28,19.02-30.44,51.11-61.91,103.95-72.51,161.93-4.09,22.99-4.09,47.97,0,74.23l.03.2c4.9,29.1,19.49,100.8,49.08,137.78,10.6,13.22,23.45,20.5,38.2,21.66,1.41.11,2.83.16,4.25.16,39.1,0,83.53-40.45,105.28-60.25,81.9-76.3,217.12-233.6,202.46-429.79-3.21-44.92-13.61-86.21-30.91-122.72-8.84-18.9-24.68-43.62-42.61-56.37-10.97-8.41-23.19-12.62-35.55-12.62Z"/>
    </g>
    <path class="cls-10" d="M4945.19,684.99c-168.25,41.36-268.64,211.17-288.84,374.71-10.2,77.86-9.12,165.56,32.5,233.62,49.36,82.15,151.97,104.55,242.56,106.81,65.87,1.47,134.87-5.04,192.62-38.56,69.67-40.16,105.57-115.09,127.52-191.02,11.41-39.52,19.85-80.04,24.72-120.85,9.56-78.98,2.63-162.61-34.75-233.88-56.02-110.52-177.15-161.28-296.15-130.87l-.19.05Z"/>
    <g>
      <path class="cls-1" d="M5345.59,423.33c-57.12,53.93-67.99,143.3-66.28,219.32,2.12,53.38,15.65,112.05,61.99,143.4,43.17,28.69,97.09,25.06,147.44,12.68,56.19-14.57,110.85-40.2,142.41-87.47,35.81-53.38,34.63-124.48,13.75-183.49-13.59-38.4-36.59-72.14-68.5-96.83-63.91-50.01-167.52-66.44-230.67-7.74l-.14.12Z"/>
      <path class="cls-8" d="M5421.02,808.39c-31.52,0-57.98-7.29-80-21.92-38.54-26.07-59.47-74.44-62.22-143.79-1.01-44.86,2.72-84.59,11.09-118.08,10.71-42.87,29.34-77.06,55.35-101.62l.14-.13c63.37-58.89,167.37-42.32,231.32,7.71,30.92,23.92,54.67,57.48,68.67,97.05,23.7,66.96,18.54,135.72-13.8,183.93-27.15,40.66-75.16,70.16-142.7,87.67-24.85,6.11-47.41,9.17-67.84,9.17ZM5345.93,423.7c-46.17,43.59-68.42,117.25-66.12,218.94,2.73,69,23.52,117.12,61.77,142.99,36.04,23.95,84.14,28.08,147.04,12.61,67.29-17.45,115.11-46.81,142.12-87.26,32.17-47.95,37.29-116.38,13.69-183.04-13.94-39.39-37.57-72.8-68.34-96.6-63.62-49.78-167.05-66.29-230.03-7.77l-.14.13h0Z"/>
    </g>
    <path class="cls-9" d="M3770.91,3126.13c70.3,61.78,165.11,88.51,257.38,91.88,63.37,1.96,126.82-7.11,184.71-32.33,93-39.22,169.03-132.32,159.92-236.59-9.85-112.36-109.74-183.48-211.61-210.37-47.83-13.1-97.94-18.88-147.72-21.54-56.82-2.63-115.4-2.39-169.08,15.44-23.58,7.83-46.03,19.11-66.05,33.83-31.53,23.07-57.19,54.73-73.63,89.96-45.66,95.44-12.62,201.75,65.93,269.58l.15.13Z"/>
    <g>
      <path class="cls-6" d="M3764.21,2105.09c127.07,97.42,309.4,55.06,413.55-56.53,77.93-80.25,120.65-188.21,137.38-297.72,19.78-126.76,8.18-247.08-142.17-270.08-25.97-4.2-52.78-5.43-79.16-4.97-83.59,1.59-166.04,19.71-230.54,71.81-51.35,40.79-88.41,96.6-120.8,153.12-30.38,53.79-58.94,113.05-68.21,172.4-14.91,87.34,19.31,177.74,89.8,231.85l.15.12Z"/>
      <path class="cls-8" d="M3928.39,2160c-20.68,0-40.97-2.15-60.71-6.46-38.12-8.32-73.04-24.49-103.78-48.05l-.16-.12c-34.52-26.5-61.18-62.36-77.08-103.68-15.8-41.05-20.26-85.54-12.9-128.65,9.89-63.35,41.68-125.5,68.27-172.57,29.75-51.92,67.38-110.73,120.93-153.27,30.37-24.53,66.81-43.02,108.29-54.94,36.24-10.41,77.47-16.12,122.56-16.98,29.44-.51,55.36,1.12,79.25,4.98,53.01,8.11,92.33,29.21,116.88,62.72,32.7,44.65,40.87,110.73,25.71,207.93-18.55,121.4-66.1,224.45-137.52,297.99-51.83,55.54-124.17,94.47-198.46,106.8-17.28,2.87-34.41,4.3-51.27,4.3ZM3764.52,2104.69c131.41,100.75,313.13,50.4,412.88-56.48,71.28-73.4,118.74-176.26,137.26-297.45,15.12-96.92,7.01-162.76-25.53-207.18-24.38-33.29-63.48-54.26-116.22-62.33-23.84-3.85-49.7-5.48-79.08-4.97-97.49,1.85-172.8,25.31-230.24,71.7-53.41,42.44-90.98,101.15-120.68,152.98-26.55,46.99-58.28,109.04-68.15,172.23-14.9,87.33,20.27,178.15,89.61,231.38l.16.12h0Z"/>
    </g>
    <g>
      <path class="cls-3" d="M1738.97,328.05c43.17,37.38,110.82,31.7,163.79,17.21,151.3-42.33,284.07-148.04,361.89-283.07,44.05-76.56,83.1-188.01,14.32-261.14-50.26-51.57-137.47-70.24-207.43-56.74-77.64,14.85-127.73,78.28-170.56,140.9-34.47,50.43-68.14,101.52-101.57,152.63-47.6,75.25-143.47,211.68-60.57,290.11l.13.11Z"/>
      <path class="cls-4" d="M1827.34,356.76c-31.28,0-63.85-6.81-88.7-28.33l-.13-.11c-18.32-17.33-29.06-38.74-31.94-63.64-2.47-21.42.82-46.14,9.78-73.47,16.44-50.15,49.44-101.71,73.53-139.35,3.18-4.97,6.23-9.74,9.11-14.29,31.82-48.64,66.14-100.8,101.58-152.64,41.28-60.35,91.94-126,170.88-141.1,35.22-6.8,74.75-5.38,111.32,3.97,39.22,10.04,72.61,28.33,96.56,52.9,73.61,78.26,22.67,197.58-14.25,261.74-38.45,66.71-91.53,127.73-153.51,176.44-62.66,49.24-134.81,86.2-208.67,106.86-19.54,5.35-47,11.02-75.55,11.02ZM1739.29,327.68c47.19,40.85,122.59,28.25,163.33,17.1,148.26-41.48,283.43-147.21,361.59-282.84,36.78-63.92,87.55-182.77,14.39-260.54-46.62-47.83-131.73-71.11-206.97-56.59-78.57,15.03-129.07,80.5-170.24,140.69-35.43,51.84-69.75,103.99-101.56,152.62-2.87,4.54-5.93,9.32-9.11,14.29-24.06,37.6-57.02,89.1-73.42,139.13-19.43,59.25-12.27,103.75,21.88,136.06l.11.1Z"/>
    </g>
    <g>
      <path class="cls-9" d="M3533.35,383.51c23.73,42,74.22,62.49,121.61,60.05,93.8-2.53,240.04-98.19,210.42-205.19-6.97-24.77-23.13-46.42-43.15-62.44-58.58-46.99-170.99-62.34-233.31-16.77-59.37,42.43-93.92,159.98-55.67,224.18l.09.16Z"/>
      <path class="cls-8" d="M3647.51,444.25c-21.6,0-43.51-4.74-62.44-13.6-22.82-10.68-40.85-26.9-52.16-46.9l-.09-.16c-17.91-30.06-21.13-74.03-8.83-120.63,11.82-44.77,35.98-83.73,64.64-104.21,29.28-21.41,71.32-30.79,118.39-26.42,44.32,4.12,86.42,19.87,115.52,43.21,21.36,17.08,36.75,39.35,43.32,62.69,9.61,34.71,1.28,71.18-24.09,105.48-20.18,27.28-50.92,52.58-86.56,71.23-34.3,17.96-69.9,28.3-100.24,29.11-2.48.13-4.97.19-7.47.19ZM3684.77,132.29c-37.78,0-71.14,9.43-95.54,27.28-28.47,20.35-52.49,59.1-64.26,103.65-12.23,46.34-9.06,90.03,8.72,119.87l.1.17c20.89,36.98,64.77,60,113.25,60,2.62,0,5.25-.07,7.9-.2,64.15-1.73,145.86-45.63,186.03-99.94,25.18-34.04,33.45-70.21,23.93-104.61-6.51-23.14-21.78-45.22-42.98-62.18-28.95-23.22-70.86-38.89-114.99-42.99-7.53-.7-14.93-1.05-22.17-1.05Z"/>
    </g>
    <g>
      <path class="cls-6" d="M4098.58,223.91c5.15,47.69,17.34,93.6,46.79,131.14,55.96,72.26,154.83,69.4,229.31,26.97,65.8-36.37,119.24-91.82,169.08-147.42,75.38-86.01,140.42-180.7,173.16-287.87,15.76-51.71,21.38-103.62-38.01-125.44-23.99-9.36-55.41-13.38-83.04-15.22-25.08-1.69-50.7-2.53-75.81-2.65-56.86-.35-112.19,4.2-166.75,13.31-63.91,10.67-129.22,27.38-174.59,72.37-76.29,73.91-89.37,233.85-80.17,334.63l.02.2Z"/>
      <path class="cls-8" d="M4266.34,412.52c-4.47,0-8.9-.16-13.3-.48-44.51-3.27-81.88-22.87-108.07-56.69-25.87-32.97-40.77-74.72-46.89-131.39l-.02-.2c-5.28-57.78-2.35-122.48,8.03-177.53,13.2-70.01,38.2-124.48,72.29-157.5,46.27-45.88,114.35-62.4,174.86-72.51,54.95-9.18,111.08-13.66,166.83-13.32,25.95.12,51.47,1.01,75.84,2.65,35.28,2.35,63.27,7.49,83.19,15.26,60.79,22.34,53.48,76.26,38.31,126.05-15.55,50.9-38.66,100.62-70.65,151.99-27.46,44.1-61.02,88.6-102.62,136.06-46.43,51.79-101.62,110.17-169.21,147.53-34.39,19.59-72.46,30.07-108.59,30.07ZM4099.08,223.85c6.1,56.47,20.94,98.06,46.69,130.88,58,74.91,159.2,66.42,228.67,26.84,67.46-37.28,122.58-95.59,168.96-147.32,89.2-101.78,144.19-193.19,173.06-287.69,15.04-49.35,22.32-102.77-37.71-124.83-19.83-7.74-47.72-12.85-82.9-15.19-24.36-1.64-49.85-2.53-75.78-2.65-55.69-.34-111.77,4.13-166.67,13.3-60.35,10.08-128.25,26.54-174.32,72.23-80.17,77.67-88.02,246.63-80.02,334.23l.02.19h0Z"/>
    </g>
    <path class="cls-9" d="M7231.02,1666.36c58.39,98.26,184.89,95.91,259.99,18.07,58.23-58.77,82.56-146.5,80.58-230.33-1.6-39.44-8.32-89.21-37.67-116.57-41-35-100,1.37-140.83,26.16-66.25,42.72-141.82,88.16-171.9,164.22-17.76,44.54-14.71,96.71,9.73,138.27l.1.17Z"/>
    <g>
      <path class="cls-9" d="M7653.03,2226.26c-79.16,3.08-169.65,18.1-219.39,85.16-29.33,39.71-32.59,90.12-10.2,133.84,20.76,41.5,59.03,74.61,98.13,101.54,35.88,24.47,78.52,46.98,119.67,52.98,31.58,4.94,64.99-.47,91.68-18.51,60.2-41.27,73.51-119.64,76.89-188.6,1.01-48.89-.04-93.44-30.08-128.99-32.37-35.14-77.55-38.17-126.49-37.42h-.21Z"/>
      <path class="cls-8" d="M7663.73,2602.06c-7.42,0-14.97-.59-22.57-1.78-35.49-5.18-75.83-23.03-119.87-53.06-48.67-33.52-80.82-66.79-98.29-101.73-22.82-44.56-18.99-94.79,10.24-134.36,52.58-70.89,150.61-82.67,219.77-85.37h.22c46.03-.71,93.74,1.61,126.87,37.58,29.69,35.13,31.25,79.36,30.21,129.34-2.12,43.13-7.57,76.43-17.16,104.83-12.75,37.72-32.35,65.26-59.94,84.17-19.82,13.39-43.91,20.37-69.47,20.37ZM7653.05,2226.76c-68.96,2.69-166.69,14.42-219.01,84.96-29,39.26-32.8,89.1-10.15,133.31,17.39,34.78,49.44,67.93,97.96,101.35,43.92,29.95,84.11,47.74,119.46,52.9,33.54,5.25,65.97-1.29,91.33-18.43,61.85-42.4,73.46-122.85,76.67-188.21,1.03-49.76-.51-93.79-29.96-128.65-32.87-35.68-78.39-37.97-126.1-37.25h-.2Z"/>
    </g>
    <path class="cls-3" d="M7420.63,2977.22c-23.48,59.23-8.04,123.24,26.38,175.92,30.68,47.32,73.21,88.82,119.97,120.91,89.89,63.03,199,70.14,269.08-23.29,37.59-50.74,49.29-117.25,41.41-179.2-7.68-62.27-33.04-121.04-66.12-174.4-33.99-52.87-73.11-108.37-134.86-118.3-42.94-6.07-82.4,15.1-116.94,39.84-54.79,41.76-113.33,94.32-138.86,158.34l-.07.18Z"/>
    <path class="cls-6" d="M6434.91,4666.25c19.25-85.22,37.44-170.6,58.68-255.31,23.71-93.72,54.03-187.08,104.22-270.1,108.46-183.84,302.33-271.93,503.45-178.95,142.69,66.31,236.26,207.14,277.62,355.88,38.86,135.12,37.4,307.37-89.7,394.76-80.02,55.62-184.12,66.17-280.11,69.86-83.3,2.3-167.88-.98-249.17-18.47-88.57-17.96-170.08-59.59-252.86-93.56-47.1-19.19-95.55-34.68-144.17-49.38"/>
    <g>
      <path class="cls-2" d="M584.14,4144.48c71.72-130.31,190.17-238.96,335.73-277.38,97.8-26.31,205.34-18.7,296.17,27.07,95.12,47.18,165.8,131.4,219.86,221.95,72.89,121.03,128.37,292.19,5.84,400.45-119.55,99.58-288.73,57.04-429.25,36.1-58.47-9.02-117.12-16.12-176.28-17.12-29.94-.6-60,.25-89.93,1.63-62.25,2.23-127.64,9.71-178.36-8.3-36.55-12.91-58.05-41.39-64.26-79.72-13.65-93.76,36.11-222.68,80.4-304.5l.1-.18Z"/>
      <path class="cls-8" d="M1240.65,4580.3c-60.01,0-121.75-10.04-179.99-19.5-16.71-2.72-32.5-5.28-48.26-7.63-47.9-7.39-111.22-16.02-176.21-17.11-25.96-.52-54.53,0-89.9,1.63-10.61.38-21.49.92-32,1.45-51.32,2.56-104.38,5.2-146.55-9.77-35.81-12.64-58.15-40.35-64.59-80.12-13.21-90.75,32.89-216.96,80.45-304.82l.1-.18c77.31-140.47,199.79-241.66,336.04-277.62,49.49-13.31,100.25-17.86,150.87-13.51,52.04,4.47,101.04,18.14,145.65,40.62,44.49,22.07,86.7,53.97,125.46,94.82,33.25,35.03,65.07,77.87,94.6,127.32,30.11,50.01,67.79,126.2,76.27,205.22,8.68,80.94-15.04,146.84-70.52,195.86-58.29,48.56-128.58,63.35-201.41,63.35ZM816.39,4534.86c6.81,0,13.4.06,19.83.19,65.05,1.09,128.41,9.73,176.34,17.12,15.76,2.35,31.55,4.92,48.27,7.63,128.73,20.92,274.63,44.64,380.59-43.62,55.21-48.78,78.83-114.39,70.18-195-8.46-78.83-46.07-154.89-76.13-204.81-64.39-107.84-136.24-180.38-219.65-221.75-87.64-44.18-195.46-54.03-295.81-27.04-135.98,35.9-258.24,136.91-335.42,277.14l-.1.18c-47.48,87.71-93.52,213.69-80.34,304.18,6.38,39.38,28.49,66.81,63.94,79.33,41.98,14.91,94.95,12.27,146.16,9.72,10.52-.52,21.4-1.07,32.01-1.45,26.64-1.23,49.42-1.83,70.14-1.83Z"/>
    </g>
    <path class="cls-2" d="M2252.51,772.12c-48.43,37.54-91.3,81.66-119.49,135.86-34.23,64.41-41.08,144.68-2.8,208.08,61.81,103.24,197.9,118.54,308.42,109.85,183.03-14.4,333.95-42.1,514.6-198.4,57.45-49.7,106.31-115.97,121.3-191.33,26.53-122.28-67.09-246.25-184.33-276.68-82.64-22.15-163.99,8.25-243.56,36.35-68.49,25.29-138.62,45.98-206.78,72.16-66.7,26.01-130.49,60.28-187.21,103.99l-.16.13Z"/>
    <path d="M2518.43,853.33c-67.94,21.06-153.85,49.39-174.62,124.57-9.95,37.81,7.36,77.03,37.92,101.21,25.81,21.1,59.35,33.19,92.48,38.11,94.32,13.81,196.93-25,267.17-87.78,87.81-80.17,51.49-172.64-56.29-205.03-48.62-14.33-102.04-12.03-149.7,5.22-37.85,13.46-71.31,35.44-104.9,57.95"/>
    <path class="cls-9" d="M4840.67,1151.96c-16.6,79.97,23.32,159.97,110.79,163.2,43.28,1.46,85.91-16.25,121.83-39.73,66.67-43.3,130.41-124.02,100.65-206.64-37.01-95.26-174.27-107-249.61-51.67-43.58,30.98-73.24,81.52-83.62,134.63l-.04.21Z"/>
    <path d="M3992.48,1371.43c11.13-21.32,11.92-47.03-2.81-66.41-25.05-31.58-63.48-36.86-106.53-41.25-33.25-2.65-66.91-2.66-100.24-1.74-56.66,2.05-121.36,6.29-170.37,33.83-38.18,20.99-66.02,63.36-54.75,107.57,9.78,40.51,48.8,65.56,88.83,74.32,73.48,15.76,152.67,3.61,223.79-19.54,46.42-15.1,99.93-42.54,122.01-86.62l.08-.15Z"/>
    <path class="cls-12" d="M2583.05,1885.05c26.93,44.49,86.37,60.57,133.68,39.99,33.44-13.68,58.85-42.54,74.21-74.83,33.5-68.39,35.58-183.47-7.96-248.1-17.44-25.74-46.71-39.21-77.27-31.69-41.58,10.06-74.69,47.9-96.41,85.87-35.47,64.49-66.68,162.04-26.35,228.6l.1.16Z"/>
    <path class="cls-1" d="M5207.15,1788.1c-6.14,71.63,62.7,101.36,124.97,109.65,46.24,6.4,93.23,6.53,139.82,5.31,95.2-3.64,247.51-17.42,277.07-126.04,14.86-62.23-33.29-117.02-89.31-139.33-52.09-21.68-110.13-27.91-166.27-29.59-71.63-1.47-141.85,9.11-199.62,50.47-42.19,30.22-81.17,76.97-86.65,129.36v.17Z"/>
    <g>
      <path class="cls-3" d="M6101.76,937.02c75.23,44.19,167.49,28.03,247.92,7.4,51.85-13.79,103.19-30.67,153.15-50.43,43.97-17.62,88.16-38.92,124.78-68.61,69.92-55.15,104.83-144.11,58.84-225.93-90.93-151.1-302.67-110.63-439-49.52-54.69,24.53-105.4,57.8-145.02,103.23-75.98,84.72-110.82,216.76-.82,283.76l.17.1Z"/>
      <path class="cls-8" d="M6215.34,965.64c-44.28,0-81.59-9.25-113.83-28.19l-.17-.1c-39.39-23.99-62.48-57.28-68.62-98.93-4.34-29.48.34-62.83,13.54-96.45,12.32-31.38,31.61-62.2,55.77-89.14,36.34-41.66,85.19-76.44,145.19-103.35,47-21.07,140.22-56.22,236.74-54.87,43.53.6,82.18,8.78,114.9,24.31,36.87,17.5,66.47,44.5,88,80.27,21.74,38.68,26.61,81.34,14.1,123.37-11.44,38.42-37.38,75.08-73.06,103.21-40.72,33.02-90.79,55.01-124.9,68.68-49.7,19.66-101.25,36.64-153.2,50.45-35.07,8.99-81.08,19.46-126.02,20.62-2.84.07-5.66.11-8.44.11ZM6102.01,936.59c73.77,43.33,162.57,29.14,247.54,7.35,51.91-13.81,103.42-30.77,153.09-50.41,34.05-13.64,84.02-35.59,124.64-68.53,63.93-50.42,106.87-139.63,58.72-225.3-40.78-67.77-108.76-102.79-202.05-104.08-96.29-1.34-189.4,33.75-236.32,54.78-59.87,26.86-108.6,61.54-144.85,103.1-51.02,56.89-77.49,127.7-69.08,184.79,6.09,41.34,29.02,74.39,68.14,98.22l.16.1h0Z"/>
    </g>
    <path class="cls-3" d="M434.72,544.31c117.1-22.12,231.61-59.57,342.87-102.65,40.84-15.68,78.85-32.18,119.97-40.76,17.02-3.48,34.68-5.38,51.64-3.77,52.21,4.55,75.88,43.72,60.81,95.87-28.12,91.21-122.56,146.46-198.55,196.93-86.88,55.21-176.31,112.54-272.29,148.09-137.65,52.29-289.36,46.79-433.11,23.74-82.2-13.67-167.48-41.28-228.31-100.04-23.78-22.7-44.62-52.45-52.55-80.48-20.93-73.53,29.42-117.04,100.26-127.19,74.11-10.76,151.19,4.49,225.64,8.83,94.78,6.93,189.92-.75,283.4-18.54l.21-.04Z"/>
    <path d="M4169.4,4198.43c303.23-69.82,618.49-11.07,924.3-59.09,55.28-8.52,110.01-20.39,163.85-35.57,60.8-17.06,120.37-38.4,179.07-61.69,57.14-22.44,115.43-48.05,173.52-62.3,31.31-7.6,63.98-12.33,95.77-9.29,49.66,4.27,92.29,31.81,99.6,84.93,9.41,72.95-39.34,147.57-91.81,197.55-159,147.2-383.35,186.34-590.47,219.09-80.54,12.34-161.24,23.83-241.87,35.61-220.45,31.89-442.83,64.76-665.55,44.07-81.54-7.59-173.64-23.95-243.29-63.58-97.26-55.37-97.6-134.24-13.65-200.37,59.24-45.96,136.16-71.29,210.32-89.32l.21-.05Z"/>
    <g>
      <path class="cls-6" d="M62.56,3047.92c91.43,27.12,133.27,131.03,165.22,213.79,66.4,187.16,101.67,391.07,78.87,589.61-14.43,115.73-76.5,209.59-187.44,251.87-76.39,30.96-170.11,32.28-232.5-25.89-46.09-41.54-72.31-103.44-89.43-162.94-34.84-124.37-38.82-257.04-14.45-383.79,14.62-77.2,39.76-151.83,64.21-226.33,33.68-98.71,78.06-286.15,215.36-256.37l.16.04Z"/>
      <path class="cls-6" d="M15.26,4124.83c-5.91,0-11.77-.22-17.58-.65-43.72-3.29-82.21-19.38-111.31-46.51-38.71-34.89-68.01-88.27-89.57-163.16-34.26-122.29-39.26-255.08-14.46-384.02,13.84-73.09,37.45-144.93,60.29-214.41l3.94-11.98c3.34-9.8,6.78-20.44,10.42-31.7,16.41-50.78,36.83-113.97,68.52-160.79,17.43-25.76,36.11-43.66,57.1-54.73,23.9-12.61,50.78-15.79,79.9-9.48l.19.05c40.86,12.12,75.27,40.33,105.19,86.24,24.91,38.22,42.76,82.29,60.35,127.86,34.72,97.85,59.25,195.63,72.91,290.64,14.89,103.49,16.9,204.16,5.99,299.2-15.26,122.37-81.94,211.96-187.76,252.28-34.42,13.95-70.08,21.17-104.14,21.17ZM33.84,3045.18c-41.75,0-77.12,22.11-107.5,66.98-31.61,46.7-52.01,109.82-68.4,160.54-3.64,11.27-7.08,21.92-10.42,31.71l-3.93,11.98c-22.83,69.45-46.43,141.26-60.26,214.29-24.77,128.8-19.77,261.43,14.44,383.56,21.5,74.71,50.71,127.93,89.29,162.7,66.05,61.58,163.14,53.7,231.98,25.8,105.47-40.19,171.92-129.5,187.13-251.47,20.83-181.47-6.43-385.27-78.85-589.38-30.27-78.42-71.75-185.84-164.88-213.48l-.15-.04c-9.8-2.13-19.27-3.19-28.44-3.19Z"/>
    </g>
    <path d="M5088.01,3627.46c-12.2,62.73,49.74,82.52,101.13,78.32,62.58-4.56,121.13-31.58,174.31-63.65,36.72-22.86,76.04-49.5,96.75-88.14,24.03-44.42,6.37-88.12-39.3-107.51-35.28-15.33-76.29-13.87-113.65-5.61-69.47,14.88-130.96,57.7-177.04,111.16-18.46,21.67-36.43,47.48-42.17,75.26l-.03.17Z"/>
    <g>
      <path d="M5286.47,2491.32c-18.58,32.91-31.98,84.19,7.55,105.87,33.75,16.95,75.44,5.29,110.94-7.81,53.44-21.15,104.26-48.84,153.41-78.43,29.33-18.14,58.53-37.74,82.84-62.27,30.65-30.28,57.71-78.85,30.69-119.06-37.68-52.57-122.13-59.16-179.54-38.68-66.17,23.26-122.25,90.88-167,144.08-14.21,17.71-27.95,36.27-38.8,56.12l-.1.18Z"/>
      <path d="M5332.49,2606.13c-13.5,0-26.6-2.43-38.69-8.5-12.08-6.62-20.03-16.42-23.64-29.12-8.66-30.39,9.96-66.95,15.88-77.44l.1-.18c11.79-21.59,26.95-41.37,38.85-56.2l2.23-2.66c44.46-52.87,99.78-118.66,164.99-141.58,59.61-21.26,143.28-12.53,180.11,38.86,26.61,39.59,1.56,87.79-30.74,119.71-24.85,25.08-54.54,44.78-82.93,62.34-58.6,35.28-107.37,60.22-153.49,78.47-23.18,8.55-48.56,16.29-72.66,16.29ZM5556.82,2280.66c-22.35,0-44.63,3.74-64.29,10.75-64.95,22.84-120.18,88.51-164.56,141.28l-2.23,2.65c-11.86,14.78-26.99,34.52-38.74,56.04l-.1.19c-5.87,10.4-24.35,46.65-15.79,76.68,3.54,12.43,11.33,22.02,23.15,28.5,33.32,16.73,74.57,5.43,110.53-7.84,46.06-18.23,94.78-43.14,153.33-78.39,28.33-17.52,57.96-37.18,82.74-62.19,32.02-31.64,56.88-79.36,30.63-118.43-24.42-34.08-69.66-49.24-114.66-49.24Z"/>
    </g>
    <g>
      <path d="M6721.04,2025.34c-49.25,81.24-50.8,191.25-3.2,273.55,65.55,112.2,189.63,115.98,275.89,24.94,76.86-79.95,130.48-240.17,74.7-343.04-16.06-29.8-41.44-54.24-72.33-68.23-101.85-45.38-221.73,22.94-274.96,112.6l-.1.17Z"/>
      <path d="M6858.53,2388.45c-5.65,0-11.28-.32-16.89-.97-50.22-5.79-94.33-37.17-124.23-88.34-47.58-82.27-46.29-192.41,3.21-274.06l.1-.17c27.15-45.74,70.7-84.79,119.46-107.14,25.75-11.8,51.8-18.48,77.45-19.86,27.7-1.5,54.17,3.28,78.67,14.2,30.43,13.78,56.21,38.08,72.57,68.45,25.63,47.28,30.05,111.37,12.43,180.47-15.74,61.72-48.34,122.71-87.21,163.15-39.26,41.43-87.84,64.27-135.56,64.27ZM6927.67,1898.7c-82.39,0-164.69,56.98-206.1,126.72l-.11.18c-49.32,81.35-50.6,191.08-3.2,273.04,29.73,50.89,73.58,82.09,123.48,87.85,5.57.64,11.17.96,16.78.96,47.44,0,95.76-22.72,134.84-63.96,38.76-40.32,71.27-101.14,86.97-162.71,17.56-68.86,13.17-132.69-12.34-179.75-16.26-30.17-41.86-54.33-72.1-68.01-22.15-9.87-45.19-14.32-68.22-14.32Z"/>
    </g>
    <path class="cls-10" d="M1176.27,2098.92c-6.69,33.68,12.77,67.5,37.89,91.76,34.17,33.12,79.2,54.92,123.85,70.97,102.39,36.66,358.73,82.75,406.18-49.54,13.03-39.45-2.41-82.6-28.59-114.92-48.43-59.35-128.9-96.69-203.42-110.67-68.96-12.56-141.68-4.42-209.03,15.3-49.67,15.48-114.71,42.14-126.85,96.95l-.03.15Z"/>
  </g>
</svg>