<?xml version="1.0" encoding="UTF-8"?><svg xmlns="http://www.w3.org/2000/svg" width="7007" height="4000.5" viewBox="0 0 7007 4000.5"><defs><style>.cls-1{fill:#fff;}.cls-2{fill:#b3c8f2;}.cls-3{fill:#063573;}.cls-4{fill:none;}.cls-5{fill:#f2f2f2;}.cls-6{fill:#231f20;}.cls-7{fill:#7e9cd9;}.cls-8{fill:#5679bf;}</style></defs><g id="Layer_1"><rect class="cls-7" x="0" y=".5" width="500" height="500" rx="240" ry="240"/><path class="cls-2" d="M740,.5h260v500h-260c-132.46,0-240-107.54-240-240v-20C500,108.04,607.54.5,740,.5Z"/><rect class="cls-2" x="1000" y=".5" width="500" height="500"/><rect class="cls-3" x="1500" y=".5" width="500" height="500"/><rect class="cls-8" x="2000" y=".5" width="500" height="500"/><rect class="cls-2" x="2500" y=".5" width="500" height="500"/><rect class="cls-8" x="3000" y=".5" width="500" height="500"/><path class="cls-2" d="M3500,.5h0c275.96,0,500,224.04,500,500h-500V.5h0Z"/><path class="cls-2" d="M4500,.5h0v500h-500c0-275.96,224.04-500,500-500Z"/><rect class="cls-8" x="4500" y=".5" width="500" height="500"/><rect class="cls-3" x="5000" y=".5" width="500" height="500"/><rect class="cls-8" x="5500" y=".5" width="500" height="500"/><rect class="cls-1" x="6000" y=".5" width="500" height="500"/><rect class="cls-8" x="6500" y=".5" width="500" height="500"/><path class="cls-8" d="M241,500.5h20c132.46,0,240,107.54,240,240v260H1v-260c0-132.46,107.54-240,240-240Z"/><path class="cls-8" d="M741,500.5h260v500h-500v-260c0-132.46,107.54-240,240-240Z"/><rect class="cls-7" x="1001.5" y="501" width="502" height="500"/><rect class="cls-8" x="1501" y="500.5" width="500" height="500"/><path class="cls-3" d="M2001,500.5h0c275.96,0,500,224.04,500,500h-500v-500h0Z"/><rect class="cls-5" x="2501" y="500.5" width="500" height="500"/><rect class="cls-2" x="3001" y="500.5" width="500" height="500"/><rect class="cls-7" x="3501" y="500.5" width="500" height="500"/><rect class="cls-8" x="4001" y="500.5" width="500" height="500"/><rect class="cls-7" x="4501" y="500.5" width="500" height="500"/><rect class="cls-2" x="5001" y="500.5" width="500" height="500"/><rect class="cls-2" x="5501" y="500.5" width="500" height="500"/><rect class="cls-2" x="6001" y="500.5" width="500" height="500"/><rect class="cls-7" x="6501" y="500.5" width="500" height="500"/><rect class="cls-3" x="2" y="1000.5" width="500" height="500"/><rect class="cls-5" x="502" y="1000.5" width="500" height="500"/><rect class="cls-5" x="1002" y="1000.5" width="500" height="500"/><rect class="cls-7" x="1502" y="1000.5" width="500" height="500"/><rect class="cls-2" x="2002" y="1000.5" width="500" height="500"/><rect class="cls-8" x="2502" y="1000.5" width="500" height="500"/><rect class="cls-5" x="3002" y="1000.5" width="500" height="500"/><rect class="cls-5" x="3502" y="1000.5" width="500" height="500"/><rect class="cls-2" x="4002" y="1000.5" width="500" height="500"/><rect class="cls-7" x="4502" y="1000.5" width="500" height="500"/><rect class="cls-7" x="5002" y="1000.5" width="500" height="500"/><rect class="cls-7" x="5502" y="1000.5" width="500" height="500"/><rect class="cls-3" x="6002" y="1000.5" width="500" height="500"/><rect class="cls-7" x="6502" y="1000.5" width="500" height="500"/><rect class="cls-7" x="3" y="1500.5" width="500" height="500"/><rect class="cls-7" x="503" y="1500.5" width="500" height="500"/><rect class="cls-7" x="1003" y="1500.5" width="500" height="500"/><rect class="cls-5" x="1503" y="1500.5" width="500" height="500"/><rect class="cls-7" x="2003" y="1500.5" width="500" height="500"/><rect class="cls-2" x="2503" y="1500.5" width="500" height="500"/><rect class="cls-7" x="3003" y="1500.5" width="500" height="500"/><rect class="cls-5" x="3503" y="1500.5" width="500" height="500"/><rect class="cls-2" x="4003" y="1500.5" width="500" height="500"/><rect class="cls-2" x="4503" y="1500.5" width="500" height="500"/><rect class="cls-2" x="5003" y="1500.5" width="500" height="500"/><rect class="cls-3" x="5503" y="1500.5" width="500" height="500"/><rect class="cls-7" x="6003" y="1500.5" width="500" height="500"/><rect class="cls-8" x="6503" y="1500.5" width="500" height="500"/><rect class="cls-8" x="4" y="2000.5" width="500" height="500"/><path class="cls-7" d="M798.54,2515.5h-89.08v-530h89.08v530ZM714.5,2485.5h78.99v-470h-78.99v470Z"/><path class="cls-7" d="M817.63,2515.5h-127.25v-530h127.25v530ZM697.58,2485.5h112.85v-470h-112.85v470Z"/><path class="cls-7" d="M844.9,2515.5h-181.79v-530h181.79v530ZM673.4,2485.5h161.21v-470h-161.21v470Z"/><path class="cls-7" d="M883.85,2515.5h-259.7v-530h259.7v530ZM638.85,2485.5h230.3v-470h-230.3v470Z"/><path class="cls-7" d="M939.5,2515.5h-371v-530h371v530ZM589.5,2485.5h329v-470h-329v470Z"/><path class="cls-7" d="M1019,2515.5H489v-530h530v530ZM519,2485.5h470v-470h-470v470Z"/><rect class="cls-8" x="1004" y="2000.5" width="500" height="500"/><path class="cls-7" d="M1504.5,2501h-501v-501h501v501ZM1004.5,2500h499v-499h-499v499Z"/><rect class="cls-7" x="1504" y="2000.5" width="500" height="500"/><rect class="cls-5" x="2004" y="2000.5" width="500" height="500"/><rect class="cls-2" x="2504" y="2000.5" width="500" height="500"/><rect class="cls-8" x="3004" y="2000.5" width="500" height="500"/><rect class="cls-7" x="3504" y="2000.5" width="500" height="500"/><rect class="cls-8" x="4004" y="2000.5" width="500" height="500"/><rect class="cls-5" x="4504" y="2000.5" width="500" height="500"/><rect class="cls-7" x="5004" y="2000.5" width="500" height="500"/><rect class="cls-7" x="5504" y="2000.5" width="500" height="500"/><rect class="cls-1" x="6004" y="2000.5" width="500" height="500"/><rect class="cls-3" x="6504" y="2000.5" width="500" height="500"/><rect class="cls-5" x="5" y="2500.5" width="500" height="500"/><rect class="cls-7" x="505" y="2500.5" width="500" height="500"/><rect class="cls-2" x="1005" y="2500.5" width="500" height="500"/><rect class="cls-7" x="1505" y="2500.5" width="500" height="500"/><rect class="cls-8" x="2005" y="2500.5" width="500" height="500"/><rect class="cls-2" x="2505" y="2500.5" width="500" height="500"/><rect class="cls-7" x="3005" y="2500.5" width="500" height="500"/><rect class="cls-3" x="3505" y="2500.5" width="500" height="500"/><rect class="cls-2" x="4005" y="2500.5" width="500" height="500"/><rect class="cls-2" x="4505" y="2500.5" width="500" height="500"/><rect class="cls-7" x="5005" y="2500.5" width="500" height="500"/><rect class="cls-8" x="5505" y="2500.5" width="500" height="500"/><rect class="cls-3" x="6005" y="2500.5" width="500" height="500"/><rect class="cls-2" x="6505" y="2500.5" width="500" height="500"/><rect class="cls-7" x="6" y="3000.5" width="500" height="500"/><rect class="cls-7" x="506" y="3000.5" width="500" height="500"/><rect class="cls-5" x="1006" y="3000.5" width="500" height="500"/><rect class="cls-2" x="1506" y="3000.5" width="500" height="500"/><rect class="cls-2" x="2006" y="3000.5" width="500" height="500"/><rect class="cls-7" x="2506" y="3000.5" width="500" height="500"/><rect class="cls-8" x="3006" y="3000.5" width="500" height="500"/><rect class="cls-2" x="3506" y="3000.5" width="500" height="500"/><rect class="cls-7" x="4006" y="3000.5" width="500" height="500"/><rect class="cls-7" x="4506" y="3000.5" width="500" height="500"/><rect class="cls-5" x="5006" y="3000.5" width="500" height="500"/><rect class="cls-3" x="5506" y="3000.5" width="500" height="500"/><rect class="cls-2" x="6006" y="3000.5" width="500" height="500"/><rect class="cls-2" x="6506" y="3000.5" width="500" height="500"/><rect class="cls-2" x="7" y="3500.5" width="500" height="500"/><rect class="cls-5" x="507" y="3500.5" width="500" height="500"/><rect class="cls-2" x="1007" y="3500.5" width="500" height="500"/><rect class="cls-8" x="1507" y="3500.5" width="500" height="500"/><rect class="cls-3" x="2007" y="3500.5" width="500" height="500"/><rect class="cls-3" x="2507" y="3500.5" width="500" height="500"/><rect class="cls-8" x="3007" y="3500.5" width="500" height="500"/><rect class="cls-8" x="3507" y="3500.5" width="500" height="500"/><rect class="cls-5" x="4007" y="3500.5" width="500" height="500"/><rect class="cls-8" x="4507" y="3500.5" width="500" height="500"/><path class="cls-7" d="M5007,3500.5h500v500h0c-275.96,0-500-224.04-500-500h0Z"/><rect class="cls-7" x="5507" y="3500.5" width="500" height="500"/><rect class="cls-8" x="6007" y="3500.5" width="500" height="500"/><rect class="cls-1" x="6507" y="3500.5" width="500" height="500"/></g><g id="Layer_1_copy"><rect class="cls-7" x="0" y=".5" width="500" height="500" rx="240" ry="240"/><path class="cls-2" d="M740,.5h260v500h-260c-132.46,0-240-107.54-240-240v-20C500,108.04,607.54.5,740,.5Z"/><rect class="cls-7" x="1000" y=".5" width="500" height="500" rx="250" ry="250"/><path class="cls-2" d="M1500,.5h0c275.96,0,500,224.04,500,500h0c-275.96,0-500-224.04-500-500h0Z"/><path class="cls-7" d="M2000,250.5c0-138.07,111.93-250,250-250h0c138.07,0,250,111.93,250,250h0"/><path class="cls-6" d="M2500.5,250.5h-1c0-137.57-111.92-249.5-249.5-249.5s-249.5,111.92-249.5,249.5h-1c0-66.91,26.06-129.82,73.37-177.13S2183.09,0,2250,0s129.82,26.06,177.13,73.37c47.31,47.31,73.37,110.22,73.37,177.13Z"/><rect class="cls-8" x="2515" y="15.5" width="470" height="470" rx="235" ry="235"/><path class="cls-3" d="M2750,500.5c-66.78,0-129.56-26-176.78-73.22s-73.22-110-73.22-176.78,26-129.56,73.22-176.78S2683.22.5,2750,.5s129.56,26,176.78,73.22,73.22,110,73.22,176.78-26,129.56-73.22,176.78-110,73.22-176.78,73.22ZM2750,30.5c-121.31,0-220,98.69-220,220s98.69,220,220,220,220-98.69,220-220-98.69-220-220-220Z"/><rect class="cls-7" x="3000" y=".5" width="500" height="500"/><path class="cls-7" d="M3500,.5h0c275.96,0,500,224.04,500,500h0c-275.96,0-500-224.04-500-500h0Z"/><path class="cls-3" d="M4500,.5h0v500h-500c0-275.96,224.04-500,500-500Z"/><path class="cls-7" d="M4500,.5h0c275.96,0,500,224.04,500,500h0c-275.96,0-500-224.04-500-500h0Z"/><rect class="cls-2" x="5000" y=".5" width="500" height="500" rx="250" ry="250"/><path class="cls-7" d="M5500,.5h0c275.96,0,500,224.04,500,500h-500V.5h0Z"/><path class="cls-2" d="M6000,.5h500v500h0c-275.96,0-500-224.04-500-500h0Z"/><path class="cls-2" d="M241,500.5h20c132.46,0,240,107.54,240,240h0c0,143.5-116.5,260-260,260H1v-260c0-132.46,107.54-240,240-240Z"/><path class="cls-7" d="M741,500.5h260v500h-500v-260c0-132.46,107.54-240,240-240Z"/><rect class="cls-7" x="1501" y="500.5" width="500" height="500" rx="250" ry="250"/><rect class="cls-2" x="2501" y="500.5" width="500" height="500"/><path class="cls-5" d="M3001,500.5h0c275.96,0,500,224.04,500,500h-500v-500h0Z"/><rect class="cls-8" x="3501" y="500.5" width="500" height="500"/><path class="cls-2" d="M5001,500.5h0c0,275.96-224.04,500-500,500h0c0-275.96,224.04-500,500-500Z"/><path class="cls-5" d="M5001,500.5h0c275.96,0,500,224.04,500,500h0c-275.96,0-500-224.04-500-500h0Z"/><path class="cls-5" d="M5501,500.5h500c0,275.96-224.04,500-500,500h0v-500h0Z"/><rect class="cls-8" x="6001" y="500.5" width="500" height="500" rx="250" ry="250"/><path class="cls-2" d="M7000.5,501h0c0,275.96-224.04,500-500,500h0c0-275.96,224.04-500,500-500Z"/><rect class="cls-2" x="502" y="1000.5" width="500" height="500" rx="250" ry="250"/><rect class="cls-7" x="1002" y="1000.5" width="500" height="500"/><rect class="cls-2" x="1502" y="1000.5" width="500" height="500"/><path class="cls-8" d="M2002,1000.5h0c275.96,0,500,224.04,500,500h-500v-500h0Z"/><path class="cls-2" d="M3002,1000.5h0v500h-500c0-275.96,224.04-500,500-500Z"/><path class="cls-2" d="M3002,1000.5h500c0,275.96-224.04,500-500,500h0v-500h0Z"/><rect class="cls-3" x="3502" y="1000.5" width="500" height="500"/><rect class="cls-2" x="4002" y="1000.5" width="500" height="500"/><path class="cls-8" d="M4502,1000.5h500v500h0c-275.96,0-500-224.04-500-500h0Z"/><rect class="cls-8" x="5002" y="1000.5" width="500" height="500" rx="195.97" ry="195.97"/><path class="cls-3" d="M5638.59,1000.5h0c200.57,0,363.41,162.84,363.41,363.41h0c0,75.39-61.2,136.59-136.59,136.59h-226.82c-75.39,0-136.59-61.2-136.59-136.59v-226.82c0-75.39,61.2-136.59,136.59-136.59Z"/><rect class="cls-7" x="6002" y="1000.5" width="500" height="500"/><path class="cls-3" d="M7002,1000.5h0v500h-500c0-275.96,224.04-500,500-500Z"/><path class="cls-8" d="M3,1500.5h0c275.96,0,500,224.04,500,500H3v-500h0Z"/><rect class="cls-8" x="503" y="1500.5" width="500" height="500"/><path class="cls-2" d="M1503,1500.5h0c275.96,0,500,224.04,500,500h-500v-500h0Z"/><path class="cls-3" d="M2003,1500.5h500v500h0c-275.96,0-500-224.04-500-500h0Z"/><rect class="cls-1" x="2503" y="1500.5" width="500" height="500"/><rect class="cls-1" x="3507.5" y="1501" width="500" height="500"/><path class="cls-3" d="M4003,1500.5h500c0,275.96-224.04,500-500,500h0v-500h0Z"/><path class="cls-7" d="M5003,1500.5h0v500h-500c0-275.96,224.04-500,500-500Z"/><rect class="cls-2" x="5003" y="1500.5" width="500" height="500"/><path class="cls-2" d="M6503,1500.5h0v500h-500c0-275.96,224.04-500,500-500Z"/><path class="cls-1" d="M6503,1500.5h0c275.96,0,500,224.04,500,500h-500v-500h0Z"/><rect class="cls-4" x="519" y="2015.5" width="470" height="470"/><path class="cls-3" d="M1004,2000.5h0c275.96,0,500,224.04,500,500h0c-275.96,0-500-224.04-500-500h0Z"/><rect class="cls-7" x="2004" y="2000.5" width="500" height="500"/><path class="cls-8" d="M2504,2000.5h500v500h0c-275.96,0-500-224.04-500-500h0Z"/><path class="cls-1" d="M3004,2000.5h14.12c268.17,0,485.88,217.72,485.88,485.88v14.12h-500v-500h0Z"/><path class="cls-3" d="M4004,2000.5h0v500h-500c0-275.96,224.04-500,500-500Z"/><rect class="cls-2" x="4004" y="2000.5" width="500" height="500"/><rect class="cls-7" x="5004" y="2000.5" width="500" height="500"/><rect class="cls-8" x="5504" y="2000.5" width="500" height="500"/><rect class="cls-1" x="6004" y="2000.5" width="500" height="500"/><rect class="cls-7" x="5" y="2500.5" width="500" height="500" rx="250" ry="250"/><rect class="cls-5" x="520" y="2515.5" width="470" height="470" rx="235" ry="235"/><path class="cls-3" d="M755,3000.5c-66.78,0-129.56-26-176.78-73.22s-73.22-110-73.22-176.78,26-129.56,73.22-176.78,110-73.22,176.78-73.22,129.56,26,176.78,73.22,73.22,110,73.22,176.78-26,129.56-73.22,176.78-110,73.22-176.78,73.22ZM755,2530.5c-121.31,0-220,98.69-220,220s98.69,220,220,220,220-98.69,220-220-98.69-220-220-220Z"/><path class="cls-7" d="M1005,2500.5h500v500h0c-275.96,0-500-224.04-500-500h0Z"/><path class="cls-8" d="M1505,2500.5h55.97c245.07,0,444.03,198.96,444.03,444.03v55.97h-500v-500h0Z"/><rect class="cls-2" x="2505" y="2500.5" width="500" height="500"/><rect class="cls-3" x="3005" y="2500.5" width="500" height="500" rx="250" ry="250"/><rect class="cls-4" x="3505" y="2500.5" width="500" height="500"/><rect class="cls-5" x="4005" y="2500.5" width="500" height="500"/><rect class="cls-8" x="4505" y="2500.5" width="500" height="500"/><rect class="cls-1" x="5005" y="2500.5" width="500" height="500" rx="250" ry="250"/><rect class="cls-5" x="5505" y="2500.5" width="500" height="500"/><path class="cls-8" d="M6005,2500.5h500v500h0c-275.96,0-500-224.04-500-500h0Z"/><rect class="cls-7" x="6505" y="2500.5" width="500" height="500"/><path class="cls-3" d="M6,3000.5h500v500h0c-275.96,0-500-224.04-500-500h0Z"/><path class="cls-2" d="M1006,3000.5h0v500h-500c0-275.96,224.04-500,500-500Z"/><path class="cls-8" d="M1506,3000.5h0c275.96,0,500,224.04,500,500h0c-275.96,0-500-224.04-500-500h0Z"/><rect class="cls-8" x="2006" y="3000.5" width="500" height="500"/><rect class="cls-3" x="4506" y="3000.5" width="500" height="500"/><path class="cls-2" d="M6006,3000.5h0v500h-500c0-275.96,224.04-500,500-500Z"/><path class="cls-8" d="M6006,3000.5h0c275.96,0,500,224.04,500,500h-500v-500h0Z"/><rect class="cls-3" x="6722.38" y="3216.88" width="67.74" height="67.74"/><path class="cls-7" d="M6792.28,3286.78h-72.06v-72.06h72.06v72.06ZM6724.54,3282.46h63.41v-63.41h-63.41v63.41Z"/><rect class="cls-3" x="6718.62" y="3213.12" width="75.26" height="75.26"/><path class="cls-7" d="M6796.28,3290.78h-80.07v-80.07h80.07v80.07ZM6721.02,3285.98h70.46v-70.46h-70.46v70.46Z"/><rect class="cls-3" x="6714.44" y="3208.94" width="83.63" height="83.63"/><path class="cls-7" d="M6800.73,3295.23h-88.97v-88.97h88.97v88.97ZM6717.11,3289.89h78.29v-78.29h-78.29v78.29Z"/><rect class="cls-3" x="6709.79" y="3204.29" width="92.92" height="92.92"/><path class="cls-7" d="M6805.68,3300.18h-98.85v-98.85h98.85v98.85ZM6712.76,3294.24h86.99v-86.99h-86.99v86.99Z"/><rect class="cls-3" x="6704.63" y="3199.13" width="103.24" height="103.24"/><path class="cls-7" d="M6811.17,3305.67h-109.83v-109.83h109.83v109.83ZM6707.92,3299.08h96.65v-96.65h-96.65v96.65Z"/><rect class="cls-3" x="6698.89" y="3193.39" width="114.72" height="114.72"/><path class="cls-7" d="M6817.27,3311.77h-122.04v-122.04h122.04v122.04ZM6702.55,3304.45h107.39v-107.39h-107.39v107.39Z"/><rect class="cls-3" x="6718.62" y="3213.12" width="75.26" height="75.26"/><path class="cls-7" d="M6796.28,3290.78h-80.07v-80.07h80.07v80.07ZM6721.02,3285.98h70.46v-70.46h-70.46v70.46Z"/><rect class="cls-3" x="6714.44" y="3208.94" width="83.63" height="83.63"/><path class="cls-7" d="M6800.73,3295.23h-88.97v-88.97h88.97v88.97ZM6717.11,3289.89h78.29v-78.29h-78.29v78.29Z"/><rect class="cls-3" x="6709.79" y="3204.29" width="92.92" height="92.92"/><path class="cls-7" d="M6805.68,3300.18h-98.85v-98.85h98.85v98.85ZM6712.76,3294.24h86.99v-86.99h-86.99v86.99Z"/><rect class="cls-3" x="6704.63" y="3199.13" width="103.24" height="103.24"/><path class="cls-7" d="M6811.17,3305.67h-109.83v-109.83h109.83v109.83ZM6707.92,3299.08h96.65v-96.65h-96.65v96.65Z"/><rect class="cls-3" x="6698.89" y="3193.39" width="114.72" height="114.72"/><path class="cls-7" d="M6817.27,3311.77h-122.04v-122.04h122.04v122.04ZM6702.55,3304.45h107.39v-107.39h-107.39v107.39Z"/><rect class="cls-3" x="6692.52" y="3187.02" width="127.46" height="127.46"/><path class="cls-7" d="M6824.05,3318.55h-135.6v-135.6h135.6v135.6ZM6696.59,3310.41h119.33v-119.33h-119.33v119.33Z"/><rect class="cls-3" x="6714.44" y="3208.94" width="83.63" height="83.63"/><path class="cls-7" d="M6800.73,3295.23h-88.97v-88.97h88.97v88.97ZM6717.11,3289.89h78.29v-78.29h-78.29v78.29Z"/><rect class="cls-3" x="6709.79" y="3204.29" width="92.92" height="92.92"/><path class="cls-7" d="M6805.68,3300.18h-98.85v-98.85h98.85v98.85ZM6712.76,3294.24h86.99v-86.99h-86.99v86.99Z"/><rect class="cls-3" x="6704.63" y="3199.13" width="103.24" height="103.24"/><path class="cls-7" d="M6811.17,3305.67h-109.83v-109.83h109.83v109.83ZM6707.92,3299.08h96.65v-96.65h-96.65v96.65Z"/><rect class="cls-3" x="6698.89" y="3193.39" width="114.72" height="114.72"/><path class="cls-7" d="M6817.27,3311.77h-122.04v-122.04h122.04v122.04ZM6702.55,3304.45h107.39v-107.39h-107.39v107.39Z"/><rect class="cls-3" x="6692.52" y="3187.02" width="127.46" height="127.46"/><path class="cls-7" d="M6824.05,3318.55h-135.6v-135.6h135.6v135.6ZM6696.59,3310.41h119.33v-119.33h-119.33v119.33Z"/><rect class="cls-3" x="6685.44" y="3179.94" width="141.62" height="141.62"/><path class="cls-7" d="M6831.58,3326.08h-150.66v-150.66h150.66v150.66ZM6689.96,3317.04h132.58v-132.58h-132.58v132.58Z"/><rect class="cls-3" x="6709.79" y="3204.29" width="92.92" height="92.92"/><path class="cls-7" d="M6805.68,3300.18h-98.85v-98.85h98.85v98.85ZM6712.76,3294.24h86.99v-86.99h-86.99v86.99Z"/><rect class="cls-3" x="6704.63" y="3199.13" width="103.24" height="103.24"/><path class="cls-7" d="M6811.17,3305.67h-109.83v-109.83h109.83v109.83ZM6707.92,3299.08h96.65v-96.65h-96.65v96.65Z"/><rect class="cls-3" x="6698.89" y="3193.39" width="114.72" height="114.72"/><path class="cls-7" d="M6817.27,3311.77h-122.04v-122.04h122.04v122.04ZM6702.55,3304.45h107.39v-107.39h-107.39v107.39Z"/><rect class="cls-3" x="6692.52" y="3187.02" width="127.46" height="127.46"/><path class="cls-7" d="M6824.05,3318.55h-135.6v-135.6h135.6v135.6ZM6696.59,3310.41h119.33v-119.33h-119.33v119.33Z"/><rect class="cls-3" x="6685.44" y="3179.94" width="141.62" height="141.62"/><path class="cls-7" d="M6831.58,3326.08h-150.66v-150.66h150.66v150.66ZM6689.96,3317.04h132.58v-132.58h-132.58v132.58Z"/><rect class="cls-3" x="6677.57" y="3172.07" width="157.36" height="157.36"/><path class="cls-7" d="M6839.95,3334.45h-167.4v-167.4h167.4v167.4ZM6682.59,3324.41h147.32v-147.32h-147.32v147.32Z"/><rect class="cls-3" x="6704.63" y="3199.13" width="103.24" height="103.24"/><path class="cls-7" d="M6811.17,3305.67h-109.83v-109.83h109.83v109.83ZM6707.92,3299.08h96.65v-96.65h-96.65v96.65Z"/><rect class="cls-3" x="6698.89" y="3193.39" width="114.72" height="114.72"/><path class="cls-7" d="M6817.27,3311.77h-122.04v-122.04h122.04v122.04ZM6702.55,3304.45h107.39v-107.39h-107.39v107.39Z"/><rect class="cls-3" x="6692.52" y="3187.02" width="127.46" height="127.46"/><path class="cls-7" d="M6824.05,3318.55h-135.6v-135.6h135.6v135.6ZM6696.59,3310.41h119.33v-119.33h-119.33v119.33Z"/><rect class="cls-3" x="6685.44" y="3179.94" width="141.62" height="141.62"/><path class="cls-7" d="M6831.58,3326.08h-150.66v-150.66h150.66v150.66ZM6689.96,3317.04h132.58v-132.58h-132.58v132.58Z"/><rect class="cls-3" x="6677.57" y="3172.07" width="157.36" height="157.36"/><path class="cls-7" d="M6839.95,3334.45h-167.4v-167.4h167.4v167.4ZM6682.59,3324.41h147.32v-147.32h-147.32v147.32Z"/><rect class="cls-3" x="6668.83" y="3163.33" width="174.84" height="174.84"/><path class="cls-7" d="M6849.25,3343.75h-186v-186h186v186ZM6674.41,3332.59h163.68v-163.68h-163.68v163.68Z"/><rect class="cls-3" x="6698.89" y="3193.39" width="114.72" height="114.72"/><path class="cls-7" d="M6817.27,3311.77h-122.04v-122.04h122.04v122.04ZM6702.55,3304.45h107.39v-107.39h-107.39v107.39Z"/><rect class="cls-3" x="6692.52" y="3187.02" width="127.46" height="127.46"/><path class="cls-7" d="M6824.05,3318.55h-135.6v-135.6h135.6v135.6ZM6696.59,3310.41h119.33v-119.33h-119.33v119.33Z"/><rect class="cls-3" x="6685.44" y="3179.94" width="141.62" height="141.62"/><path class="cls-7" d="M6831.58,3326.08h-150.66v-150.66h150.66v150.66ZM6689.96,3317.04h132.58v-132.58h-132.58v132.58Z"/><rect class="cls-3" x="6677.57" y="3172.07" width="157.36" height="157.36"/><path class="cls-7" d="M6839.95,3334.45h-167.4v-167.4h167.4v167.4ZM6682.59,3324.41h147.32v-147.32h-147.32v147.32Z"/><rect class="cls-3" x="6668.83" y="3163.33" width="174.84" height="174.84"/><path class="cls-7" d="M6849.25,3343.75h-186v-186h186v186ZM6674.41,3332.59h163.68v-163.68h-163.68v163.68Z"/><rect class="cls-3" x="6659.11" y="3153.61" width="194.27" height="194.27"/><path class="cls-7" d="M6859.59,3354.09h-206.67v-206.67h206.67v206.67ZM6665.31,3341.69h181.87v-181.87h-181.87v181.87Z"/><rect class="cls-3" x="6692.52" y="3187.02" width="127.46" height="127.46"/><path class="cls-7" d="M6824.05,3318.55h-135.6v-135.6h135.6v135.6ZM6696.59,3310.41h119.33v-119.33h-119.33v119.33Z"/><rect class="cls-3" x="6685.44" y="3179.94" width="141.62" height="141.62"/><path class="cls-7" d="M6831.58,3326.08h-150.66v-150.66h150.66v150.66ZM6689.96,3317.04h132.58v-132.58h-132.58v132.58Z"/><rect class="cls-3" x="6677.57" y="3172.07" width="157.36" height="157.36"/><path class="cls-7" d="M6839.95,3334.45h-167.4v-167.4h167.4v167.4ZM6682.59,3324.41h147.32v-147.32h-147.32v147.32Z"/><rect class="cls-3" x="6668.83" y="3163.33" width="174.84" height="174.84"/><path class="cls-7" d="M6849.25,3343.75h-186v-186h186v186ZM6674.41,3332.59h163.68v-163.68h-163.68v163.68Z"/><rect class="cls-3" x="6659.11" y="3153.61" width="194.27" height="194.27"/><path class="cls-7" d="M6859.59,3354.09h-206.67v-206.67h206.67v206.67ZM6665.31,3341.69h181.87v-181.87h-181.87v181.87Z"/><rect class="cls-3" x="6648.32" y="3142.82" width="215.86" height="215.86"/><path class="cls-7" d="M6871.07,3365.57h-229.64v-229.64h229.64v229.64ZM6655.21,3351.79h202.08v-202.08h-202.08v202.08Z"/><rect class="cls-3" x="6685.44" y="3179.94" width="141.62" height="141.62"/><path class="cls-7" d="M6831.58,3326.08h-150.66v-150.66h150.66v150.66ZM6689.96,3317.04h132.58v-132.58h-132.58v132.58Z"/><rect class="cls-3" x="6677.57" y="3172.07" width="157.36" height="157.36"/><path class="cls-7" d="M6839.95,3334.45h-167.4v-167.4h167.4v167.4ZM6682.59,3324.41h147.32v-147.32h-147.32v147.32Z"/><rect class="cls-3" x="6668.83" y="3163.33" width="174.84" height="174.84"/><path class="cls-7" d="M6849.25,3343.75h-186v-186h186v186ZM6674.41,3332.59h163.68v-163.68h-163.68v163.68Z"/><rect class="cls-3" x="6659.11" y="3153.61" width="194.27" height="194.27"/><path class="cls-7" d="M6859.59,3354.09h-206.67v-206.67h206.67v206.67ZM6665.31,3341.69h181.87v-181.87h-181.87v181.87Z"/><rect class="cls-3" x="6648.32" y="3142.82" width="215.86" height="215.86"/><path class="cls-7" d="M6871.07,3365.57h-229.64v-229.64h229.64v229.64ZM6655.21,3351.79h202.08v-202.08h-202.08v202.08Z"/><rect class="cls-3" x="6636.33" y="3130.83" width="239.84" height="239.84"/><path class="cls-7" d="M6883.83,3378.33h-255.15v-255.15h255.15v255.15ZM6643.98,3363.02h224.53v-224.53h-224.53v224.53Z"/><rect class="cls-3" x="6677.57" y="3172.07" width="157.36" height="157.36"/><path class="cls-7" d="M6839.95,3334.45h-167.4v-167.4h167.4v167.4ZM6682.59,3324.41h147.32v-147.32h-147.32v147.32Z"/><rect class="cls-3" x="6668.83" y="3163.33" width="174.84" height="174.84"/><path class="cls-7" d="M6849.25,3343.75h-186v-186h186v186ZM6674.41,3332.59h163.68v-163.68h-163.68v163.68Z"/><rect class="cls-3" x="6659.11" y="3153.61" width="194.27" height="194.27"/><path class="cls-7" d="M6859.59,3354.09h-206.67v-206.67h206.67v206.67ZM6665.31,3341.69h181.87v-181.87h-181.87v181.87Z"/><rect class="cls-3" x="6648.32" y="3142.82" width="215.86" height="215.86"/><path class="cls-7" d="M6871.07,3365.57h-229.64v-229.64h229.64v229.64ZM6655.21,3351.79h202.08v-202.08h-202.08v202.08Z"/><rect class="cls-3" x="6636.33" y="3130.83" width="239.84" height="239.84"/><path class="cls-7" d="M6883.83,3378.33h-255.15v-255.15h255.15v255.15ZM6643.98,3363.02h224.53v-224.53h-224.53v224.53Z"/><rect class="cls-3" x="6623.01" y="3117.51" width="266.49" height="266.49"/><path class="cls-7" d="M6898,3392.5h-283.5v-283.5h283.5v283.5ZM6631.51,3375.49h249.48v-249.48h-249.48v249.48Z"/><rect class="cls-3" x="6668.83" y="3163.33" width="174.84" height="174.84"/><path class="cls-7" d="M6849.25,3343.75h-186v-186h186v186ZM6674.41,3332.59h163.68v-163.68h-163.68v163.68Z"/><rect class="cls-3" x="6659.11" y="3153.61" width="194.27" height="194.27"/><path class="cls-7" d="M6859.59,3354.09h-206.67v-206.67h206.67v206.67ZM6665.31,3341.69h181.87v-181.87h-181.87v181.87Z"/><rect class="cls-3" x="6648.32" y="3142.82" width="215.86" height="215.86"/><path class="cls-7" d="M6871.07,3365.57h-229.64v-229.64h229.64v229.64ZM6655.21,3351.79h202.08v-202.08h-202.08v202.08Z"/><rect class="cls-3" x="6636.33" y="3130.83" width="239.84" height="239.84"/><path class="cls-7" d="M6883.83,3378.33h-255.15v-255.15h255.15v255.15ZM6643.98,3363.02h224.53v-224.53h-224.53v224.53Z"/><rect class="cls-3" x="6623.01" y="3117.51" width="266.49" height="266.49"/><path class="cls-7" d="M6898,3392.5h-283.5v-283.5h283.5v283.5ZM6631.51,3375.49h249.48v-249.48h-249.48v249.48Z"/><rect class="cls-3" x="6608.2" y="3102.7" width="296.1" height="296.1"/><path class="cls-7" d="M6913.75,3408.25h-315v-315h315v315ZM6617.65,3389.35h277.2v-277.2h-277.2v277.2Z"/><rect class="cls-3" x="6659.11" y="3153.61" width="194.27" height="194.27"/><path class="cls-7" d="M6859.59,3354.09h-206.67v-206.67h206.67v206.67ZM6665.31,3341.69h181.87v-181.87h-181.87v181.87Z"/><rect class="cls-3" x="6648.32" y="3142.82" width="215.86" height="215.86"/><path class="cls-7" d="M6871.07,3365.57h-229.64v-229.64h229.64v229.64ZM6655.21,3351.79h202.08v-202.08h-202.08v202.08Z"/><rect class="cls-3" x="6636.33" y="3130.83" width="239.84" height="239.84"/><path class="cls-7" d="M6883.83,3378.33h-255.15v-255.15h255.15v255.15ZM6643.98,3363.02h224.53v-224.53h-224.53v224.53Z"/><rect class="cls-3" x="6623.01" y="3117.51" width="266.49" height="266.49"/><path class="cls-7" d="M6898,3392.5h-283.5v-283.5h283.5v283.5ZM6631.51,3375.49h249.48v-249.48h-249.48v249.48Z"/><rect class="cls-3" x="6608.2" y="3102.7" width="296.1" height="296.1"/><path class="cls-7" d="M6913.75,3408.25h-315v-315h315v315ZM6617.65,3389.35h277.2v-277.2h-277.2v277.2Z"/><rect class="cls-3" x="6591.75" y="3086.25" width="329" height="329"/><path class="cls-7" d="M6931.25,3425.75h-350v-350h350v350ZM6602.25,3404.75h308v-308h-308v308Z"/><rect class="cls-3" x="7" y="3500.5" width="500" height="500"/><rect class="cls-3" x="1007" y="3500.5" width="500" height="500"/><rect class="cls-3" x="1522" y="3515.5" width="470" height="470" rx="235" ry="235"/><path class="cls-1" d="M1757,4000.5c-66.78,0-129.56-26-176.78-73.22s-73.22-110-73.22-176.78,26-129.56,73.22-176.78,110-73.22,176.78-73.22,129.56,26,176.78,73.22,73.22,110,73.22,176.78-26,129.56-73.22,176.78-110,73.22-176.78,73.22ZM1757,3530.5c-121.31,0-220,98.69-220,220s98.69,220,220,220,220-98.69,220-220-98.69-220-220-220Z"/><rect class="cls-2" x="2007" y="3500.5" width="500" height="500"/><rect class="cls-2" x="3007" y="3500.5" width="500" height="500"/><rect class="cls-8" x="3507" y="3500.5" width="500" height="500"/><rect class="cls-7" x="4507" y="3500.5" width="500" height="500"/><path class="cls-8" d="M5507,3500.5h500c0,275.96-224.04,500-500,500h0v-500h0Z"/><rect class="cls-2" x="6007" y="3500.5" width="500" height="500"/><path class="cls-2" d="M6624.75.5h.25c0,69.04-55.96,125-125,125h0v-.25c0-68.9,55.85-124.75,124.75-124.75Z"/><path class="cls-6" d="M6500,126h-.5v-.75c0-69.06,56.19-125.25,125.25-125.25h.75v.5c0,69.2-56.3,125.5-125.5,125.5ZM6624.5,1c-68.31.14-123.86,55.69-124,124,68.25-.27,123.73-55.75,124-124Z"/><path class="cls-2" d="M6625,.5h125v125h-12.5c-62.13,0-112.5-50.37-112.5-112.5V.5Z"/><path class="cls-2" d="M6750,.5h0c69.04,0,125,55.96,125,125h0s-125,0-125,0V.5Z"/><path class="cls-2" d="M6875,.5h125v125h0c-69.04,0-125-55.96-125-125h0Z"/><path class="cls-6" d="M7000.5,126h-.5c-69.2,0-125.5-56.3-125.5-125.5v-.5h126v126ZM6875.5,1c.27,68.25,55.75,123.73,124,124V1h-124Z"/><rect class="cls-2" x="6500" y="125.5" width="125" height="125" rx="62.5" ry="62.5"/><path class="cls-6" d="M6562.5,251c-34.74,0-63-28.26-63-63s28.26-63,63-63,63,28.26,63,63-28.26,63-63,63ZM6562.5,126c-34.19,0-62,27.81-62,62s27.81,62,62,62,62-27.81,62-62-27.81-62-62-62Z"/><path class="cls-2" d="M6625,125.5h0c69.04,0,125,55.96,125,125h0s-125,0-125,0v-125Z"/><path class="cls-6" d="M6750.5,251h-126v-126h.5c69.2,0,125.5,56.3,125.5,125.5v.5ZM6625.5,250h124c-.27-68.25-55.75-123.73-124-124v124Z"/><rect class="cls-2" x="6750" y="125.5" width="125" height="125"/><rect class="cls-2" x="6875" y="125.5" width="125" height="125" rx="62.5" ry="62.5"/><path class="cls-6" d="M6937.5,251c-34.74,0-63-28.26-63-63s28.26-63,63-63,63,28.26,63,63-28.26,63-63,63ZM6937.5,126c-34.19,0-62,27.81-62,62s27.81,62,62,62,62-27.81,62-62-27.81-62-62-62Z"/><path class="cls-2" d="M6500,250.5h0c69.04,0,125,55.96,125,125h0s0,0,0,0c-69.04,0-125-55.96-125-125h0Z"/><path class="cls-6" d="M6625.5,376h-.5c-69.2,0-125.5-56.3-125.5-125.5v-.5h.5c69.2,0,125.5,56.3,125.5,125.5v.5ZM6500.5,251c.27,68.25,55.75,123.73,124,124-.27-68.25-55.75-123.73-124-124Z"/><rect class="cls-2" x="6625" y="250.5" width="125" height="125" rx="62.5" ry="62.5"/><path class="cls-6" d="M6687.5,376c-34.74,0-63-28.26-63-63s28.26-63,63-63,63,28.26,63,63-28.26,63-63,63ZM6687.5,251c-34.19,0-62,27.81-62,62s27.81,62,62,62,62-27.81,62-62-27.81-62-62-62Z"/><path class="cls-2" d="M6750,250.5h125v125h0c-69.04,0-125-55.96-125-125h0Z"/><path class="cls-2" d="M6875,250.5h125v16c0,60.2-48.8,109-109,109h-16v-125Z"/><path class="cls-2" d="M6500,375.5h125v125h0c-69.04,0-125-55.96-125-125h0Z"/><rect class="cls-2" x="6625" y="375.5" width="125" height="125"/><path class="cls-2" d="M6750,375.5h125c0,69.04-55.96,125-125,125h0v-125Z"/><path class="cls-2" d="M6984.75,375.5h15.25v125h-125v-15.25c0-60.61,49.14-109.75,109.75-109.75Z"/><path class="cls-6" d="M7000.5,501h-126v-15.75c0-60.79,49.46-110.25,110.25-110.25h15.75v126ZM6875.5,500h124v-124h-14.75c-60.24,0-109.25,49.01-109.25,109.25v14.75Z"/><rect class="cls-3" x="2005.5" y="2500" width="125" height="500" rx="62.5" ry="62.5"/><path class="cls-5" d="M2130.5,2501h0c69.04,0,125,55.96,125,125v375h-125v-500Z"/><path class="cls-3" d="M2380,2500.5h0v500h-125v-375c0-69.04,55.96-125,125-125Z"/><rect class="cls-5" x="2380" y="2500.5" width="125" height="500" rx="62.5" ry="62.5"/><rect class="cls-7" x="4504" y="2000.5" width="125" height="125" rx="62.5" ry="62.5"/><rect class="cls-7" x="4629" y="2000.5" width="125" height="125" rx="62.5" ry="62.5"/><rect class="cls-7" x="4754" y="2000.5" width="125" height="125" rx="62.5" ry="62.5"/><rect class="cls-7" x="4879" y="2000.5" width="125" height="125" rx="62.5" ry="62.5"/><rect class="cls-7" x="4504" y="2125.5" width="125" height="125" rx="62.5" ry="62.5"/><rect class="cls-7" x="4629" y="2125.5" width="125" height="125" rx="62.5" ry="62.5"/><rect class="cls-7" x="4754" y="2125.5" width="125" height="125" rx="62.5" ry="62.5"/><rect class="cls-7" x="4879" y="2125.5" width="125" height="125" rx="62.5" ry="62.5"/><rect class="cls-7" x="4504" y="2250.5" width="125" height="125" rx="62.5" ry="62.5"/><rect class="cls-7" x="4629" y="2250.5" width="125" height="125" rx="62.5" ry="62.5"/><rect class="cls-7" x="4754" y="2250.5" width="125" height="125" rx="62.5" ry="62.5"/><rect class="cls-7" x="4879" y="2250.5" width="125" height="125" rx="62.5" ry="62.5"/><rect class="cls-7" x="4504" y="2375.5" width="125" height="125" rx="62.5" ry="62.5"/><rect class="cls-7" x="4629" y="2375.5" width="125" height="125" rx="62.5" ry="62.5"/><rect class="cls-7" x="4754" y="2375.5" width="125" height="125" rx="62.5" ry="62.5"/><rect class="cls-7" x="4879" y="2375.5" width="125" height="125" rx="62.5" ry="62.5"/><rect class="cls-2" x="1003" y="1500.5" width="166.67" height="250" rx="83.33" ry="83.33"/><rect class="cls-5" x="1169.67" y="1500.5" width="166.67" height="250" rx="83.33" ry="83.33"/><rect class="cls-2" x="1336.33" y="1500.5" width="166.67" height="250" rx="83.33" ry="83.33"/><rect class="cls-1" x="1003" y="1750.5" width="166.67" height="250" rx="83.33" ry="83.33"/><rect class="cls-2" x="1169.67" y="1750.5" width="166.67" height="250" rx="83.33" ry="83.33"/><path class="cls-1" d="M1419.67,1750.5h83.33v250h0c-92.05,0-166.67-74.62-166.67-166.67h0c0-46.02,37.31-83.33,83.33-83.33Z"/><path class="cls-2" d="M4007,3500.5h125c0,69.04-55.96,125-125,125h0v-125Z"/><path class="cls-2" d="M4132,3500.5h125c0,69.04-55.96,125-125,125h0v-125Z"/><path class="cls-2" d="M4257,3500.5h125c0,69.04-55.96,125-125,125h0v-125Z"/><path class="cls-2" d="M4382,3500.5h125c0,69.04-55.96,125-125,125h0v-125Z"/><path class="cls-2" d="M4132,3625.5h0v125h-125c0-69.04,55.96-125,125-125Z"/><path class="cls-2" d="M4257,3625.5h0v125h-125c0-69.04,55.96-125,125-125Z"/><path class="cls-2" d="M4382,3625.5h0v125h-125c0-69.04,55.96-125,125-125Z"/><path class="cls-2" d="M4507,3625.5h0v125h-125c0-69.04,55.96-125,125-125Z"/><path class="cls-2" d="M4007,3750.5h125c0,69.04-55.96,125-125,125h0v-125Z"/><path class="cls-2" d="M4132,3750.5h125c0,69.04-55.96,125-125,125h0v-125Z"/><path class="cls-2" d="M4257,3750.5h125c0,69.04-55.96,125-125,125h0v-125Z"/><path class="cls-2" d="M4382,3750.5h125c0,69.04-55.96,125-125,125h0v-125Z"/><path class="cls-2" d="M4007,3875.5h0c69.04,0,125,55.96,125,125h0s-125,0-125,0v-125Z"/><path class="cls-2" d="M4132,3875.5h0c69.04,0,125,55.96,125,125h0s-125,0-125,0v-125Z"/><path class="cls-2" d="M4257,3875.5h0c69.04,0,125,55.96,125,125h0s-125,0-125,0v-125Z"/><path class="cls-2" d="M4382,3875.5h0c69.04,0,125,55.96,125,125h0s-125,0-125,0v-125Z"/><rect class="cls-7" x="4001" y="500.5" width="500" height="83.33"/><rect class="cls-3" x="4001" y="583.83" width="500" height="83.33"/><rect class="cls-1" x="4001" y="667.17" width="500" height="83.33"/><rect class="cls-3" x="4001" y="750.5" width="500" height="83.33"/><rect class="cls-7" x="4001" y="833.83" width="500" height="83.33"/><rect class="cls-3" x="4001" y="917.17" width="500" height="83.33"/><rect class="cls-1" x="3003" y="1500.5" width="250" height="250" rx="125" ry="125"/><rect class="cls-1" x="3253" y="1500.5" width="250" height="250" rx="125" ry="125"/><rect class="cls-1" x="3003" y="1750.5" width="250" height="250" rx="125" ry="125"/><rect class="cls-1" x="3253" y="1750.5" width="250" height="250" rx="125" ry="125"/><path class="cls-3" d="M1084.17,500.67h0v83.33h-83.33c0-46.02,37.31-83.33,83.33-83.33Z"/><polygon class="cls-3" points="1126.5 584 1167.67 500.5 1167.67 583.83 1084.33 583.83 1126.5 584"/><rect class="cls-3" x="1167.67" y="500.5" width="83.33" height="83.33"/><rect class="cls-3" x="1251" y="500.5" width="83.33" height="83.33"/><rect class="cls-3" x="1334.33" y="500.5" width="83.33" height="83.33"/><rect class="cls-3" x="1417.67" y="500.5" width="83.33" height="83.33"/><rect class="cls-3" x="1001" y="583.83" width="83.33" height="83.33"/><rect class="cls-3" x="1084.33" y="583.83" width="83.33" height="83.33"/><rect class="cls-3" x="1167.67" y="583.83" width="83.33" height="83.33"/><polygon class="cls-3" points="1251 583.83 1292.5 626 1334.33 667.17 1251 667.17 1251 583.83"/><rect class="cls-3" x="1334.33" y="583.83" width="83.33" height="83.33"/><polygon class="cls-3" points="1459.5 626 1501 583.83 1501 667.17 1417.67 667.17 1459.5 626"/><rect class="cls-3" x="1001" y="667.17" width="83.33" height="83.33"/><rect class="cls-3" x="1084.33" y="667.17" width="83.33" height="83.33"/><rect class="cls-3" x="1167.67" y="667.17" width="83.33" height="83.33"/><rect class="cls-3" x="1251" y="667.17" width="83.33" height="83.33"/><rect class="cls-3" x="1334.33" y="667.17" width="83.33" height="83.33"/><rect class="cls-3" x="1417.67" y="667.17" width="83.33" height="83.33"/><rect class="cls-3" x="1001" y="750.5" width="83.33" height="83.33"/><polygon class="cls-3" points="1084.33 750.5 1167.67 750.5 1167.67 833.83 1126.5 792 1084.33 750.5"/><rect class="cls-3" x="1167.67" y="750.5" width="83.33" height="83.33"/><rect class="cls-3" x="1251" y="750.5" width="83.33" height="83.33"/><polygon class="cls-3" points="1334.33 750.5 1375.5 793 1417.67 833.83 1334.33 833.83 1334.33 750.5"/><rect class="cls-3" x="1417.67" y="750.5" width="83.33" height="83.33"/><rect class="cls-3" x="1001" y="833.83" width="83.33" height="83.33"/><rect class="cls-3" x="1084.33" y="833.83" width="83.33" height="83.33"/><rect class="cls-3" x="1167.67" y="833.83" width="83.33" height="83.33"/><polygon class="cls-3" points="1309 876 1392.33 876 1334.33 917.17 1251 917.17 1309 876"/><rect class="cls-3" x="1334.33" y="833.83" width="83.33" height="83.33"/><rect class="cls-3" x="1417.67" y="833.83" width="83.33" height="83.33"/><rect class="cls-3" x="1001" y="917.17" width="83.33" height="83.33"/><polygon class="cls-3" points="1126.5 959 1167.67 917.17 1167.67 1000.5 1084.33 1000.5 1126.5 959"/><rect class="cls-3" x="1167.67" y="917.17" width="83.33" height="83.33"/><rect class="cls-3" x="1251" y="917.17" width="83.33" height="83.33"/><rect class="cls-3" x="1334.33" y="917.17" width="83.33" height="83.33"/><polyline class="cls-3" points="1488.5 872 1405.17 872 1445.17 962"/><path class="cls-3" d="M1604,2000.5h0v100h-100c0-55.23,44.77-100,100-100Z"/><rect class="cls-3" x="1604" y="2000.5" width="100" height="100"/><rect class="cls-3" x="1704" y="2000.5" width="100" height="100"/><rect class="cls-3" x="1804" y="2000.5" width="100" height="100"/><rect class="cls-3" x="1904" y="2000.5" width="100" height="100"/><rect class="cls-3" x="1504" y="2100.5" width="100" height="100"/><rect class="cls-3" x="1604" y="2100.5" width="100" height="100"/><rect class="cls-3" x="1704" y="2100.5" width="100" height="100"/><path class="cls-3" d="M1804,2100.5h0c55.23,0,100,44.77,100,100h0s-100,0-100,0v-100Z"/><rect class="cls-3" x="1904" y="2100.5" width="100" height="100"/><rect class="cls-3" x="1504" y="2200.5" width="100" height="100"/><path class="cls-3" d="M1704,2200.5h0v100h-100c0-55.23,44.77-100,100-100Z"/><rect class="cls-3" x="1704" y="2200.5" width="100" height="100"/><rect class="cls-3" x="1804" y="2200.5" width="100" height="100"/><rect class="cls-3" x="1904" y="2200.5" width="100" height="100"/><rect class="cls-3" x="1504" y="2300.5" width="100" height="100"/><rect class="cls-3" x="1604" y="2300.5" width="100" height="100"/><rect class="cls-3" x="1704" y="2300.5" width="100" height="100"/><rect class="cls-3" x="1804" y="2300.5" width="100" height="100" rx="50" ry="50"/><rect class="cls-3" x="1904" y="2300.5" width="100" height="100"/><rect class="cls-3" x="1504" y="2400.5" width="100" height="100"/><rect class="cls-3" x="1604" y="2400.5" width="100" height="100"/><rect class="cls-3" x="1704" y="2400.5" width="100" height="100"/><rect class="cls-3" x="1804" y="2400.5" width="100" height="100"/><rect class="cls-3" x="1904" y="2400.5" width="100" height="100"/><path class="cls-1" d="M3006,3000.5h0c138.07,0,250,111.93,250,250h0s0,0,0,0c-138.07,0-250-111.93-250-250h0Z"/><path class="cls-1" d="M3506,3000.5h0c0,138.07-111.93,250-250,250h0c0-138.07,111.93-250,250-250Z"/><path class="cls-1" d="M3256,3250.5h0c0,138.07-111.93,250-250,250h0c0-138.07,111.93-250,250-250Z"/><path class="cls-1" d="M3256,3250.5h0c138.07,0,250,111.93,250,250h0s0,0,0,0c-138.07,0-250-111.93-250-250h0Z"/><path class="cls-8" d="M6654.18,3559.46l-47.18-58.96v100h-100l58.96,47.18c58.49,46.8,135.02-29.73,88.22-88.22Z"/><rect class="cls-8" x="6607" y="3500.5" width="100" height="100"/><rect class="cls-8" x="6707" y="3500.5" width="100" height="100"/><rect class="cls-8" x="6807" y="3500.5" width="100" height="100"/><rect class="cls-8" x="6907" y="3500.5" width="100" height="100"/><rect class="cls-8" x="6507" y="3600.5" width="100" height="100"/><rect class="cls-8" x="6607" y="3600.5" width="100" height="100"/><rect class="cls-8" x="6707" y="3600.5" width="100" height="100"/><rect class="cls-8" x="6807" y="3600.5" width="100" height="100"/><rect class="cls-8" x="6907" y="3600.5" width="100" height="100"/><rect class="cls-8" x="6507" y="3700.5" width="100" height="100"/><rect class="cls-8" x="6607" y="3700.5" width="100" height="100"/><rect class="cls-8" x="6707" y="3700.5" width="100" height="100"/><rect class="cls-8" x="6807" y="3700.5" width="100" height="100"/><rect class="cls-8" x="6907" y="3700.5" width="100" height="100"/><rect class="cls-8" x="6507" y="3800.5" width="100" height="100"/><rect class="cls-8" x="6607" y="3800.5" width="100" height="100"/><rect class="cls-8" x="6707" y="3800.5" width="100" height="100"/><rect class="cls-8" x="6807" y="3800.5" width="100" height="100"/><rect class="cls-8" x="6907" y="3800.5" width="100" height="100"/><rect class="cls-8" x="6507" y="3900.5" width="100" height="100"/><rect class="cls-8" x="6607" y="3900.5" width="100" height="100"/><rect class="cls-8" x="6707" y="3900.5" width="100" height="100"/><rect class="cls-8" x="6807" y="3900.5" width="100" height="100"/><rect class="cls-8" x="6907" y="3900.5" width="100" height="100" rx="50" ry="50"/><path class="cls-2" d="M173.67,2000.5h83.33v166.67H7c0-92.05,74.62-166.67,166.67-166.67Z"/><path class="cls-2" d="M423.67,2000.5h83.33v166.67h-250c0-92.05,74.62-166.67,166.67-166.67Z"/><path class="cls-2" d="M173.67,2167.17h83.33v166.67H7c0-92.05,74.62-166.67,166.67-166.67Z"/><path class="cls-2" d="M423.67,2167.17h83.33v166.67h-250c0-92.05,74.62-166.67,166.67-166.67Z"/><path class="cls-2" d="M7,2333.83h83.33c92.05,0,166.67,74.62,166.67,166.67h0s-250,0-250,0v-166.67Z"/><path class="cls-2" d="M257,2333.83h83.33c92.05,0,166.67,74.62,166.67,166.67h0s-250,0-250,0v-166.67Z"/><rect class="cls-5" x="5503" y="1500.5" width="500" height="100"/><rect class="cls-7" x="5503" y="1600.5" width="500" height="100"/><rect class="cls-8" x="5503" y="1700.5" width="500" height="100"/><rect class="cls-1" x="5503" y="1800.5" width="500" height="100"/><rect class="cls-3" x="5503" y="1900.5" width="500" height="100"/><rect class="cls-8" x="2" y="1000.5" width="166.67" height="166.67" rx="83.33" ry="83.33"/><rect class="cls-8" x="168.67" y="1000.5" width="166.67" height="166.67" rx="83.33" ry="83.33"/><rect class="cls-8" x="335.33" y="1000.5" width="166.67" height="166.67" rx="83.33" ry="83.33"/><rect class="cls-8" x="2" y="1167.17" width="166.67" height="166.67" rx="83.33" ry="83.33"/><rect class="cls-8" x="168.67" y="1167.17" width="166.67" height="166.67" rx="83.33" ry="83.33"/><rect class="cls-8" x="335.33" y="1167.17" width="166.67" height="166.67" rx="83.33" ry="83.33"/><rect class="cls-8" x="2" y="1333.83" width="166.67" height="166.67" rx="83.33" ry="83.33"/><rect class="cls-8" x="168.67" y="1333.83" width="166.67" height="166.67" rx="83.33" ry="83.33"/><rect class="cls-8" x="335.33" y="1333.83" width="166.67" height="166.67" rx="83.33" ry="83.33"/><path class="cls-7" d="M5172.67,3000.5h0v166.67h-166.67c0-92.05,74.62-166.67,166.67-166.67Z"/><path class="cls-7" d="M5172.67,3000.5h0c92.05,0,166.67,74.62,166.67,166.67h0s-166.67,0-166.67,0v-166.67Z"/><rect class="cls-7" x="5339.33" y="3000.5" width="166.67" height="166.67"/><rect class="cls-7" x="5006" y="3167.17" width="166.67" height="166.67"/><rect class="cls-7" x="5172.67" y="3167.17" width="166.67" height="166.67"/><rect class="cls-7" x="5339.33" y="3167.17" width="166.67" height="166.67"/><rect class="cls-7" x="5006" y="3333.83" width="166.67" height="166.67"/><path class="cls-7" d="M5172.67,3333.83h166.67v166.67h0c-92.05,0-166.67-74.62-166.67-166.67h0Z"/><path class="cls-7" d="M5339.33,3333.83h166.67c0,92.05-74.62,166.67-166.67,166.67h0v-166.67Z"/><path class="cls-8" d="M4006,3000.5h250c0,138.07-111.93,250-250,250h0v-250Z"/><path class="cls-8" d="M4256,3000.5h250v250h0c-138.07,0-250-111.93-250-250h0Z"/><path class="cls-8" d="M4006,3250.5h250v250h0c-138.07,0-250-111.93-250-250h0Z"/><path class="cls-8" d="M4506,3250.5h0v250h-250c0-138.07,111.93-250,250-250Z"/><path class="cls-2" d="M3506,3002.5h125c0,69.04-55.96,125-125,125h0v-125Z"/><path class="cls-3" d="M3874.09,3001h.41v125h-125v-.41c0-68.81,55.78-124.59,124.59-124.59Z"/><path class="cls-3" d="M3874.5,3001h0c69.04,0,125,55.96,125,125h0s-125,0-125,0v-125Z"/><path class="cls-3" d="M3624.5,3126h0v125h-125c0-69.04,55.96-125,125-125Z"/><rect class="cls-3" x="3624.5" y="3126" width="125" height="125"/><rect class="cls-3" x="3749.5" y="3126" width="125" height="125"/><rect class="cls-3" x="3874.5" y="3126" width="125" height="125"/><rect class="cls-3" x="3499.5" y="3251" width="125" height="125"/><rect class="cls-3" x="3624.5" y="3251" width="125" height="125"/><rect class="cls-3" x="3749.5" y="3251" width="125" height="125"/><rect class="cls-3" x="3874.5" y="3251" width="125" height="125"/><path class="cls-3" d="M3499.5,3376h125v125h0c-69.04,0-125-55.96-125-125h0Z"/><rect class="cls-3" x="3624.5" y="3376" width="125" height="125"/><rect class="cls-3" x="3749.5" y="3376" width="125" height="125"/><path class="cls-3" d="M3874.5,3376h125c0,69.04-55.96,125-125,125h0v-125Z"/><rect class="cls-1" x="6504" y="2000.5" width="166.67" height="166.67" rx="83.33" ry="83.33"/><rect class="cls-1" x="6670.67" y="2000.5" width="166.67" height="166.67" rx="83.33" ry="83.33"/><rect class="cls-1" x="6837.33" y="2000.5" width="166.67" height="166.67" rx="83.33" ry="83.33"/><rect class="cls-1" x="6504" y="2167.17" width="166.67" height="166.67" rx="83.33" ry="83.33"/><rect class="cls-1" x="6670.67" y="2167.17" width="166.67" height="166.67" rx="83.33" ry="83.33"/><rect class="cls-1" x="6837.33" y="2167.17" width="166.67" height="166.67" rx="83.33" ry="83.33"/><rect class="cls-1" x="6504" y="2333.83" width="166.67" height="166.67" rx="83.33" ry="83.33"/><rect class="cls-1" x="6670.67" y="2333.83" width="166.67" height="166.67" rx="83.33" ry="83.33"/><rect class="cls-1" x="6837.33" y="2333.83" width="166.67" height="166.67" rx="83.33" ry="83.33"/><path class="cls-2" d="M2672.67,3000.5h0v166.67h-166.67c0-92.05,74.62-166.67,166.67-166.67Z"/><path class="cls-2" d="M2672.67,3000.5h166.67v166.67h0c-92.05,0-166.67-74.62-166.67-166.67h0Z"/><path class="cls-2" d="M2839.33,3000.5h166.67v166.67h0c-92.05,0-166.67-74.62-166.67-166.67h0Z"/><path class="cls-2" d="M2506,3167.17h166.67c0,92.05-74.62,166.67-166.67,166.67h0v-166.67Z"/><path class="cls-2" d="M2672.67,3167.17h0c92.05,0,166.67,74.62,166.67,166.67h0s-166.67,0-166.67,0v-166.67Z"/><path class="cls-2" d="M2839.33,3167.17h166.67c0,92.05-74.62,166.67-166.67,166.67h0v-166.67Z"/><rect class="cls-2" x="2506" y="3333.83" width="166.67" height="166.67"/><path class="cls-2" d="M2672.67,3333.83h166.67v166.67h0c-92.05,0-166.67-74.62-166.67-166.67h0Z"/><path class="cls-2" d="M2839.33,3333.83h166.67c0,92.05-74.62,166.67-166.67,166.67h0v-166.67Z"/><rect class="cls-8" x="2507" y="3500.5" width="166.67" height="166.67" rx="83.33" ry="83.33"/><rect class="cls-8" x="2673.67" y="3500.5" width="166.67" height="166.67" rx="83.33" ry="83.33"/><rect class="cls-8" x="2840.33" y="3500.5" width="166.67" height="166.67" rx="83.33" ry="83.33"/><rect class="cls-8" x="2507" y="3667.17" width="166.67" height="166.67" rx="83.33" ry="83.33"/><rect class="cls-8" x="2673.67" y="3667.17" width="166.67" height="166.67" rx="83.33" ry="83.33"/><rect class="cls-8" x="2840.33" y="3667.17" width="166.67" height="166.67" rx="83.33" ry="83.33"/><rect class="cls-8" x="2507" y="3833.83" width="166.67" height="166.67" rx="83.33" ry="83.33"/><rect class="cls-8" x="2673.67" y="3833.83" width="166.67" height="166.67" rx="83.33" ry="83.33"/><rect class="cls-8" x="2840.33" y="3833.83" width="166.67" height="166.67" rx="83.33" ry="83.33"/><path class="cls-3" d="M1131,3250.5c-69.04,0-125-55.96-125-125h0c0-69.04,55.96-125,125-125h0c69.04,0,125,55.96,125,125h0"/><path class="cls-2" d="M1256,3125.5h0c0-69.04,55.96-125,125-125h0c69.04,0,125,55.96,125,125h0c0,69.04-55.96,125-125,125"/><path class="cls-2" d="M1256,3375.5h0c0,69.04-55.96,125-125,125h0c-69.04,0-125-55.96-125-125h0c0-69.04,55.96-125,125-125"/><path class="cls-8" d="M1381,3250.5c69.04,0,125,55.96,125,125h0c0,69.04-55.96,125-125,125h0c-69.04,0-125-55.96-125-125h0"/><rect class="cls-2" x="507" y="3500.5" width="125" height="250" rx="62.5" ry="62.5"/><rect class="cls-3" x="632" y="3500.5" width="125" height="250" rx="62.5" ry="62.5"/><path class="cls-3" d="M694.5,3751c-34.74,0-63-28.26-63-63v-125c0-34.74,28.26-63,63-63s63,28.26,63,63v125c0,34.74-28.26,63-63,63ZM694.5,3501c-34.19,0-62,27.81-62,62v125c0,34.19,27.81,62,62,62s62-27.81,62-62v-125c0-34.19-27.81-62-62-62Z"/><rect class="cls-2" x="757" y="3500.5" width="125" height="250" rx="62.5" ry="62.5"/><rect class="cls-8" x="882" y="3500.5" width="125" height="250" rx="62.5" ry="62.5"/><rect class="cls-8" x="507" y="3750.5" width="125" height="250" rx="62.5" ry="62.5"/><rect class="cls-2" x="632" y="3750.5" width="125" height="250" rx="62.5" ry="62.5"/><rect class="cls-3" x="757" y="3750.5" width="125" height="250" rx="62.5" ry="62.5"/><rect class="cls-2" x="882" y="3750.5" width="125" height="250" rx="62.5" ry="62.5"/></g><g id="Layer_3"><path class="cls-3" d="M7005.5,3501h-500v-500h500v500ZM6535.5,3471h440v-440h-440v440Z"/><path class="cls-5" d="M4866.93,3361.43h-221.85v-221.85h221.85v221.85ZM4651.73,3354.77h208.54v-208.54h-208.54v208.54Z"/><path class="cls-5" d="M4886.5,3381h-261v-261h261v261ZM4633.33,3373.17h245.34v-245.34h-245.34v245.34Z"/><path class="cls-5" d="M4909.53,3404.03h-307.06v-307.06h307.06v307.06ZM4611.68,3394.82h288.64v-288.64h-288.64v288.64Z"/><path class="cls-5" d="M4936.62,3431.12h-361.25v-361.25h361.25v361.25ZM4586.21,3420.29h339.57v-339.58h-339.57v339.58Z"/><path class="cls-5" d="M4968.5,3463h-425v-425h425v425ZM4556.25,3450.25h399.5v-399.5h-399.5v399.5Z"/><path class="cls-5" d="M5006,3500.5h-500v-500h500v500ZM4521,3485.5h470v-470h-470v470Z"/></g></svg>