<svg width="2500" height="309" viewBox="0 0 2500 309" fill="none" xmlns="http://www.w3.org/2000/svg">
<g clip-path="url(#clip0_677_162)">
<path d="M775.708 130.258H730.718V216.961C730.718 240.08 745.975 239.706 775.708 238.27V273.307C715.493 280.545 691.532 263.916 691.532 216.961V130.258H658.148V92.663H691.532V44.148L730.718 32.6042V92.663H775.708V130.258ZM947.242 92.663H986.428V273.307H947.242V247.287C933.451 266.443 912.018 278.018 883.72 278.018C834.394 278.018 793.398 236.461 793.398 182.985C793.398 129.166 834.394 87.9831 883.72 87.9831C912.018 87.9831 933.451 99.5268 947.242 118.309V92.663ZM889.897 240.798C922.563 240.798 947.242 216.587 947.242 182.985C947.242 149.383 922.563 125.173 889.897 125.173C857.232 125.173 832.584 149.383 832.584 182.985C832.584 216.587 857.232 240.798 889.897 240.798ZM1051.73 65.5819C1037.94 65.5819 1026.68 54.007 1026.68 40.6537C1026.71 37.3777 1027.36 34.133 1028.61 31.1067C1029.87 28.0807 1031.72 25.3329 1034.04 23.0202C1036.36 20.7076 1039.12 18.8754 1042.15 17.6285C1045.18 16.3806 1048.45 15.7254 1051.73 15.7254C1055 15.7254 1058.25 16.3806 1061.31 17.6285C1064.33 18.8765 1067.08 20.7173 1069.42 23.026C1071.73 25.366 1073.57 28.1115 1074.85 31.1067C1076.1 34.133 1076.75 37.3777 1076.75 40.6537C1076.75 54.007 1065.52 65.5819 1051.73 65.5819ZM1032.14 273.307V92.663H1071.32V273.307H1032.14ZM1116.69 273.307V9.5791H1155.87V273.307H1116.69ZM1410.21 92.663H1451.58L1394.61 273.307H1356.14L1318.42 151.567L1280.33 273.307H1241.86L1184.89 92.663H1226.26L1261.45 217.304L1299.54 92.663H1336.92L1374.64 217.304L1410.21 92.663ZM1500.19 65.5819C1486.4 65.5819 1475.17 54.007 1475.17 40.6537C1475.17 37.3777 1475.82 34.133 1477.07 31.1067C1478.35 28.1115 1480.19 25.366 1482.5 23.026C1484.84 20.7173 1487.58 18.8765 1490.61 17.6285C1493.67 16.3806 1496.91 15.7254 1500.19 15.7254C1506.82 15.7269 1513.18 18.3515 1517.88 23.026C1520.22 25.366 1522.06 28.1115 1523.31 31.1067C1524.59 34.133 1525.24 37.3777 1525.24 40.6537C1525.24 54.007 1513.98 65.5819 1500.19 65.5819ZM1480.59 273.307V92.663H1519.78V273.307H1480.59ZM1730.25 162.394V273.307H1691.07V166.387C1691.07 138.9 1675.09 124.455 1650.41 124.455C1624.64 124.455 1604.33 139.649 1604.33 176.496V273.307H1565.14V92.663H1604.33V115.782C1616.31 96.9997 1635.9 87.9831 1660.58 87.9831C1701.21 87.9831 1730.25 115.439 1730.25 162.394ZM1916.01 20.4053H1955.2V273.307H1916.01V247.287C1902.22 266.443 1880.82 278.018 1852.52 278.018C1803.16 278.018 1762.17 236.461 1762.17 182.985C1762.17 129.166 1803.16 87.9831 1852.52 87.9831C1880.82 87.9831 1902.22 99.5268 1916.01 118.309V20.4053ZM1858.7 240.798C1891.33 240.798 1916.01 216.587 1916.01 182.985C1916.01 149.383 1891.33 125.173 1858.7 125.173C1826.03 125.173 1801.36 149.383 1801.36 182.985C1801.36 216.587 1826.03 240.798 1858.7 240.798ZM1990.77 182.985C1990.77 129.166 2031.76 87.9831 2086.55 87.9831C2122.12 87.9831 2152.94 106.391 2167.45 134.595L2133.72 154.095C2125.73 137.122 2107.95 126.265 2086.17 126.265C2054.26 126.265 2029.95 150.475 2029.95 182.985C2029.95 215.495 2054.26 239.706 2086.17 239.706C2107.95 239.706 2125.73 228.505 2134.44 211.907L2168.2 231.032C2152.94 259.58 2122.12 278.018 2086.55 278.018C2031.76 278.018 1990.77 236.461 1990.77 182.985ZM2330.37 222.359C2330.37 258.488 2298.8 278.018 2259.61 278.018C2223.33 278.018 2197.21 261.732 2185.61 235.743L2219.33 216.212C2225.17 232.498 2239.67 242.233 2259.61 242.233C2277.05 242.233 2290.47 236.461 2290.47 222.016C2290.47 189.849 2192.88 207.913 2192.88 143.237C2192.88 109.292 2222.27 87.9831 2259.27 87.9831C2289 87.9831 2313.68 101.711 2326.38 125.547L2293.37 143.986C2286.85 129.884 2274.15 123.394 2259.27 123.394C2245.1 123.394 2232.78 129.509 2232.78 142.52C2232.78 175.404 2330.37 155.53 2330.37 222.359ZM2497.66 222.359C2497.66 258.488 2466.09 278.018 2426.9 278.018C2390.62 278.018 2364.47 261.732 2352.87 235.743L2386.62 216.212C2392.43 232.498 2406.93 242.233 2426.9 242.233C2444.31 242.233 2457.73 236.461 2457.73 222.016C2457.73 189.849 2360.14 207.913 2360.14 143.237C2360.14 109.292 2389.53 87.9831 2426.53 87.9831C2456.29 87.9831 2480.97 101.711 2493.67 125.547L2460.63 143.986C2454.11 129.884 2441.41 123.394 2426.53 123.394C2412.39 123.394 2400.04 129.509 2400.04 142.52C2400.04 175.404 2497.66 155.53 2497.66 222.359Z" fill="black"/>
<path d="M260.138 0.46875C191.406 0.46875 148.413 34.6944 131.222 103.146C157.024 68.9201 187.1 56.066 221.482 64.6146C241.075 69.5129 255.084 83.6774 270.621 99.3707C295.893 124.892 325.158 154.469 389.054 154.469C457.786 154.469 500.747 120.243 517.938 51.7917C492.168 86.0174 462.092 98.8403 427.71 90.2917C408.117 85.4246 394.077 71.2289 378.571 55.5668C353.299 30.0145 324.034 0.46875 260.138 0.46875ZM131.222 154.469C62.4902 154.469 19.5287 188.694 2.33789 257.146C28.1086 222.92 58.1847 210.097 92.5664 218.646C112.191 223.513 126.199 237.709 141.705 253.371C166.977 278.923 196.242 308.469 260.138 308.469C328.901 308.469 371.863 274.243 389.054 205.792C363.252 240.017 333.176 252.871 298.825 244.323C279.201 239.425 265.192 225.26 249.655 209.567C224.384 184.046 195.119 154.469 131.222 154.469Z" fill="black"/>
</g>
<defs>
<clipPath id="clip0_677_162">
<rect width="2500" height="308" fill="white" transform="translate(0 0.46875)"/>
</clipPath>
</defs>
</svg>
