<svg width="2500" height="567" viewBox="0 0 2500 567" fill="none" xmlns="http://www.w3.org/2000/svg">
<g clip-path="url(#clip0_677_165)">
<path d="M1247.17 142.022C1149.55 142.022 1079.16 205.689 1079.16 301.19C1079.16 396.691 1158.39 460.358 1256.01 460.358C1314.99 460.358 1366.99 437.013 1399.18 397.663L1331.53 358.579C1313.67 378.121 1286.52 389.528 1256.01 389.528C1213.66 389.528 1177.67 367.422 1164.31 332.051H1412.09C1414.03 322.147 1415.18 311.89 1415.18 301.101C1415.18 205.689 1344.79 142.022 1247.17 142.022ZM1163.52 270.241C1174.57 234.958 1204.81 212.763 1247.08 212.763C1289.44 212.763 1319.68 234.958 1330.65 270.241H1163.52ZM2199.35 142.022C2101.73 142.022 2031.34 205.689 2031.34 301.19C2031.34 396.691 2110.57 460.358 2208.19 460.358C2267.17 460.358 2319.17 437.013 2351.35 397.663L2283.71 358.579C2265.85 378.121 2238.7 389.528 2208.19 389.528C2165.84 389.528 2129.85 367.422 2116.49 332.051H2364.26C2366.21 322.147 2367.36 311.89 2367.36 301.101C2367.36 205.689 2296.97 142.022 2199.35 142.022ZM2115.79 270.241C2126.84 234.958 2157.08 212.763 2199.35 212.763C2241.71 212.763 2271.95 234.958 2282.91 270.241H2115.79ZM1770.66 301.19C1770.66 354.246 1805.32 389.617 1859.08 389.617C1895.52 389.617 1922.84 373.081 1936.9 346.111L2004.81 385.284C1976.69 432.15 1923.99 460.358 1859.08 460.358C1761.37 460.358 1691.07 396.691 1691.07 301.19C1691.07 205.689 1761.46 142.022 1859.08 142.022C1923.99 142.022 1976.6 170.23 2004.81 217.096L1936.9 256.269C1922.84 229.299 1895.52 212.763 1859.08 212.763C1805.41 212.763 1770.66 248.134 1770.66 301.19ZM2500 44.7524V451.515H2420.42V44.7524H2500ZM326.737 0.539062L653.473 566.47H0L326.737 0.539062ZM1143.62 44.7524L898.592 469.201L653.562 44.7524H745.437L898.592 310.033L1051.75 44.7524H1143.62ZM1664.54 150.864V236.55C1655.7 233.986 1646.33 232.217 1636.25 232.217C1584.87 232.217 1547.82 267.588 1547.82 320.644V451.515H1468.24V150.864H1547.82V232.217C1547.82 187.296 1600.08 150.864 1664.54 150.864Z" fill="black"/>
</g>
<defs>
<clipPath id="clip0_677_165">
<rect width="2500" height="565.93" fill="white" transform="translate(0 0.539062)"/>
</clipPath>
</defs>
</svg>
